<mxfile host="Electron" modified="2024-07-31T19:43:50.975Z" agent="Mozilla/5.0 (Windows NT 10.0; Win64; x64) AppleWebKit/537.36 (KHTML, like Gecko) draw.io/24.0.4 Chrome/120.0.6099.109 Electron/28.1.0 Safari/537.36" etag="x_cDwftLExLjH-HqbMX_" version="24.0.4" type="device">
  <diagram id="C5RBs43oDa-KdzZeNtuy" name="Page-1">
    <mxGraphModel dx="3728" dy="1204" grid="1" gridSize="10" guides="1" tooltips="1" connect="1" arrows="1" fold="1" page="1" pageScale="1" pageWidth="827" pageHeight="1169" math="0" shadow="0">
      <root>
        <mxCell id="WIyWlLk6GJQsqaUBKTNV-0" />
        <mxCell id="WIyWlLk6GJQsqaUBKTNV-1" parent="WIyWlLk6GJQsqaUBKTNV-0" />
        <mxCell id="zkfFHV4jXpPFQw0GAbJ--0" value="Input" style="swimlane;fontStyle=0;align=center;verticalAlign=top;childLayout=stackLayout;horizontal=1;startSize=26;horizontalStack=0;resizeParent=1;resizeLast=0;collapsible=1;marginBottom=0;rounded=0;shadow=0;strokeWidth=1;" parent="WIyWlLk6GJQsqaUBKTNV-1" vertex="1">
          <mxGeometry x="220" y="120" width="160" height="138" as="geometry">
            <mxRectangle x="230" y="140" width="160" height="26" as="alternateBounds" />
          </mxGeometry>
        </mxCell>
        <mxCell id="zkfFHV4jXpPFQw0GAbJ--1" value="Name" style="text;align=left;verticalAlign=top;spacingLeft=4;spacingRight=4;overflow=hidden;rotatable=0;points=[[0,0.5],[1,0.5]];portConstraint=eastwest;" parent="zkfFHV4jXpPFQw0GAbJ--0" vertex="1">
          <mxGeometry y="26" width="160" height="26" as="geometry" />
        </mxCell>
        <mxCell id="zkfFHV4jXpPFQw0GAbJ--2" value="Phone Number" style="text;align=left;verticalAlign=top;spacingLeft=4;spacingRight=4;overflow=hidden;rotatable=0;points=[[0,0.5],[1,0.5]];portConstraint=eastwest;rounded=0;shadow=0;html=0;" parent="zkfFHV4jXpPFQw0GAbJ--0" vertex="1">
          <mxGeometry y="52" width="160" height="26" as="geometry" />
        </mxCell>
        <mxCell id="zkfFHV4jXpPFQw0GAbJ--3" value="Email Address" style="text;align=left;verticalAlign=top;spacingLeft=4;spacingRight=4;overflow=hidden;rotatable=0;points=[[0,0.5],[1,0.5]];portConstraint=eastwest;rounded=0;shadow=0;html=0;" parent="zkfFHV4jXpPFQw0GAbJ--0" vertex="1">
          <mxGeometry y="78" width="160" height="26" as="geometry" />
        </mxCell>
        <mxCell id="zkfFHV4jXpPFQw0GAbJ--4" value="" style="line;html=1;strokeWidth=1;align=left;verticalAlign=middle;spacingTop=-1;spacingLeft=3;spacingRight=3;rotatable=0;labelPosition=right;points=[];portConstraint=eastwest;" parent="zkfFHV4jXpPFQw0GAbJ--0" vertex="1">
          <mxGeometry y="104" width="160" height="8" as="geometry" />
        </mxCell>
        <mxCell id="zkfFHV4jXpPFQw0GAbJ--5" value="Purchase Parking Pass" style="text;align=left;verticalAlign=top;spacingLeft=4;spacingRight=4;overflow=hidden;rotatable=0;points=[[0,0.5],[1,0.5]];portConstraint=eastwest;" parent="zkfFHV4jXpPFQw0GAbJ--0" vertex="1">
          <mxGeometry y="112" width="160" height="26" as="geometry" />
        </mxCell>
        <mxCell id="zkfFHV4jXpPFQw0GAbJ--6" value="TemperatureSensor" style="swimlane;fontStyle=0;align=center;verticalAlign=top;childLayout=stackLayout;horizontal=1;startSize=26;horizontalStack=0;resizeParent=1;resizeLast=0;collapsible=1;marginBottom=0;rounded=0;shadow=0;strokeWidth=1;" parent="WIyWlLk6GJQsqaUBKTNV-1" vertex="1">
          <mxGeometry x="-80" y="360" width="160" height="138" as="geometry">
            <mxRectangle x="130" y="380" width="160" height="26" as="alternateBounds" />
          </mxGeometry>
        </mxCell>
        <mxCell id="zkfFHV4jXpPFQw0GAbJ--7" value="Student Number" style="text;align=left;verticalAlign=top;spacingLeft=4;spacingRight=4;overflow=hidden;rotatable=0;points=[[0,0.5],[1,0.5]];portConstraint=eastwest;" parent="zkfFHV4jXpPFQw0GAbJ--6" vertex="1">
          <mxGeometry y="26" width="160" height="26" as="geometry" />
        </mxCell>
        <mxCell id="zkfFHV4jXpPFQw0GAbJ--9" value="" style="line;html=1;strokeWidth=1;align=left;verticalAlign=middle;spacingTop=-1;spacingLeft=3;spacingRight=3;rotatable=0;labelPosition=right;points=[];portConstraint=eastwest;" parent="zkfFHV4jXpPFQw0GAbJ--6" vertex="1">
          <mxGeometry y="52" width="160" height="8" as="geometry" />
        </mxCell>
        <mxCell id="zkfFHV4jXpPFQw0GAbJ--10" value="Is Eligible To Enroll" style="text;align=left;verticalAlign=top;spacingLeft=4;spacingRight=4;overflow=hidden;rotatable=0;points=[[0,0.5],[1,0.5]];portConstraint=eastwest;fontStyle=4" parent="zkfFHV4jXpPFQw0GAbJ--6" vertex="1">
          <mxGeometry y="60" width="160" height="26" as="geometry" />
        </mxCell>
        <mxCell id="zkfFHV4jXpPFQw0GAbJ--12" value="" style="endArrow=classic;endSize=10;endFill=1;shadow=0;strokeWidth=1;rounded=0;edgeStyle=elbowEdgeStyle;elbow=vertical;" parent="WIyWlLk6GJQsqaUBKTNV-1" source="zkfFHV4jXpPFQw0GAbJ--6" target="zkfFHV4jXpPFQw0GAbJ--0" edge="1">
          <mxGeometry width="160" relative="1" as="geometry">
            <mxPoint x="200" y="203" as="sourcePoint" />
            <mxPoint x="200" y="203" as="targetPoint" />
          </mxGeometry>
        </mxCell>
        <mxCell id="zkfFHV4jXpPFQw0GAbJ--13" value="ForceSensor" style="swimlane;fontStyle=0;align=center;verticalAlign=top;childLayout=stackLayout;horizontal=1;startSize=26;horizontalStack=0;resizeParent=1;resizeLast=0;collapsible=1;marginBottom=0;rounded=0;shadow=0;strokeWidth=1;" parent="WIyWlLk6GJQsqaUBKTNV-1" vertex="1">
          <mxGeometry x="220" y="360" width="160" height="70" as="geometry">
            <mxRectangle x="340" y="380" width="170" height="26" as="alternateBounds" />
          </mxGeometry>
        </mxCell>
        <mxCell id="zkfFHV4jXpPFQw0GAbJ--14" value="Salary" style="text;align=left;verticalAlign=top;spacingLeft=4;spacingRight=4;overflow=hidden;rotatable=0;points=[[0,0.5],[1,0.5]];portConstraint=eastwest;" parent="zkfFHV4jXpPFQw0GAbJ--13" vertex="1">
          <mxGeometry y="26" width="160" height="26" as="geometry" />
        </mxCell>
        <mxCell id="zkfFHV4jXpPFQw0GAbJ--15" value="" style="line;html=1;strokeWidth=1;align=left;verticalAlign=middle;spacingTop=-1;spacingLeft=3;spacingRight=3;rotatable=0;labelPosition=right;points=[];portConstraint=eastwest;" parent="zkfFHV4jXpPFQw0GAbJ--13" vertex="1">
          <mxGeometry y="52" width="160" height="8" as="geometry" />
        </mxCell>
        <mxCell id="zkfFHV4jXpPFQw0GAbJ--16" value="" style="endArrow=classic;endSize=10;endFill=1;shadow=0;strokeWidth=1;rounded=0;edgeStyle=elbowEdgeStyle;elbow=vertical;" parent="WIyWlLk6GJQsqaUBKTNV-1" source="zkfFHV4jXpPFQw0GAbJ--13" target="zkfFHV4jXpPFQw0GAbJ--0" edge="1">
          <mxGeometry width="160" relative="1" as="geometry">
            <mxPoint x="210" y="373" as="sourcePoint" />
            <mxPoint x="310" y="271" as="targetPoint" />
          </mxGeometry>
        </mxCell>
        <mxCell id="zkfFHV4jXpPFQw0GAbJ--17" value="PressureSensor" style="swimlane;fontStyle=0;align=center;verticalAlign=top;childLayout=stackLayout;horizontal=1;startSize=26;horizontalStack=0;resizeParent=1;resizeLast=0;collapsible=1;marginBottom=0;rounded=0;shadow=0;strokeWidth=1;" parent="WIyWlLk6GJQsqaUBKTNV-1" vertex="1">
          <mxGeometry x="509" y="360" width="160" height="100" as="geometry">
            <mxRectangle x="550" y="140" width="160" height="26" as="alternateBounds" />
          </mxGeometry>
        </mxCell>
        <mxCell id="zkfFHV4jXpPFQw0GAbJ--18" value="Street" style="text;align=left;verticalAlign=top;spacingLeft=4;spacingRight=4;overflow=hidden;rotatable=0;points=[[0,0.5],[1,0.5]];portConstraint=eastwest;" parent="zkfFHV4jXpPFQw0GAbJ--17" vertex="1">
          <mxGeometry y="26" width="160" height="26" as="geometry" />
        </mxCell>
        <mxCell id="zkfFHV4jXpPFQw0GAbJ--23" value="" style="line;html=1;strokeWidth=1;align=left;verticalAlign=middle;spacingTop=-1;spacingLeft=3;spacingRight=3;rotatable=0;labelPosition=right;points=[];portConstraint=eastwest;" parent="zkfFHV4jXpPFQw0GAbJ--17" vertex="1">
          <mxGeometry y="52" width="160" height="8" as="geometry" />
        </mxCell>
        <mxCell id="zkfFHV4jXpPFQw0GAbJ--24" value="Validate" style="text;align=left;verticalAlign=top;spacingLeft=4;spacingRight=4;overflow=hidden;rotatable=0;points=[[0,0.5],[1,0.5]];portConstraint=eastwest;" parent="zkfFHV4jXpPFQw0GAbJ--17" vertex="1">
          <mxGeometry y="60" width="160" height="26" as="geometry" />
        </mxCell>
        <mxCell id="cO8N48qVxJcHLwkPs-du-20" value="" style="endArrow=classic;endSize=10;endFill=1;shadow=0;strokeWidth=1;rounded=0;edgeStyle=elbowEdgeStyle;elbow=vertical;entryX=0.5;entryY=1;entryDx=0;entryDy=0;exitX=0.5;exitY=0;exitDx=0;exitDy=0;" parent="WIyWlLk6GJQsqaUBKTNV-1" source="zkfFHV4jXpPFQw0GAbJ--17" target="zkfFHV4jXpPFQw0GAbJ--0" edge="1">
          <mxGeometry width="160" relative="1" as="geometry">
            <mxPoint x="530.16" y="360.08" as="sourcePoint" />
            <mxPoint x="320" y="258.00199999999995" as="targetPoint" />
          </mxGeometry>
        </mxCell>
        <mxCell id="cO8N48qVxJcHLwkPs-du-28" value="LoadCell" style="swimlane;fontStyle=0;align=center;verticalAlign=top;childLayout=stackLayout;horizontal=1;startSize=26;horizontalStack=0;resizeParent=1;resizeLast=0;collapsible=1;marginBottom=0;rounded=0;shadow=0;strokeWidth=1;" parent="WIyWlLk6GJQsqaUBKTNV-1" vertex="1">
          <mxGeometry x="220" y="490" width="160" height="100" as="geometry">
            <mxRectangle x="550" y="140" width="160" height="26" as="alternateBounds" />
          </mxGeometry>
        </mxCell>
        <mxCell id="cO8N48qVxJcHLwkPs-du-29" value="Street" style="text;align=left;verticalAlign=top;spacingLeft=4;spacingRight=4;overflow=hidden;rotatable=0;points=[[0,0.5],[1,0.5]];portConstraint=eastwest;" parent="cO8N48qVxJcHLwkPs-du-28" vertex="1">
          <mxGeometry y="26" width="160" height="26" as="geometry" />
        </mxCell>
        <mxCell id="cO8N48qVxJcHLwkPs-du-30" value="" style="line;html=1;strokeWidth=1;align=left;verticalAlign=middle;spacingTop=-1;spacingLeft=3;spacingRight=3;rotatable=0;labelPosition=right;points=[];portConstraint=eastwest;" parent="cO8N48qVxJcHLwkPs-du-28" vertex="1">
          <mxGeometry y="52" width="160" height="8" as="geometry" />
        </mxCell>
        <mxCell id="cO8N48qVxJcHLwkPs-du-31" value="Validate" style="text;align=left;verticalAlign=top;spacingLeft=4;spacingRight=4;overflow=hidden;rotatable=0;points=[[0,0.5],[1,0.5]];portConstraint=eastwest;" parent="cO8N48qVxJcHLwkPs-du-28" vertex="1">
          <mxGeometry y="60" width="160" height="26" as="geometry" />
        </mxCell>
        <mxCell id="cO8N48qVxJcHLwkPs-du-32" value="" style="endArrow=classic;endSize=10;endFill=1;shadow=0;strokeWidth=1;rounded=0;edgeStyle=elbowEdgeStyle;elbow=vertical;entryX=0.5;entryY=1;entryDx=0;entryDy=0;exitX=0.5;exitY=0;exitDx=0;exitDy=0;" parent="WIyWlLk6GJQsqaUBKTNV-1" source="cO8N48qVxJcHLwkPs-du-28" target="zkfFHV4jXpPFQw0GAbJ--13" edge="1">
          <mxGeometry width="160" relative="1" as="geometry">
            <mxPoint x="100" y="560" as="sourcePoint" />
            <mxPoint x="100" y="508" as="targetPoint" />
          </mxGeometry>
        </mxCell>
        <mxCell id="cO8N48qVxJcHLwkPs-du-34" value="PressureTransducer" style="swimlane;fontStyle=0;align=center;verticalAlign=top;childLayout=stackLayout;horizontal=1;startSize=26;horizontalStack=0;resizeParent=1;resizeLast=0;collapsible=1;marginBottom=0;rounded=0;shadow=0;strokeWidth=1;" parent="WIyWlLk6GJQsqaUBKTNV-1" vertex="1">
          <mxGeometry x="604" y="530" width="160" height="138" as="geometry">
            <mxRectangle x="130" y="380" width="160" height="26" as="alternateBounds" />
          </mxGeometry>
        </mxCell>
        <mxCell id="cO8N48qVxJcHLwkPs-du-35" value="Student Number" style="text;align=left;verticalAlign=top;spacingLeft=4;spacingRight=4;overflow=hidden;rotatable=0;points=[[0,0.5],[1,0.5]];portConstraint=eastwest;" parent="cO8N48qVxJcHLwkPs-du-34" vertex="1">
          <mxGeometry y="26" width="160" height="26" as="geometry" />
        </mxCell>
        <mxCell id="cO8N48qVxJcHLwkPs-du-37" value="" style="line;html=1;strokeWidth=1;align=left;verticalAlign=middle;spacingTop=-1;spacingLeft=3;spacingRight=3;rotatable=0;labelPosition=right;points=[];portConstraint=eastwest;" parent="cO8N48qVxJcHLwkPs-du-34" vertex="1">
          <mxGeometry y="52" width="160" height="8" as="geometry" />
        </mxCell>
        <mxCell id="cO8N48qVxJcHLwkPs-du-38" value="Is Eligible To Enroll" style="text;align=left;verticalAlign=top;spacingLeft=4;spacingRight=4;overflow=hidden;rotatable=0;points=[[0,0.5],[1,0.5]];portConstraint=eastwest;fontStyle=4" parent="cO8N48qVxJcHLwkPs-du-34" vertex="1">
          <mxGeometry y="60" width="160" height="26" as="geometry" />
        </mxCell>
        <mxCell id="cO8N48qVxJcHLwkPs-du-40" value="PressureTransmitter" style="swimlane;fontStyle=0;align=center;verticalAlign=top;childLayout=stackLayout;horizontal=1;startSize=26;horizontalStack=0;resizeParent=1;resizeLast=0;collapsible=1;marginBottom=0;rounded=0;shadow=0;strokeWidth=1;" parent="WIyWlLk6GJQsqaUBKTNV-1" vertex="1">
          <mxGeometry x="414" y="530" width="160" height="138" as="geometry">
            <mxRectangle x="130" y="380" width="160" height="26" as="alternateBounds" />
          </mxGeometry>
        </mxCell>
        <mxCell id="cO8N48qVxJcHLwkPs-du-41" value="Student Number" style="text;align=left;verticalAlign=top;spacingLeft=4;spacingRight=4;overflow=hidden;rotatable=0;points=[[0,0.5],[1,0.5]];portConstraint=eastwest;" parent="cO8N48qVxJcHLwkPs-du-40" vertex="1">
          <mxGeometry y="26" width="160" height="26" as="geometry" />
        </mxCell>
        <mxCell id="cO8N48qVxJcHLwkPs-du-43" value="" style="line;html=1;strokeWidth=1;align=left;verticalAlign=middle;spacingTop=-1;spacingLeft=3;spacingRight=3;rotatable=0;labelPosition=right;points=[];portConstraint=eastwest;" parent="cO8N48qVxJcHLwkPs-du-40" vertex="1">
          <mxGeometry y="52" width="160" height="8" as="geometry" />
        </mxCell>
        <mxCell id="cO8N48qVxJcHLwkPs-du-44" value="Is Eligible To Enroll" style="text;align=left;verticalAlign=top;spacingLeft=4;spacingRight=4;overflow=hidden;rotatable=0;points=[[0,0.5],[1,0.5]];portConstraint=eastwest;fontStyle=4" parent="cO8N48qVxJcHLwkPs-du-40" vertex="1">
          <mxGeometry y="60" width="160" height="26" as="geometry" />
        </mxCell>
        <mxCell id="cO8N48qVxJcHLwkPs-du-46" value="" style="endArrow=classic;endSize=10;endFill=1;shadow=0;strokeWidth=1;rounded=0;edgeStyle=elbowEdgeStyle;elbow=vertical;exitX=0.5;exitY=0;exitDx=0;exitDy=0;" parent="WIyWlLk6GJQsqaUBKTNV-1" source="cO8N48qVxJcHLwkPs-du-40" edge="1">
          <mxGeometry width="160" relative="1" as="geometry">
            <mxPoint x="409" y="510" as="sourcePoint" />
            <mxPoint x="589" y="460" as="targetPoint" />
            <Array as="points">
              <mxPoint x="540" y="500" />
            </Array>
          </mxGeometry>
        </mxCell>
        <mxCell id="cO8N48qVxJcHLwkPs-du-47" value="" style="endArrow=classic;endSize=10;endFill=1;shadow=0;strokeWidth=1;rounded=0;edgeStyle=elbowEdgeStyle;elbow=vertical;exitX=0.5;exitY=0;exitDx=0;exitDy=0;" parent="WIyWlLk6GJQsqaUBKTNV-1" source="cO8N48qVxJcHLwkPs-du-34" edge="1">
          <mxGeometry width="160" relative="1" as="geometry">
            <mxPoint x="504" y="540" as="sourcePoint" />
            <mxPoint x="589" y="460" as="targetPoint" />
            <Array as="points">
              <mxPoint x="640" y="500" />
            </Array>
          </mxGeometry>
        </mxCell>
        <mxCell id="cO8N48qVxJcHLwkPs-du-48" value="RTD" style="swimlane;fontStyle=0;align=center;verticalAlign=top;childLayout=stackLayout;horizontal=1;startSize=26;horizontalStack=0;resizeParent=1;resizeLast=0;collapsible=1;marginBottom=0;rounded=0;shadow=0;strokeWidth=1;" parent="WIyWlLk6GJQsqaUBKTNV-1" vertex="1">
          <mxGeometry x="15" y="568" width="160" height="138" as="geometry">
            <mxRectangle x="130" y="380" width="160" height="26" as="alternateBounds" />
          </mxGeometry>
        </mxCell>
        <mxCell id="cO8N48qVxJcHLwkPs-du-49" value="Student Number" style="text;align=left;verticalAlign=top;spacingLeft=4;spacingRight=4;overflow=hidden;rotatable=0;points=[[0,0.5],[1,0.5]];portConstraint=eastwest;" parent="cO8N48qVxJcHLwkPs-du-48" vertex="1">
          <mxGeometry y="26" width="160" height="26" as="geometry" />
        </mxCell>
        <mxCell id="cO8N48qVxJcHLwkPs-du-51" value="" style="line;html=1;strokeWidth=1;align=left;verticalAlign=middle;spacingTop=-1;spacingLeft=3;spacingRight=3;rotatable=0;labelPosition=right;points=[];portConstraint=eastwest;" parent="cO8N48qVxJcHLwkPs-du-48" vertex="1">
          <mxGeometry y="52" width="160" height="8" as="geometry" />
        </mxCell>
        <mxCell id="cO8N48qVxJcHLwkPs-du-52" value="Is Eligible To Enroll" style="text;align=left;verticalAlign=top;spacingLeft=4;spacingRight=4;overflow=hidden;rotatable=0;points=[[0,0.5],[1,0.5]];portConstraint=eastwest;fontStyle=4" parent="cO8N48qVxJcHLwkPs-du-48" vertex="1">
          <mxGeometry y="60" width="160" height="26" as="geometry" />
        </mxCell>
        <mxCell id="cO8N48qVxJcHLwkPs-du-54" value="Thermocouple" style="swimlane;fontStyle=0;align=center;verticalAlign=top;childLayout=stackLayout;horizontal=1;startSize=26;horizontalStack=0;resizeParent=1;resizeLast=0;collapsible=1;marginBottom=0;rounded=0;shadow=0;strokeWidth=1;" parent="WIyWlLk6GJQsqaUBKTNV-1" vertex="1">
          <mxGeometry x="-175" y="568" width="160" height="138" as="geometry">
            <mxRectangle x="130" y="380" width="160" height="26" as="alternateBounds" />
          </mxGeometry>
        </mxCell>
        <mxCell id="cO8N48qVxJcHLwkPs-du-55" value="Student Number" style="text;align=left;verticalAlign=top;spacingLeft=4;spacingRight=4;overflow=hidden;rotatable=0;points=[[0,0.5],[1,0.5]];portConstraint=eastwest;" parent="cO8N48qVxJcHLwkPs-du-54" vertex="1">
          <mxGeometry y="26" width="160" height="26" as="geometry" />
        </mxCell>
        <mxCell id="cO8N48qVxJcHLwkPs-du-57" value="" style="line;html=1;strokeWidth=1;align=left;verticalAlign=middle;spacingTop=-1;spacingLeft=3;spacingRight=3;rotatable=0;labelPosition=right;points=[];portConstraint=eastwest;" parent="cO8N48qVxJcHLwkPs-du-54" vertex="1">
          <mxGeometry y="52" width="160" height="8" as="geometry" />
        </mxCell>
        <mxCell id="cO8N48qVxJcHLwkPs-du-58" value="Is Eligible To Enroll" style="text;align=left;verticalAlign=top;spacingLeft=4;spacingRight=4;overflow=hidden;rotatable=0;points=[[0,0.5],[1,0.5]];portConstraint=eastwest;fontStyle=4" parent="cO8N48qVxJcHLwkPs-du-54" vertex="1">
          <mxGeometry y="60" width="160" height="26" as="geometry" />
        </mxCell>
        <mxCell id="cO8N48qVxJcHLwkPs-du-60" value="" style="endArrow=classic;endSize=10;endFill=1;shadow=0;strokeWidth=1;rounded=0;edgeStyle=elbowEdgeStyle;elbow=vertical;entryX=0.5;entryY=1;entryDx=0;entryDy=0;exitX=0.5;exitY=0;exitDx=0;exitDy=0;" parent="WIyWlLk6GJQsqaUBKTNV-1" source="cO8N48qVxJcHLwkPs-du-54" edge="1">
          <mxGeometry width="160" relative="1" as="geometry">
            <mxPoint x="-180" y="548" as="sourcePoint" />
            <mxPoint y="498" as="targetPoint" />
          </mxGeometry>
        </mxCell>
        <mxCell id="cO8N48qVxJcHLwkPs-du-61" value="" style="endArrow=classic;endSize=10;endFill=1;shadow=0;strokeWidth=1;rounded=0;edgeStyle=elbowEdgeStyle;elbow=vertical;exitX=0.5;exitY=0;exitDx=0;exitDy=0;" parent="WIyWlLk6GJQsqaUBKTNV-1" source="cO8N48qVxJcHLwkPs-du-48" edge="1">
          <mxGeometry width="160" relative="1" as="geometry">
            <mxPoint x="-85" y="578" as="sourcePoint" />
            <mxPoint y="498" as="targetPoint" />
          </mxGeometry>
        </mxCell>
        <mxCell id="cO8N48qVxJcHLwkPs-du-62" value="AveragingInput" style="swimlane;fontStyle=0;align=center;verticalAlign=top;childLayout=stackLayout;horizontal=1;startSize=26;horizontalStack=0;resizeParent=1;resizeLast=0;collapsible=1;marginBottom=0;rounded=0;shadow=0;strokeWidth=1;" parent="WIyWlLk6GJQsqaUBKTNV-1" vertex="1">
          <mxGeometry x="-590" y="360" width="160" height="138" as="geometry">
            <mxRectangle x="130" y="380" width="160" height="26" as="alternateBounds" />
          </mxGeometry>
        </mxCell>
        <mxCell id="cO8N48qVxJcHLwkPs-du-63" value="Student Number" style="text;align=left;verticalAlign=top;spacingLeft=4;spacingRight=4;overflow=hidden;rotatable=0;points=[[0,0.5],[1,0.5]];portConstraint=eastwest;" parent="cO8N48qVxJcHLwkPs-du-62" vertex="1">
          <mxGeometry y="26" width="160" height="26" as="geometry" />
        </mxCell>
        <mxCell id="cO8N48qVxJcHLwkPs-du-65" value="" style="line;html=1;strokeWidth=1;align=left;verticalAlign=middle;spacingTop=-1;spacingLeft=3;spacingRight=3;rotatable=0;labelPosition=right;points=[];portConstraint=eastwest;" parent="cO8N48qVxJcHLwkPs-du-62" vertex="1">
          <mxGeometry y="52" width="160" height="8" as="geometry" />
        </mxCell>
        <mxCell id="cO8N48qVxJcHLwkPs-du-66" value="Is Eligible To Enroll" style="text;align=left;verticalAlign=top;spacingLeft=4;spacingRight=4;overflow=hidden;rotatable=0;points=[[0,0.5],[1,0.5]];portConstraint=eastwest;fontStyle=4" parent="cO8N48qVxJcHLwkPs-du-62" vertex="1">
          <mxGeometry y="60" width="160" height="26" as="geometry" />
        </mxCell>
        <mxCell id="cO8N48qVxJcHLwkPs-du-112" style="edgeStyle=elbowEdgeStyle;rounded=0;orthogonalLoop=1;jettySize=auto;html=1;exitX=0.5;exitY=0;exitDx=0;exitDy=0;elbow=vertical;endSize=10;endArrow=classic;endFill=1;entryX=0.5;entryY=0.998;entryDx=0;entryDy=0;entryPerimeter=0;" parent="WIyWlLk6GJQsqaUBKTNV-1" source="cO8N48qVxJcHLwkPs-du-68" target="zkfFHV4jXpPFQw0GAbJ--5" edge="1">
          <mxGeometry relative="1" as="geometry">
            <mxPoint x="300" y="260" as="targetPoint" />
          </mxGeometry>
        </mxCell>
        <mxCell id="cO8N48qVxJcHLwkPs-du-68" value="VolumetricFlowSensor" style="swimlane;fontStyle=0;align=center;verticalAlign=top;childLayout=stackLayout;horizontal=1;startSize=26;horizontalStack=0;resizeParent=1;resizeLast=0;collapsible=1;marginBottom=0;rounded=0;shadow=0;strokeWidth=1;" parent="WIyWlLk6GJQsqaUBKTNV-1" vertex="1">
          <mxGeometry x="800" y="360" width="160" height="100" as="geometry">
            <mxRectangle x="550" y="140" width="160" height="26" as="alternateBounds" />
          </mxGeometry>
        </mxCell>
        <mxCell id="cO8N48qVxJcHLwkPs-du-69" value="Street" style="text;align=left;verticalAlign=top;spacingLeft=4;spacingRight=4;overflow=hidden;rotatable=0;points=[[0,0.5],[1,0.5]];portConstraint=eastwest;" parent="cO8N48qVxJcHLwkPs-du-68" vertex="1">
          <mxGeometry y="26" width="160" height="26" as="geometry" />
        </mxCell>
        <mxCell id="cO8N48qVxJcHLwkPs-du-70" value="" style="line;html=1;strokeWidth=1;align=left;verticalAlign=middle;spacingTop=-1;spacingLeft=3;spacingRight=3;rotatable=0;labelPosition=right;points=[];portConstraint=eastwest;" parent="cO8N48qVxJcHLwkPs-du-68" vertex="1">
          <mxGeometry y="52" width="160" height="8" as="geometry" />
        </mxCell>
        <mxCell id="cO8N48qVxJcHLwkPs-du-71" value="Validate" style="text;align=left;verticalAlign=top;spacingLeft=4;spacingRight=4;overflow=hidden;rotatable=0;points=[[0,0.5],[1,0.5]];portConstraint=eastwest;" parent="cO8N48qVxJcHLwkPs-du-68" vertex="1">
          <mxGeometry y="60" width="160" height="26" as="geometry" />
        </mxCell>
        <mxCell id="cO8N48qVxJcHLwkPs-du-78" value="VenturiFlowMeter" style="swimlane;fontStyle=0;align=center;verticalAlign=top;childLayout=stackLayout;horizontal=1;startSize=26;horizontalStack=0;resizeParent=1;resizeLast=0;collapsible=1;marginBottom=0;rounded=0;shadow=0;strokeWidth=1;" parent="WIyWlLk6GJQsqaUBKTNV-1" vertex="1">
          <mxGeometry x="800" y="530" width="160" height="138" as="geometry">
            <mxRectangle x="130" y="380" width="160" height="26" as="alternateBounds" />
          </mxGeometry>
        </mxCell>
        <mxCell id="cO8N48qVxJcHLwkPs-du-79" value="Student Number" style="text;align=left;verticalAlign=top;spacingLeft=4;spacingRight=4;overflow=hidden;rotatable=0;points=[[0,0.5],[1,0.5]];portConstraint=eastwest;" parent="cO8N48qVxJcHLwkPs-du-78" vertex="1">
          <mxGeometry y="26" width="160" height="26" as="geometry" />
        </mxCell>
        <mxCell id="cO8N48qVxJcHLwkPs-du-81" value="" style="line;html=1;strokeWidth=1;align=left;verticalAlign=middle;spacingTop=-1;spacingLeft=3;spacingRight=3;rotatable=0;labelPosition=right;points=[];portConstraint=eastwest;" parent="cO8N48qVxJcHLwkPs-du-78" vertex="1">
          <mxGeometry y="52" width="160" height="8" as="geometry" />
        </mxCell>
        <mxCell id="cO8N48qVxJcHLwkPs-du-82" value="Is Eligible To Enroll" style="text;align=left;verticalAlign=top;spacingLeft=4;spacingRight=4;overflow=hidden;rotatable=0;points=[[0,0.5],[1,0.5]];portConstraint=eastwest;fontStyle=4" parent="cO8N48qVxJcHLwkPs-du-78" vertex="1">
          <mxGeometry y="60" width="160" height="26" as="geometry" />
        </mxCell>
        <mxCell id="cO8N48qVxJcHLwkPs-du-84" value="" style="endArrow=classic;endSize=10;endFill=1;shadow=0;strokeWidth=1;rounded=0;edgeStyle=elbowEdgeStyle;elbow=vertical;entryX=0.5;entryY=1;entryDx=0;entryDy=0;exitX=0.5;exitY=0;exitDx=0;exitDy=0;" parent="WIyWlLk6GJQsqaUBKTNV-1" source="cO8N48qVxJcHLwkPs-du-78" target="cO8N48qVxJcHLwkPs-du-68" edge="1">
          <mxGeometry width="160" relative="1" as="geometry">
            <mxPoint x="850" y="510" as="sourcePoint" />
            <mxPoint x="645" y="440" as="targetPoint" />
          </mxGeometry>
        </mxCell>
        <mxCell id="cO8N48qVxJcHLwkPs-du-113" style="edgeStyle=elbowEdgeStyle;rounded=0;orthogonalLoop=1;jettySize=auto;html=1;exitX=0.5;exitY=0;exitDx=0;exitDy=0;elbow=vertical;endSize=10;endArrow=classic;endFill=1;entryX=0.5;entryY=1.005;entryDx=0;entryDy=0;entryPerimeter=0;" parent="WIyWlLk6GJQsqaUBKTNV-1" source="cO8N48qVxJcHLwkPs-du-93" target="zkfFHV4jXpPFQw0GAbJ--5" edge="1">
          <mxGeometry relative="1" as="geometry">
            <mxPoint x="300" y="260" as="targetPoint" />
          </mxGeometry>
        </mxCell>
        <mxCell id="cO8N48qVxJcHLwkPs-du-93" value="MassFlowSensor" style="swimlane;fontStyle=0;align=center;verticalAlign=top;childLayout=stackLayout;horizontal=1;startSize=26;horizontalStack=0;resizeParent=1;resizeLast=0;collapsible=1;marginBottom=0;rounded=0;shadow=0;strokeWidth=1;" parent="WIyWlLk6GJQsqaUBKTNV-1" vertex="1">
          <mxGeometry x="1010" y="360" width="160" height="100" as="geometry">
            <mxRectangle x="550" y="140" width="160" height="26" as="alternateBounds" />
          </mxGeometry>
        </mxCell>
        <mxCell id="cO8N48qVxJcHLwkPs-du-94" value="Street" style="text;align=left;verticalAlign=top;spacingLeft=4;spacingRight=4;overflow=hidden;rotatable=0;points=[[0,0.5],[1,0.5]];portConstraint=eastwest;" parent="cO8N48qVxJcHLwkPs-du-93" vertex="1">
          <mxGeometry y="26" width="160" height="26" as="geometry" />
        </mxCell>
        <mxCell id="cO8N48qVxJcHLwkPs-du-95" value="" style="line;html=1;strokeWidth=1;align=left;verticalAlign=middle;spacingTop=-1;spacingLeft=3;spacingRight=3;rotatable=0;labelPosition=right;points=[];portConstraint=eastwest;" parent="cO8N48qVxJcHLwkPs-du-93" vertex="1">
          <mxGeometry y="52" width="160" height="8" as="geometry" />
        </mxCell>
        <mxCell id="cO8N48qVxJcHLwkPs-du-96" value="Validate" style="text;align=left;verticalAlign=top;spacingLeft=4;spacingRight=4;overflow=hidden;rotatable=0;points=[[0,0.5],[1,0.5]];portConstraint=eastwest;" parent="cO8N48qVxJcHLwkPs-du-93" vertex="1">
          <mxGeometry y="60" width="160" height="26" as="geometry" />
        </mxCell>
        <mxCell id="cO8N48qVxJcHLwkPs-du-97" value="CoriolisFlowMeter" style="swimlane;fontStyle=0;align=center;verticalAlign=top;childLayout=stackLayout;horizontal=1;startSize=26;horizontalStack=0;resizeParent=1;resizeLast=0;collapsible=1;marginBottom=0;rounded=0;shadow=0;strokeWidth=1;" parent="WIyWlLk6GJQsqaUBKTNV-1" vertex="1">
          <mxGeometry x="1010" y="530" width="160" height="138" as="geometry">
            <mxRectangle x="130" y="380" width="160" height="26" as="alternateBounds" />
          </mxGeometry>
        </mxCell>
        <mxCell id="cO8N48qVxJcHLwkPs-du-98" value="Student Number" style="text;align=left;verticalAlign=top;spacingLeft=4;spacingRight=4;overflow=hidden;rotatable=0;points=[[0,0.5],[1,0.5]];portConstraint=eastwest;" parent="cO8N48qVxJcHLwkPs-du-97" vertex="1">
          <mxGeometry y="26" width="160" height="26" as="geometry" />
        </mxCell>
        <mxCell id="cO8N48qVxJcHLwkPs-du-100" value="" style="line;html=1;strokeWidth=1;align=left;verticalAlign=middle;spacingTop=-1;spacingLeft=3;spacingRight=3;rotatable=0;labelPosition=right;points=[];portConstraint=eastwest;" parent="cO8N48qVxJcHLwkPs-du-97" vertex="1">
          <mxGeometry y="52" width="160" height="8" as="geometry" />
        </mxCell>
        <mxCell id="cO8N48qVxJcHLwkPs-du-101" value="Is Eligible To Enroll" style="text;align=left;verticalAlign=top;spacingLeft=4;spacingRight=4;overflow=hidden;rotatable=0;points=[[0,0.5],[1,0.5]];portConstraint=eastwest;fontStyle=4" parent="cO8N48qVxJcHLwkPs-du-97" vertex="1">
          <mxGeometry y="60" width="160" height="26" as="geometry" />
        </mxCell>
        <mxCell id="cO8N48qVxJcHLwkPs-du-103" value="" style="endArrow=classic;endSize=10;endFill=1;shadow=0;strokeWidth=1;rounded=0;edgeStyle=elbowEdgeStyle;elbow=vertical;entryX=0.5;entryY=1;entryDx=0;entryDy=0;exitX=0.5;exitY=0;exitDx=0;exitDy=0;" parent="WIyWlLk6GJQsqaUBKTNV-1" source="cO8N48qVxJcHLwkPs-du-97" target="cO8N48qVxJcHLwkPs-du-93" edge="1">
          <mxGeometry width="160" relative="1" as="geometry">
            <mxPoint x="1005" y="510" as="sourcePoint" />
            <mxPoint x="855" y="440" as="targetPoint" />
          </mxGeometry>
        </mxCell>
        <mxCell id="cO8N48qVxJcHLwkPs-du-114" style="edgeStyle=elbowEdgeStyle;rounded=0;orthogonalLoop=1;jettySize=auto;html=1;exitX=0.5;exitY=0;exitDx=0;exitDy=0;entryX=0.5;entryY=1.005;entryDx=0;entryDy=0;entryPerimeter=0;endSize=10;endArrow=classic;endFill=1;elbow=vertical;" parent="WIyWlLk6GJQsqaUBKTNV-1" source="cO8N48qVxJcHLwkPs-du-62" target="zkfFHV4jXpPFQw0GAbJ--5" edge="1">
          <mxGeometry relative="1" as="geometry" />
        </mxCell>
        <mxCell id="cO8N48qVxJcHLwkPs-du-121" style="edgeStyle=elbowEdgeStyle;rounded=0;orthogonalLoop=1;jettySize=auto;html=1;exitX=0.5;exitY=0;exitDx=0;exitDy=0;endSize=10;endArrow=classic;endFill=1;elbow=vertical;entryX=0.5;entryY=1.007;entryDx=0;entryDy=0;entryPerimeter=0;" parent="WIyWlLk6GJQsqaUBKTNV-1" source="cO8N48qVxJcHLwkPs-du-115" target="zkfFHV4jXpPFQw0GAbJ--5" edge="1">
          <mxGeometry relative="1" as="geometry">
            <mxPoint x="300" y="260" as="targetPoint" />
          </mxGeometry>
        </mxCell>
        <mxCell id="cO8N48qVxJcHLwkPs-du-115" value="FluidLookup" style="swimlane;fontStyle=0;align=center;verticalAlign=top;childLayout=stackLayout;horizontal=1;startSize=26;horizontalStack=0;resizeParent=1;resizeLast=0;collapsible=1;marginBottom=0;rounded=0;shadow=0;strokeWidth=1;" parent="WIyWlLk6GJQsqaUBKTNV-1" vertex="1">
          <mxGeometry x="-390" y="360" width="160" height="138" as="geometry">
            <mxRectangle x="130" y="380" width="160" height="26" as="alternateBounds" />
          </mxGeometry>
        </mxCell>
        <mxCell id="cO8N48qVxJcHLwkPs-du-116" value="Student Number" style="text;align=left;verticalAlign=top;spacingLeft=4;spacingRight=4;overflow=hidden;rotatable=0;points=[[0,0.5],[1,0.5]];portConstraint=eastwest;" parent="cO8N48qVxJcHLwkPs-du-115" vertex="1">
          <mxGeometry y="26" width="160" height="26" as="geometry" />
        </mxCell>
        <mxCell id="cO8N48qVxJcHLwkPs-du-117" value="Average Mark" style="text;align=left;verticalAlign=top;spacingLeft=4;spacingRight=4;overflow=hidden;rotatable=0;points=[[0,0.5],[1,0.5]];portConstraint=eastwest;rounded=0;shadow=0;html=0;" parent="cO8N48qVxJcHLwkPs-du-115" vertex="1">
          <mxGeometry y="52" width="160" height="26" as="geometry" />
        </mxCell>
        <mxCell id="cO8N48qVxJcHLwkPs-du-118" value="" style="line;html=1;strokeWidth=1;align=left;verticalAlign=middle;spacingTop=-1;spacingLeft=3;spacingRight=3;rotatable=0;labelPosition=right;points=[];portConstraint=eastwest;" parent="cO8N48qVxJcHLwkPs-du-115" vertex="1">
          <mxGeometry y="78" width="160" height="8" as="geometry" />
        </mxCell>
        <mxCell id="cO8N48qVxJcHLwkPs-du-119" value="Is Eligible To Enroll" style="text;align=left;verticalAlign=top;spacingLeft=4;spacingRight=4;overflow=hidden;rotatable=0;points=[[0,0.5],[1,0.5]];portConstraint=eastwest;fontStyle=4" parent="cO8N48qVxJcHLwkPs-du-115" vertex="1">
          <mxGeometry y="86" width="160" height="26" as="geometry" />
        </mxCell>
        <mxCell id="cO8N48qVxJcHLwkPs-du-134" style="edgeStyle=elbowEdgeStyle;rounded=0;orthogonalLoop=1;jettySize=auto;html=1;entryX=0.5;entryY=1;entryDx=0;entryDy=0;endSize=10;elbow=vertical;" parent="WIyWlLk6GJQsqaUBKTNV-1" source="cO8N48qVxJcHLwkPs-du-128" target="cO8N48qVxJcHLwkPs-du-115" edge="1">
          <mxGeometry relative="1" as="geometry" />
        </mxCell>
        <mxCell id="cO8N48qVxJcHLwkPs-du-128" value="DensityLookup" style="swimlane;fontStyle=0;align=center;verticalAlign=top;childLayout=stackLayout;horizontal=1;startSize=26;horizontalStack=0;resizeParent=1;resizeLast=0;collapsible=1;marginBottom=0;rounded=0;shadow=0;strokeWidth=1;" parent="WIyWlLk6GJQsqaUBKTNV-1" vertex="1">
          <mxGeometry x="-390" y="560" width="160" height="138" as="geometry">
            <mxRectangle x="130" y="380" width="160" height="26" as="alternateBounds" />
          </mxGeometry>
        </mxCell>
        <mxCell id="cO8N48qVxJcHLwkPs-du-129" value="Student Number" style="text;align=left;verticalAlign=top;spacingLeft=4;spacingRight=4;overflow=hidden;rotatable=0;points=[[0,0.5],[1,0.5]];portConstraint=eastwest;" parent="cO8N48qVxJcHLwkPs-du-128" vertex="1">
          <mxGeometry y="26" width="160" height="26" as="geometry" />
        </mxCell>
        <mxCell id="cO8N48qVxJcHLwkPs-du-131" value="" style="line;html=1;strokeWidth=1;align=left;verticalAlign=middle;spacingTop=-1;spacingLeft=3;spacingRight=3;rotatable=0;labelPosition=right;points=[];portConstraint=eastwest;" parent="cO8N48qVxJcHLwkPs-du-128" vertex="1">
          <mxGeometry y="52" width="160" height="8" as="geometry" />
        </mxCell>
        <mxCell id="cO8N48qVxJcHLwkPs-du-132" value="Is Eligible To Enroll" style="text;align=left;verticalAlign=top;spacingLeft=4;spacingRight=4;overflow=hidden;rotatable=0;points=[[0,0.5],[1,0.5]];portConstraint=eastwest;fontStyle=4" parent="cO8N48qVxJcHLwkPs-du-128" vertex="1">
          <mxGeometry y="60" width="160" height="26" as="geometry" />
        </mxCell>
        <mxCell id="cO8N48qVxJcHLwkPs-du-141" value="CombinedInput" style="swimlane;fontStyle=0;align=center;verticalAlign=top;childLayout=stackLayout;horizontal=1;startSize=26;horizontalStack=0;resizeParent=1;resizeLast=0;collapsible=1;marginBottom=0;rounded=0;shadow=0;strokeWidth=1;" parent="WIyWlLk6GJQsqaUBKTNV-1" vertex="1">
          <mxGeometry x="-790" y="360" width="160" height="138" as="geometry">
            <mxRectangle x="230" y="140" width="160" height="26" as="alternateBounds" />
          </mxGeometry>
        </mxCell>
        <mxCell id="cO8N48qVxJcHLwkPs-du-142" value="Name" style="text;align=left;verticalAlign=top;spacingLeft=4;spacingRight=4;overflow=hidden;rotatable=0;points=[[0,0.5],[1,0.5]];portConstraint=eastwest;" parent="cO8N48qVxJcHLwkPs-du-141" vertex="1">
          <mxGeometry y="26" width="160" height="26" as="geometry" />
        </mxCell>
        <mxCell id="cO8N48qVxJcHLwkPs-du-143" value="Phone Number" style="text;align=left;verticalAlign=top;spacingLeft=4;spacingRight=4;overflow=hidden;rotatable=0;points=[[0,0.5],[1,0.5]];portConstraint=eastwest;rounded=0;shadow=0;html=0;" parent="cO8N48qVxJcHLwkPs-du-141" vertex="1">
          <mxGeometry y="52" width="160" height="26" as="geometry" />
        </mxCell>
        <mxCell id="cO8N48qVxJcHLwkPs-du-144" value="Email Address" style="text;align=left;verticalAlign=top;spacingLeft=4;spacingRight=4;overflow=hidden;rotatable=0;points=[[0,0.5],[1,0.5]];portConstraint=eastwest;rounded=0;shadow=0;html=0;" parent="cO8N48qVxJcHLwkPs-du-141" vertex="1">
          <mxGeometry y="78" width="160" height="26" as="geometry" />
        </mxCell>
        <mxCell id="cO8N48qVxJcHLwkPs-du-145" value="" style="line;html=1;strokeWidth=1;align=left;verticalAlign=middle;spacingTop=-1;spacingLeft=3;spacingRight=3;rotatable=0;labelPosition=right;points=[];portConstraint=eastwest;" parent="cO8N48qVxJcHLwkPs-du-141" vertex="1">
          <mxGeometry y="104" width="160" height="8" as="geometry" />
        </mxCell>
        <mxCell id="cO8N48qVxJcHLwkPs-du-146" value="Purchase Parking Pass" style="text;align=left;verticalAlign=top;spacingLeft=4;spacingRight=4;overflow=hidden;rotatable=0;points=[[0,0.5],[1,0.5]];portConstraint=eastwest;" parent="cO8N48qVxJcHLwkPs-du-141" vertex="1">
          <mxGeometry y="112" width="160" height="26" as="geometry" />
        </mxCell>
        <mxCell id="cO8N48qVxJcHLwkPs-du-147" style="edgeStyle=elbowEdgeStyle;rounded=0;orthogonalLoop=1;jettySize=auto;html=1;entryX=0.5;entryY=1.002;entryDx=0;entryDy=0;entryPerimeter=0;elbow=vertical;endSize=10;endArrow=classic;endFill=1;" parent="WIyWlLk6GJQsqaUBKTNV-1" source="cO8N48qVxJcHLwkPs-du-141" target="zkfFHV4jXpPFQw0GAbJ--5" edge="1">
          <mxGeometry relative="1" as="geometry" />
        </mxCell>
        <mxCell id="cO8N48qVxJcHLwkPs-du-167" style="edgeStyle=elbowEdgeStyle;rounded=0;orthogonalLoop=1;jettySize=auto;html=1;exitX=0.5;exitY=0;exitDx=0;exitDy=0;elbow=vertical;entryX=0.499;entryY=0.979;entryDx=0;entryDy=0;entryPerimeter=0;endSize=10;" parent="WIyWlLk6GJQsqaUBKTNV-1" source="cO8N48qVxJcHLwkPs-du-163" target="zkfFHV4jXpPFQw0GAbJ--5" edge="1">
          <mxGeometry relative="1" as="geometry">
            <mxPoint x="300.00000000000045" y="270" as="targetPoint" />
          </mxGeometry>
        </mxCell>
        <mxCell id="cO8N48qVxJcHLwkPs-du-163" value="ConstantInput" style="swimlane;fontStyle=0;align=center;verticalAlign=top;childLayout=stackLayout;horizontal=1;startSize=26;horizontalStack=0;resizeParent=1;resizeLast=0;collapsible=1;marginBottom=0;rounded=0;shadow=0;strokeWidth=1;" parent="WIyWlLk6GJQsqaUBKTNV-1" vertex="1">
          <mxGeometry x="-1000" y="360" width="160" height="138" as="geometry">
            <mxRectangle x="130" y="380" width="160" height="26" as="alternateBounds" />
          </mxGeometry>
        </mxCell>
        <mxCell id="cO8N48qVxJcHLwkPs-du-164" value="Student Number" style="text;align=left;verticalAlign=top;spacingLeft=4;spacingRight=4;overflow=hidden;rotatable=0;points=[[0,0.5],[1,0.5]];portConstraint=eastwest;" parent="cO8N48qVxJcHLwkPs-du-163" vertex="1">
          <mxGeometry y="26" width="160" height="26" as="geometry" />
        </mxCell>
        <mxCell id="cO8N48qVxJcHLwkPs-du-165" value="" style="line;html=1;strokeWidth=1;align=left;verticalAlign=middle;spacingTop=-1;spacingLeft=3;spacingRight=3;rotatable=0;labelPosition=right;points=[];portConstraint=eastwest;" parent="cO8N48qVxJcHLwkPs-du-163" vertex="1">
          <mxGeometry y="52" width="160" height="8" as="geometry" />
        </mxCell>
        <mxCell id="cO8N48qVxJcHLwkPs-du-166" value="Is Eligible To Enroll" style="text;align=left;verticalAlign=top;spacingLeft=4;spacingRight=4;overflow=hidden;rotatable=0;points=[[0,0.5],[1,0.5]];portConstraint=eastwest;fontStyle=4" parent="cO8N48qVxJcHLwkPs-du-163" vertex="1">
          <mxGeometry y="60" width="160" height="26" as="geometry" />
        </mxCell>
        <mxCell id="cO8N48qVxJcHLwkPs-du-177" style="edgeStyle=elbowEdgeStyle;rounded=0;orthogonalLoop=1;jettySize=auto;html=1;exitX=0.5;exitY=0;exitDx=0;exitDy=0;elbow=vertical;endSize=10;entryX=0.498;entryY=0.996;entryDx=0;entryDy=0;entryPerimeter=0;" parent="WIyWlLk6GJQsqaUBKTNV-1" source="cO8N48qVxJcHLwkPs-du-168" target="zkfFHV4jXpPFQw0GAbJ--5" edge="1">
          <mxGeometry relative="1" as="geometry">
            <mxPoint x="300" y="260" as="targetPoint" />
          </mxGeometry>
        </mxCell>
        <mxCell id="cO8N48qVxJcHLwkPs-du-168" value="FlowSpeedSensor" style="swimlane;fontStyle=0;align=center;verticalAlign=top;childLayout=stackLayout;horizontal=1;startSize=26;horizontalStack=0;resizeParent=1;resizeLast=0;collapsible=1;marginBottom=0;rounded=0;shadow=0;strokeWidth=1;" parent="WIyWlLk6GJQsqaUBKTNV-1" vertex="1">
          <mxGeometry x="1220" y="360" width="160" height="100" as="geometry">
            <mxRectangle x="550" y="140" width="160" height="26" as="alternateBounds" />
          </mxGeometry>
        </mxCell>
        <mxCell id="cO8N48qVxJcHLwkPs-du-169" value="Street" style="text;align=left;verticalAlign=top;spacingLeft=4;spacingRight=4;overflow=hidden;rotatable=0;points=[[0,0.5],[1,0.5]];portConstraint=eastwest;" parent="cO8N48qVxJcHLwkPs-du-168" vertex="1">
          <mxGeometry y="26" width="160" height="26" as="geometry" />
        </mxCell>
        <mxCell id="cO8N48qVxJcHLwkPs-du-170" value="" style="line;html=1;strokeWidth=1;align=left;verticalAlign=middle;spacingTop=-1;spacingLeft=3;spacingRight=3;rotatable=0;labelPosition=right;points=[];portConstraint=eastwest;" parent="cO8N48qVxJcHLwkPs-du-168" vertex="1">
          <mxGeometry y="52" width="160" height="8" as="geometry" />
        </mxCell>
        <mxCell id="cO8N48qVxJcHLwkPs-du-171" value="Validate" style="text;align=left;verticalAlign=top;spacingLeft=4;spacingRight=4;overflow=hidden;rotatable=0;points=[[0,0.5],[1,0.5]];portConstraint=eastwest;" parent="cO8N48qVxJcHLwkPs-du-168" vertex="1">
          <mxGeometry y="60" width="160" height="26" as="geometry" />
        </mxCell>
        <mxCell id="cO8N48qVxJcHLwkPs-du-172" value="TurbineFlowMeter" style="swimlane;fontStyle=0;align=center;verticalAlign=top;childLayout=stackLayout;horizontal=1;startSize=26;horizontalStack=0;resizeParent=1;resizeLast=0;collapsible=1;marginBottom=0;rounded=0;shadow=0;strokeWidth=1;" parent="WIyWlLk6GJQsqaUBKTNV-1" vertex="1">
          <mxGeometry x="1220" y="530" width="160" height="138" as="geometry">
            <mxRectangle x="130" y="380" width="160" height="26" as="alternateBounds" />
          </mxGeometry>
        </mxCell>
        <mxCell id="cO8N48qVxJcHLwkPs-du-173" value="Student Number" style="text;align=left;verticalAlign=top;spacingLeft=4;spacingRight=4;overflow=hidden;rotatable=0;points=[[0,0.5],[1,0.5]];portConstraint=eastwest;" parent="cO8N48qVxJcHLwkPs-du-172" vertex="1">
          <mxGeometry y="26" width="160" height="26" as="geometry" />
        </mxCell>
        <mxCell id="cO8N48qVxJcHLwkPs-du-174" value="" style="line;html=1;strokeWidth=1;align=left;verticalAlign=middle;spacingTop=-1;spacingLeft=3;spacingRight=3;rotatable=0;labelPosition=right;points=[];portConstraint=eastwest;" parent="cO8N48qVxJcHLwkPs-du-172" vertex="1">
          <mxGeometry y="52" width="160" height="8" as="geometry" />
        </mxCell>
        <mxCell id="cO8N48qVxJcHLwkPs-du-175" value="Is Eligible To Enroll" style="text;align=left;verticalAlign=top;spacingLeft=4;spacingRight=4;overflow=hidden;rotatable=0;points=[[0,0.5],[1,0.5]];portConstraint=eastwest;fontStyle=4" parent="cO8N48qVxJcHLwkPs-du-172" vertex="1">
          <mxGeometry y="60" width="160" height="26" as="geometry" />
        </mxCell>
        <mxCell id="cO8N48qVxJcHLwkPs-du-176" value="" style="endArrow=classic;endSize=10;endFill=1;shadow=0;strokeWidth=1;rounded=0;edgeStyle=elbowEdgeStyle;elbow=vertical;entryX=0.5;entryY=1;entryDx=0;entryDy=0;exitX=0.5;exitY=0;exitDx=0;exitDy=0;" parent="WIyWlLk6GJQsqaUBKTNV-1" source="cO8N48qVxJcHLwkPs-du-172" target="cO8N48qVxJcHLwkPs-du-168" edge="1">
          <mxGeometry width="160" relative="1" as="geometry">
            <mxPoint x="1215" y="510" as="sourcePoint" />
            <mxPoint x="1065" y="440" as="targetPoint" />
          </mxGeometry>
        </mxCell>
        <mxCell id="XNMfURiHyV9oHoCnZr0N-0" value="mul" style="rounded=0;whiteSpace=wrap;html=1;" parent="WIyWlLk6GJQsqaUBKTNV-1" vertex="1">
          <mxGeometry x="-105" y="920" width="120" height="60" as="geometry" />
        </mxCell>
        <mxCell id="XNMfURiHyV9oHoCnZr0N-6" style="edgeStyle=orthogonalEdgeStyle;rounded=0;orthogonalLoop=1;jettySize=auto;html=1;exitX=0.5;exitY=0;exitDx=0;exitDy=0;entryX=0.5;entryY=1;entryDx=0;entryDy=0;" parent="WIyWlLk6GJQsqaUBKTNV-1" source="XNMfURiHyV9oHoCnZr0N-1" target="XNMfURiHyV9oHoCnZr0N-0" edge="1">
          <mxGeometry relative="1" as="geometry" />
        </mxCell>
        <mxCell id="XNMfURiHyV9oHoCnZr0N-1" value="mul" style="rounded=0;whiteSpace=wrap;html=1;" parent="WIyWlLk6GJQsqaUBKTNV-1" vertex="1">
          <mxGeometry x="-330" y="1060" width="120" height="60" as="geometry" />
        </mxCell>
        <mxCell id="XNMfURiHyV9oHoCnZr0N-7" style="edgeStyle=orthogonalEdgeStyle;rounded=0;orthogonalLoop=1;jettySize=auto;html=1;exitX=0.5;exitY=0;exitDx=0;exitDy=0;entryX=0.5;entryY=1;entryDx=0;entryDy=0;" parent="WIyWlLk6GJQsqaUBKTNV-1" source="XNMfURiHyV9oHoCnZr0N-2" target="XNMfURiHyV9oHoCnZr0N-0" edge="1">
          <mxGeometry relative="1" as="geometry" />
        </mxCell>
        <mxCell id="XNMfURiHyV9oHoCnZr0N-2" value="pow" style="rounded=0;whiteSpace=wrap;html=1;" parent="WIyWlLk6GJQsqaUBKTNV-1" vertex="1">
          <mxGeometry x="80" y="1080" width="120" height="60" as="geometry" />
        </mxCell>
        <mxCell id="XNMfURiHyV9oHoCnZr0N-5" style="edgeStyle=orthogonalEdgeStyle;rounded=0;orthogonalLoop=1;jettySize=auto;html=1;exitX=0.5;exitY=0;exitDx=0;exitDy=0;entryX=0.5;entryY=1;entryDx=0;entryDy=0;" parent="WIyWlLk6GJQsqaUBKTNV-1" source="XNMfURiHyV9oHoCnZr0N-3" target="XNMfURiHyV9oHoCnZr0N-1" edge="1">
          <mxGeometry relative="1" as="geometry" />
        </mxCell>
        <mxCell id="XNMfURiHyV9oHoCnZr0N-3" value="mul" style="rounded=0;whiteSpace=wrap;html=1;" parent="WIyWlLk6GJQsqaUBKTNV-1" vertex="1">
          <mxGeometry x="-500" y="1250" width="120" height="60" as="geometry" />
        </mxCell>
        <mxCell id="XNMfURiHyV9oHoCnZr0N-8" style="edgeStyle=orthogonalEdgeStyle;rounded=0;orthogonalLoop=1;jettySize=auto;html=1;exitX=0.5;exitY=0;exitDx=0;exitDy=0;entryX=0.5;entryY=1;entryDx=0;entryDy=0;" parent="WIyWlLk6GJQsqaUBKTNV-1" source="XNMfURiHyV9oHoCnZr0N-4" target="XNMfURiHyV9oHoCnZr0N-1" edge="1">
          <mxGeometry relative="1" as="geometry" />
        </mxCell>
        <mxCell id="XNMfURiHyV9oHoCnZr0N-4" value="3.14159" style="rounded=0;whiteSpace=wrap;html=1;" parent="WIyWlLk6GJQsqaUBKTNV-1" vertex="1">
          <mxGeometry x="-310" y="1250" width="120" height="60" as="geometry" />
        </mxCell>
        <mxCell id="XNMfURiHyV9oHoCnZr0N-13" style="edgeStyle=orthogonalEdgeStyle;rounded=0;orthogonalLoop=1;jettySize=auto;html=1;exitX=0.5;exitY=0;exitDx=0;exitDy=0;entryX=0.5;entryY=1;entryDx=0;entryDy=0;" parent="WIyWlLk6GJQsqaUBKTNV-1" source="XNMfURiHyV9oHoCnZr0N-14" edge="1">
          <mxGeometry relative="1" as="geometry">
            <mxPoint x="-445" y="1310" as="targetPoint" />
          </mxGeometry>
        </mxCell>
        <mxCell id="XNMfURiHyV9oHoCnZr0N-14" value="density_lookup" style="rounded=0;whiteSpace=wrap;html=1;" parent="WIyWlLk6GJQsqaUBKTNV-1" vertex="1">
          <mxGeometry x="-600" y="1400" width="120" height="60" as="geometry" />
        </mxCell>
        <mxCell id="XNMfURiHyV9oHoCnZr0N-15" style="edgeStyle=orthogonalEdgeStyle;rounded=0;orthogonalLoop=1;jettySize=auto;html=1;exitX=0.5;exitY=0;exitDx=0;exitDy=0;" parent="WIyWlLk6GJQsqaUBKTNV-1" source="XNMfURiHyV9oHoCnZr0N-16" edge="1">
          <mxGeometry relative="1" as="geometry">
            <mxPoint x="-445" y="1310" as="targetPoint" />
          </mxGeometry>
        </mxCell>
        <mxCell id="XNMfURiHyV9oHoCnZr0N-16" value="flow_speed" style="rounded=0;whiteSpace=wrap;html=1;" parent="WIyWlLk6GJQsqaUBKTNV-1" vertex="1">
          <mxGeometry x="-410" y="1400" width="120" height="60" as="geometry" />
        </mxCell>
        <mxCell id="XNMfURiHyV9oHoCnZr0N-17" style="edgeStyle=orthogonalEdgeStyle;rounded=0;orthogonalLoop=1;jettySize=auto;html=1;exitX=0.5;exitY=0;exitDx=0;exitDy=0;entryX=0.5;entryY=1;entryDx=0;entryDy=0;" parent="WIyWlLk6GJQsqaUBKTNV-1" source="XNMfURiHyV9oHoCnZr0N-18" edge="1">
          <mxGeometry relative="1" as="geometry">
            <mxPoint x="140" y="1140" as="targetPoint" />
          </mxGeometry>
        </mxCell>
        <mxCell id="XNMfURiHyV9oHoCnZr0N-18" value="div" style="rounded=0;whiteSpace=wrap;html=1;" parent="WIyWlLk6GJQsqaUBKTNV-1" vertex="1">
          <mxGeometry x="-15" y="1230" width="120" height="60" as="geometry" />
        </mxCell>
        <mxCell id="XNMfURiHyV9oHoCnZr0N-19" style="edgeStyle=orthogonalEdgeStyle;rounded=0;orthogonalLoop=1;jettySize=auto;html=1;exitX=0.5;exitY=0;exitDx=0;exitDy=0;" parent="WIyWlLk6GJQsqaUBKTNV-1" source="XNMfURiHyV9oHoCnZr0N-20" edge="1">
          <mxGeometry relative="1" as="geometry">
            <mxPoint x="140" y="1140" as="targetPoint" />
          </mxGeometry>
        </mxCell>
        <mxCell id="XNMfURiHyV9oHoCnZr0N-20" value="2" style="rounded=0;whiteSpace=wrap;html=1;" parent="WIyWlLk6GJQsqaUBKTNV-1" vertex="1">
          <mxGeometry x="175" y="1230" width="120" height="60" as="geometry" />
        </mxCell>
        <mxCell id="XNMfURiHyV9oHoCnZr0N-21" style="edgeStyle=orthogonalEdgeStyle;rounded=0;orthogonalLoop=1;jettySize=auto;html=1;exitX=0.5;exitY=0;exitDx=0;exitDy=0;entryX=0.5;entryY=1;entryDx=0;entryDy=0;" parent="WIyWlLk6GJQsqaUBKTNV-1" source="XNMfURiHyV9oHoCnZr0N-22" edge="1">
          <mxGeometry relative="1" as="geometry">
            <mxPoint x="45" y="1290" as="targetPoint" />
          </mxGeometry>
        </mxCell>
        <mxCell id="XNMfURiHyV9oHoCnZr0N-22" value="div" style="rounded=0;whiteSpace=wrap;html=1;" parent="WIyWlLk6GJQsqaUBKTNV-1" vertex="1">
          <mxGeometry x="-110" y="1380" width="120" height="60" as="geometry" />
        </mxCell>
        <mxCell id="XNMfURiHyV9oHoCnZr0N-23" style="edgeStyle=orthogonalEdgeStyle;rounded=0;orthogonalLoop=1;jettySize=auto;html=1;exitX=0.5;exitY=0;exitDx=0;exitDy=0;" parent="WIyWlLk6GJQsqaUBKTNV-1" source="XNMfURiHyV9oHoCnZr0N-24" edge="1">
          <mxGeometry relative="1" as="geometry">
            <mxPoint x="45" y="1290" as="targetPoint" />
          </mxGeometry>
        </mxCell>
        <mxCell id="XNMfURiHyV9oHoCnZr0N-24" value="2" style="rounded=0;whiteSpace=wrap;html=1;" parent="WIyWlLk6GJQsqaUBKTNV-1" vertex="1">
          <mxGeometry x="80" y="1380" width="120" height="60" as="geometry" />
        </mxCell>
        <mxCell id="XNMfURiHyV9oHoCnZr0N-25" style="edgeStyle=orthogonalEdgeStyle;rounded=0;orthogonalLoop=1;jettySize=auto;html=1;exitX=0.5;exitY=0;exitDx=0;exitDy=0;entryX=0.5;entryY=1;entryDx=0;entryDy=0;" parent="WIyWlLk6GJQsqaUBKTNV-1" source="XNMfURiHyV9oHoCnZr0N-26" edge="1">
          <mxGeometry relative="1" as="geometry">
            <mxPoint x="-50" y="1440" as="targetPoint" />
          </mxGeometry>
        </mxCell>
        <mxCell id="XNMfURiHyV9oHoCnZr0N-26" value="pipe_diameter" style="rounded=0;whiteSpace=wrap;html=1;" parent="WIyWlLk6GJQsqaUBKTNV-1" vertex="1">
          <mxGeometry x="-205" y="1530" width="120" height="60" as="geometry" />
        </mxCell>
        <mxCell id="XNMfURiHyV9oHoCnZr0N-27" style="edgeStyle=orthogonalEdgeStyle;rounded=0;orthogonalLoop=1;jettySize=auto;html=1;exitX=0.5;exitY=0;exitDx=0;exitDy=0;" parent="WIyWlLk6GJQsqaUBKTNV-1" source="XNMfURiHyV9oHoCnZr0N-28" edge="1">
          <mxGeometry relative="1" as="geometry">
            <mxPoint x="-50" y="1440" as="targetPoint" />
          </mxGeometry>
        </mxCell>
        <mxCell id="XNMfURiHyV9oHoCnZr0N-28" value="12" style="rounded=0;whiteSpace=wrap;html=1;" parent="WIyWlLk6GJQsqaUBKTNV-1" vertex="1">
          <mxGeometry x="-15" y="1530" width="120" height="60" as="geometry" />
        </mxCell>
        <mxCell id="XNMfURiHyV9oHoCnZr0N-29" value="" style="shape=image;verticalLabelPosition=bottom;labelBackgroundColor=default;verticalAlign=top;aspect=fixed;imageAspect=0;image=data:image/png,iVBORw0KGgoAAAANSUhEUgAABG4AAAG3CAYAAADlxBMqAAAgAElEQVR4Aey9zatlRZb3n2NHDhw4EM7Intg1Etp+HPSgWqvpiUhBzXx5tJWSGtXQgSYWv0TIJgcOSkQrISl9IFOsgiwe8gERihJMMOlrjqQSsvKPSP+BjB/xumOtWHvvOC/3nH3u/Qwu52XHjlix1ifevidi3wur1crxhw9gAAZgAAZgAAZgAAZgAAZgAAZgAAZgYHkMXCAoywsKMSEmMAADMAADMAADMAADMAADMAADMAADngGEG3YcseMKBmAABmAABmAABmAABmAABmAABmBgoQwg3Cw0MCirKKswAAMwAAMwAAMwAAMwAAMwAAMwAAMINwg3qKowAAMwAAMwAAMwAAMwAAMwAAMwAAMLZQDhZqGBQVVFVYUBGIABGIABGIABGIABGIABGIABGEC4QbhBVYUBGIABGIABGIABGIABGIABGIABGFgoAwg3Cw0MqiqqKgzAAAzAAAzAAAzAAAzAAAzAAAzAAMINws0pqqqX3Ds/PHJXHzxy712msdHhwsB+GHjbPX/npnvpzufu2VeP0+c3bl1w7taTp9g3Hadf9sPPGfDNh4879/0T7hLjO20IBmAABmAABmDgjDCAcHPIQL71nbtypkWNDuHm8n139cFD985bE4uFpfop2P7IXf3hO/fcITlardwzX/qFuvr75n339IHtWtJC8+mPP299VPnshY9fPCMD27xwE3iZ4+PiRwcRfy5de8y5e4+7GyPs/uLTP7hbd2+4W39+o43X7y7Ha/56+vv97yb6lpEyds7tTvuw6+69B14Qn+k391W3RZbzlLv9/QXEm0XGZgHtEb+0fSc+wScwAAMwsHgGEG4OCelOJ/NHOhk6SuEmLZy+/i7uKFqKcCMW4i+6Z7/xQs5H7plDMr7Usl99371wxDtSthUWFivc+J0S9x5zt980+rPX33XX795w1z991/1+TLjRvCUh5+DizY76+pe/9oLNfffOFw8RbnSsm89Pun/cu+B+uvbU4idi27Zn7jf6i4YH0sAJDMAADMDAcTOAcHPIwX1Hk/mjboRHJ9zEXUTx6FfaUbRI4WblVkGcuOmev3jcndSp8I1w414SQp/ByN533EwttN9wv7/7B/fB695O/35kx03Tn//cffC33rSGD5r8Nkyzg77+OS/WfH09iBDhPTtu5gWZKSFwV7Eln/k44CN8BAMwAAMwAANbM7CWcBN+7fMTx3xExNyuHXcj+IVtnFzGZ5z4XwlfVgGLvx7m6/ZzUGQeI9vDhT0xP/FMFUscaCbSu7V7arHZ1mnwgfRTr03DkST/PBn/d+WLSxUc8br/TpbdxkTGVvsy2xNf87NrchyHMrU97Zb+fE+2V7wmIUTaWvvIv9e2z5U5+EDWsbVtKnbyWipzqcLNKh6ZGY4Axc9eyJHHhtpdOfrolSX+yDzsZ6rMpbF2fsR7apt2a3eI4ZRwEwQLX37etZSOoH35dtWm/AI+H0kajqgJP5Uy5vLR8VC+zPaEV3/N25bLrp9jk7/L9tQ+tO2tj9dlTnTs6zSN2JPEwZKmEYP6Y7cKi+zxI1JD21tfuLn+6c9V7DYUYMQYNvQpsq8a+ib5/Vwf1m9TzHebvmulxvFHRRQqfg7jpq+L6luTeBTT5TFhbrxXeRhHhEOdQl86jC/tWGbYbeRV6rBKR6Z4XtIp8N/P6xAP7sEXMAADMAADMLApA+sLN0EYGCamcQE+fF6tqklXWdCmSVuZ8OnPK7dqhJQ8QZuZnFr3icn1SD7NfTu0W5c/9rmxQYPcY9PKvfy18lESsgbxqpo0lxikvMvnkRgI27M9sTwf+ys/PAwiUVxI1BykuliiWZ3n3HWfttNPg3BkxbzyQSX6BH4Lp9r/c59TnhvfP5d//3VLAGl33FQL+7LATqJCESX055GdOz27MTrSWHaPCTdBHNjW7sxeEVUMHxeB5KbLYkbrS+8nKYxEuyshpRI1iqCT8i6fvT1zfsr2hLr7GH7uXvjGl2PEKtWv9aGsp+X3ZhDpsquqb37WUomRL7OHuWhbeCBx1wNl+4Wb+Dycy+7XOe47fa36lNIHjPQJs32YjE8TC2X3tsJN218nu+vxII0jQjxp6pHHhPpZXzovY6xJedd9drRJ/Vigx4em/Hm/hWcmdXE1n9dcXLiOD2EABmAABmAABk6LgQ2EG7U4byZSxiRt5cWFamIXJmMqn5ymmji2k0sDBD2xUxPc4DgrzSna3R2sxgZdvw5fWvVN4tkwKdYT6ViOiInPx/KTyF/aE+5PIshorObynLvuy5/xUyi7LJyyD2OdGx+odKN2i3rnPPVr8qvKszv+l/7ifvzxR/vv9jX3epcN0aZ2IZ4WzNYiuog0xr1hsS4FCV+fkH9135ww4O/pSdPabd2X6lKVX2zK9eu0u8SmQ7gR4kqze0mzYAhcSbiZy2fWT0m4ifnUvjikcBPLLsJWZrXxa23v4LM27nFnRN/zSGaEG/WA4tN7vs1I+7f6tJk+rHCZ/TjzGvstJdjP3DOUEfvxQdhPcQl2V+Ny+Kx3wsZ7h35Vjgm5jHpsGetj6zT+PrNO2m+Wb+fqzXEpdtvMMcJ1GIEBGIABGDgCBtYXbppFqj2RGyZ2w2Q9T+riBE1vG0+fRf5pUmgeycr5pslzOiLUTEZ9EKzJnp4QNmJHzn947bd7uCfX2XxtbND3ad/q6+lzykccNxLHpZKPKlHM26Mnziu1Jb71pbSnvn9scm76vm4YVmzq6/79jJ+CHSn+2gf5mRClbsoHZlx0+aOfRxZuo+lH4reD9GEhXP2HJL87pVlUd4gPUUTIR23UaxZJgr1pQT75b6fn07QL+HHhpq3P4M9+u9M9jcAw5DW7AybHKwkq5ZhQ8n8RajqFG7ErxXpgcign72yJPo2+OKRwU8dWcXKnfq5SbW/l4+zD8jr1fBt934xwU/L0962TVpcz99nuV83+aqYPW7cfMkUOUe8J20fGi9h3VmJQT9/cMW6G/tnqd0P+g1A0OoaIenWM9yL9ysUjeCMPvNZp+czEHQZgAAZgAAZgYKEM7Ey4GRb5cnFvTUj7Jmj1xLNvslYv4IVwZE1Am4n0adhd18F439ig08zblBcJg0Dh89D32QuMWnjRcbJ9KfOt7x+NqeX7ujHMXfdpZ/xU26HrMXy2fTBc177v+ZzyFGJjz327T2MJIG3d5hfRs7s/6tiF90k80KKFSDeexrK7teEU7N5WuEmijRCTtFCjPwefTNVlxE8LFm5E/UXMM+NT9c1p/OsOd9xoO8IOnPxg47rMbd+P9Cmhv6oEEG/PTB/WttVp23Yh3Axj9khZPX1zM9a0eYX+eWfCzZC/PUYN14tPu5+dZNyrWeIzk3kYgAEYgAEYgIEDMbC9cNNMUuXivkye6gp2TQitSdTIRLnO29pJYpXXTKRP026rLj2T+U1t0vfZfusRPGQamW997ZDCzWjZggvbByaf4r6R2IU0Kc9NhZtTPSpl2d2xiBYigZXH2Hfjuz8GH7dpdiXcdO+SybHdUrhpxaXNj0oN/sm+VX4SMaljqNLlunUcU7P83tghys225dfxsmU+tb35Xvv1NJ5xE2wJws1pPOdmpE8J482wkyTY0Iw3tg+k78bTbCXcdIgtwQ5r3KwYi7bKMcGyf6x/rscPf99YOivP+judT33Nv+cZN+McaV/xGV/BAAzAAAzAwHIZ2FK4iZO26d0eVuXThLd6SGwfJPOTRPNIjJ40p89+a/jwq+Maea9tt+UD/53lvzpth026bjnPjY5K1WX793phIu2pJ8yjk+65yX+yX+yQGlkcSM5qW5MfJwUUXZf6/k3fpzwny9007/Xu61qIdxyVWpX/pNQ+52a6jfYs0Ns0WgCJn/3Rm7r89r7WliQkiPsmfLilcNMIRWl3jT82tf5RKW2nqq8QUOpr4+KJ9qv2V7yej1/p8tPnVKfRXTXBLutIXp1fbW/9vfG++1kkaxx/ev1dd/3uDWf+V6nXPnPfnpy4k5Ov3MWmzzHsa9IYfcpofzbX1/eUN6TZTrjJIkk9/g15F1bm+u7gDzkmlHtrX+Xxtt51E/KW5Y+OIXVezXsjBiIN/1XKjInwkRF7rvNrMgzAAAzAAAwsjoH1hRv1LJF2wd0xkQsgpAmXym8QUtIzWNR1XV6c7Knn5dQTxASdTOd/DY12DuXtzu61Jkp5UlvqWf9S22eTrJufDEffDr6yJ7e18OJt1vmEZx4IX0p76vvjvdn2mK553oyvo8gvTRjTJL6kt4SQST/5fKwy6+MKtg/WipXJkmRv4Gm/k+HdCTfe7iyCyGeXFEEiP6x45pk6waaZNE1Z/gHEQRBYV7jps7vEe1vhpvGBF0GiSFH8lISP8jnw0woZs37qFW4q8Ug/d8cSX3S5VpoYi4oD8Zyj/B+xqus+3iJNW98Sg9Sehs/xOTdu5F83//rPN9ytu9bfcAyqTTNcG8rJbfOi+yoINyfu209e2WBwnh/DRJmzfVi2a+S1ub/qe6x+tfGvzHe2v9+VcBPs0P1z3TdHu+QYIm3Nfpy1Wde5Wwy0y8vl8op/YAAGYAAGYAAGDs3A+sKNtajWkyU+b7AIoDEcujFQPgzCwIEZ2PNC+5VPvnUnJyfuqw82qffuxGC428T/c/es88Druby4DqMwAAMwAAMwAAOHZQDhBpEJkQkGYAAGFsNAeNbNvX38F6C04+avn7lXNoo/ws1yJ3DpiNT3T7hLG8X2sBOz5foVvxAbGIABGIABGDgUAwg3u5zUTW1lL0eh2i3ihwo+5VYdD7FbzMIdLisud9k/HVFeQbwZOTK1Cz4u/sk/2+bEnfzp4hbc70K40UeIquNPZcyQz4IZq795jKjKIxxFPS87Zv3OLUSbLdimDxprZ3wPGzAAAzAAA4diYC3h5lBGUi4NBAZgAAZgAAZgAAZgAAZgAAZgAAZg4DwygHBzRL9Cn0dAqTMdMwzAAAzAAAzAAAzAAAzAAAzAwHlmAOEG4Ybt1DAAAzAAAzAAAzAAAzAAAzAAAzAAAwtlAOFmoYE5z2oidUdNhwEYgAEYgAEYgAEYgAEYgAEYgIHIAMINwg2qKgzAAAzAAAzAAAzAAAzAAAzAAAzAwEIZQLhZaGBQFlGXYQAGYAAGYAAGYAAGYAAGYAAGYAAGEG4QblBVYQAGYAAGYAAGYAAGYAAGYAAGYAAGFsoAws1CA4OqiqoKAzAAAzAAAzAAAzAAAzAAAzAAAzCAcINwc4qq6iX3zg+P3NUHj9x7l2lsdLgwsB8G3nbP37npXrrzuXv21eP0+Y1bF5y79eQp9k3H6Zf98HMGfPPh4859/4S7xPhOG4IBGIABGIABGDgjDCDcHDKQb33nrpxpUaNDuLl831198NC989bEYmGBfnr56yhIeVHK/1354tJBO8VnvvQLdfX3zfvu6UPyvbCyn/7489ZHlc9e+PjFg8Zwd4vyeeEm8DLHx8WPDiL+XLr2mHP3Hnc3Rvj5xad/cLfu3nC3/vyGGa9f//lGvO7T3L3hrn/6czPd7vw90XflOuy0D7vu3gv9zky/mcs+l69PudvfX0C8OZex72iP+OXwfSIxIAYwAAMwsDYDCDeHhGank/kjnawcoXDz3BcP3dUfvnPPZXZCHQ67q6hdiL/onv3GCzkfuWeynbwOHeSr77sXjnhHyraiQ8uL0X8cQrjxOyXuPeZuv2nY8/q77noQYt51vx8RboKo87d33S8y67+7HMSb3//OyC+n2cfrjvr6KBjfd+/4PmhO8N5HvRZdxpPuH/cuuJ+uPTW0+0Xbe2BG8Q2cwAAMwAAMwMCiGUC4OSSgO5rMb7uIO+j9RyjctP5KO4u+vn6wxm4uxIM4cdM9f5EFQRMzhBv30uJ23EwttN9wv7/7B/fB655l/358x42M9c/dB3/rTXuK7WQHfX0QjFMfE94j3Mz3t1NC4CHHfsqejx0+wkcwAAMwAAMwIBhYS7gJv/b5iWPaYRCPiejt2nEbt3+mSZxc5iMl993Lyvn6uIn1HBSZh89Ll7dS9sTyRF6WONBMpHdrt1w8yAVBW6fsI/9a+6nXpuFIkn10J173x3lk2XVZyUYRW+3LbE989WV5P+c4DseFtD1tzPI92V7xmnazSFtrH2k/edvnyhx8MM2vjNVUHIdrqex6F45ifUi7Sf7z95jCzSoemRmOAMXPXsiRx4baXTkhv+oYkSX+yDzsZ6rMpbHsjvfUNu3W7hCLKeEm7DTx5eddS+kI2pdvi85zlfxbH1ETfiplzOWj46F8me0Jr3kXlXUcKn+X7G12W+nrOV18zZzo2Nf1a8SeJA6WNI0Y1B+7VVhkjx+RGtrQBsJNvQtnZ21z6FNkXzX0q/L7uT5svp1nH8R82341X+961X29Fp7DdV8X1beKdHlMmBvvVR7GEeFQp9CHDuOLHxeGcSX5R9tt5DXUPx2Z4nlJqu/qZ23wJffgCxiAARiAARg4JAPrCzfhbP0wMY0L8OHzalVNuspCNk3ayoRPf165VSOkZEFmZnJq3acn5mGip/Jp7tuh3br8sc+NDbox9NjkhRNVtzSxHcSratJcYpDyLp9HYiBsz/bE8nzsr/zwMEys40Ki5iDVxfJ9nefcdZ+2009igt/kW/mgEscCv4VT7f/ez4Yv6zru4b0lgKzSonoQE6qFe1lgJ1GhiBL688q1+azcqucYTUcay+4x4SaIA9vanWNRRBUjxkUguemymNH6wPupFpey+FI9ELgSNUoMUt7ls7dnzk/ZnlB3H8PP3Qvf+HKMWKX6tT6U9bT83gxEXXZV9V2tXJtvD3PRtvBA4q4Hyq4j3KyTVvqo8Udmp7xWfUrpQ9J35XPKc7YPW6/sbYWbtr9OdtfjQRpHhHjS1COPCY+q46M6L6N/THnXfXa0Sf1YoPvxpvx5v4VnJnVxNZ/XPBPkgY9gAAZgAAZgAAZOh4ENhBu1OG8mUsYkbZV2ZeTJbJiMqXxymmri2E4uDSfoiV2ZVFdprTSnaHc3rI0Nlc2hHh2+tOqbxLNhUqwn0rGcRrSw/CTyl/bUot1orObynLvuy5/xUyg7s1XsjXVufKDSjdpd8tExaT9HPyjxrOf+S39xP/74o/13+5p7vSePlGZ0wVyEDm93WkQXkSbWRdwbFutSkPA8hzTVfXPCgL+nJ40oO9WlvW93dpe22SHcCHGl2b3UctCIO41wNsSgCEI9fkrCTbSn9sUhhZtYdl2P4NvGr7W9g8/auMedEX3PI+kXY+KDivMRq6H8wsEabay9J/Wrqk+JO/pUfzDTh7V5T9sa+y1VRnddYj8+CPuprNAXV+Ny+Kyf3RXvHfpVOSbketRjy1gfW6fx95l10n7rGS+0HzguxW4bzQSfYQIGYAAGYOAIGVhfuNGT1EYk0BO7dgIaJ2h623j6LPJPk8LJ/6CRJs/pv/s0k1EfFGuypyeETT22sbu9N09oxWtjg75v3pchv5SPOG4ktph3CjdqS3zrS2lPPfEem5ybvq8bihWb+rp/P+OnKJyM8FSEQNsHIh663I7PmeVhIaNjuJ/PYSFcHW3yu1OaRXWH+BBFE3mExj4GkxbkoUy562Lw6XyadgFvCT4xn7Y+g2/77U73NALDkNfsDpjMRd4Jo/xeBJ9O4aYIamO+FDtfal8cUripY9vyUnzQwVzkZer5NlVsgu/7hJv836dO779KjfQpVn9lfZc52uDVFDl68xkZL+L4UYlBPX1zx7gZ+ufSD1exDPkPQtHoGCLq1THei/QrF4/gjTzwWqflMxN5GIABGIABGICBhTKwM+FmWOTLxf2wiBsmbH0TtCG9fn7JUFadZnjWitja7R1vTUCbifRp2C3ta3zR2KDTz9uURY2rYmKs77MXGLXwom2rxZBBlJD51vePxtTyfd0Y5q77tDN+qu3Q9Rg+2z4Yrmvfz3+OdX7kpO/n79umzLF7LQGkTVsv+m07290udroh7yQeJPFiWLDX942nsexubTgFu7cVbpJoI8QkLdToz4H7qbqM+GnBwo2of92uy/up+taM7HbHTRZtxv5l+MBvbcO670f6lNBfVQJIRx+2rj2x71FlFJ/P1GOmPy229PTNexduhrrZY9RwvdSj+9lJxr29PiUdk3wYgAEYgAEYgIFTZmB74aaZpMrFfZk81RXpmhBak6iRiXKddz5yVe/cscprJq+nabdVl3lBIj8vaBBOjHysujWTadtvPYKHTCN9VF87pHAzWrbgwvaByae4z/C5vx78vqVoc6pHpSy7OxbRQiSw8hj7bnz3x+DjNs2uhJvuXTI5tlsKN624ZDwLaG3hJvtW+UnEpI6hSpfr1nH8yvL7EKdkhyg325Zfx8uW+dT25nvt15094yb9C/DTFW18HUb6lNA3DDtJgj+a8cb2gfTdeJqthJtmfBgpxxxbdFo5Jlj2j/XP9fjh7xtLZ+VZf6fzqa/59zzjRseMz5oRPsMEDMAADMDAMTCwpXATJ21yx8H8RK5MeKuHxPY5a4286x0oetKcPvudOcPunTXyXtvuscZg+a9O22GTrlualMtdR/YCY27CW+JUfCntqe8fnXTPTf6T/ZPiVK5TsaP2kX+f/FiLddUiNrJl+6CPO1Ve5mfUHpW+sWX317sW4l3HVtKCvPmPRHM29yzQ2zRaAImf/dGb+jk77X1t3Na0e0vhphGKkkjjj5WVXUcbCzeqvkJAqa+Niyfar9pf8frYEbcU62T/6K6aYJd1JK9mpba3/t543/0skomjUq+/6673/qvw1z5z356cuJOTr9zFjdqo0aeM9mdzfb3hjwmbthNuskhSj39G+XN9d7BPjgmas/DZ6i9D3rL80TFkwg/tGKXrwX+VMmMy6VPtQz7jQxiAARiAARhYAgPrCzfpWTLxPLzxrzp7f83Lv1aq/AYhRR59GisvTvbU802MBbVM538NjRPOobyOCWiY7KTJ+oTdawU2T2pLfvUvtX02ybr5yXC0cRBDjAWGsTNJ5xN8Lnwp7RkXbmK6HDPxKvJLnUCaxJd0lgAz6Sefj1VmfZTA9sFasZqIf7Z94Gm/HdzuhBtvdxZB5LNLiiCRH1asnu2iF/jBppk0TVn+AchBEFhXuOmzu8R7W+Gm8YEXQaJIUfzUKdzM+qlXuEnllWcSVb7XsfF+0OVaaWIsKg7Ew67zf8SqrvsyRZo1hJtVfM6NG/nXzfFBwzfcLS/MiL/88OGfuw/+pq8Nn3//O90mL7qvgnBz4r795JUNtveuORbM9mHaPvW5ub8a96x+dWZxPtvf70q4CXbo/rnum2M9oz31+KfqX3blVPX24+ZU3bvFwLas0lfM+JF0+A4GYAAGYAAGYGAfDKwv3FiLaiY2G0z6AXwfgFMGnMHAETGw54X2K598605OTtxXH2zio12JwZuUzT3z7XqdB17jz3l/4iN8BAMwAAMwAAOHZADhBtEJ0QkGYAAGFsNAeNbNvX38F6C04+avn7lXNoo/ws0hJy/TZacjUt8/4S5tFFsmptP+xT/4BwZgAAZgAAb2zQDCzS4ndVNb2ctRqHaL+L6DTnlGR0PsFrNwh0+Dz132U0eQVxBvRo5M7YKPi3/yz7Y5cSd/urgF97sQbvQRInUMKI0bPUcwzaNPZdxJ+Z6XHbN+5xaizRZs0wftop8hDziCARiAARjYJQNrCTe7LJi8ABkGYAAGYAAGYAAGYAAGYAAGYAAGYAAGphlAuDmCX5+BeBpi/IN/YAAGYAAGYAAGYAAGYAAGYAAGzioDCDcIN2ynhgEYgAEYgAEYgAEYgAEYgAEYgAEYWCgDCDcLDcxZVQqpFyo4DMAADMAADMAADMAADMAADMAADPQzgHCDcIOqCgMwAAMwAAMwAAMwAAMwAAMwAAMwsFAGEG4WGhjUx371EV/hKxiAARiAARiAARiAARiAARiAgbPKAMINwg2qKgzAAAzAAAzAAAzAAAzAAAzAAAzAwEIZQLhZaGDOqlJIvVDBYQAGYAAGYAAGYAAGYAAGYAAGYKCfAYQbhBtUVRiAARiAARiAARiAARiAARiAARiAgYUygHCz0MCgPvarj/gKX8EADMAADMAADMAADMAADMAADJxVBhBuEG5QVWEABmAABmAABmAABmAABmAABmAABhbKAMLNQgNzVpVC6oUKDgMwAAMwAAMwAAMwAAMwAAMwAAP9DCDcINygqsIADMAADMAADMAADMAADMAADMAADCyUAYSbhQYG9bFffcRX+AoGYAAGYAAGYAAGYAAGYAAGYOCsMoBwg3CDqgoDMAADMAADMAADMAADMAADMAADMLBQBhBuFhqYs6oUUi9UcBiAARiAARiAARiAARiAARiAARjoZwDhBuEGVRUGYAAGYAAGYAAGYAAGYAAGYAAGYGChDCDcLDQwqI/96iO+wlcwAAMwAAMwAAMwAAMwAAMwAANnlQGEG4QbVFUYgAEYgAEYgAEYgAEYgAEYgAEYgIGFMoBws9DAnFWlkHqhgsMADMAADMAADMAADMAADMAADMBAPwMINwg3qKowAAMwAAMwAAMwAAMwAAMwAAMwAAMLZQDhZqGBQX3sVx/xFb6CARiAARiAARiAARiAARiAARg4qwwg3CDcoKrCAAzAAAzAAAzAAAzAAAzAAAzAAAwslAGEm4UG5qwqhdQLFRwGYAAGYAAGYAAGYAAGYAAGYAAG+hlAuEG4QVWFARiAARiAARiAARiAARiAARiAARhYKAMINwsNDOpjv/qIr/AVDMAADMAADMAADMAADMAADMDAWWUA4QbhBlUVBmAABmAABmAABmAABmAABmAABmBgoQwg3Cw0MGdVKaReqOAwAAMwAAMwAAMwAAMwAAMwAAMw0M8Awg3CDaoqDMAADMAADMAADMAADMAADMAADMDAQhlAuFloYFAf+9VHfIWvYAAGYAAGYAAGYAAGYAAGYAAGzioDCDcIN6iqMAADMAADMAADMAADMAADMAADMAADC2UA4RJN4BAAACAASURBVGahgTmrSiH1WpIK/pS7/f0F99O1p+ig6QcOy8CbT7if7j3ubhCHw8YB/+N/GIABGIABGIABGFgkA+sLN2995648eOTeu7ykBeh+bXn560fu6g/fueeAepFQT4tDl9w7PzxyVxfB8Nvu+Ts33Uvi73P37KsDz09//Lm6LtO/8PGLbrWy8rnpnr845GP55MatC859/4S7pDl+/V13/e4Nd6v8XXa/1mn8599drtLccNc//XnLg87rz2+0aay81/7uunvvQYyrj238e+jeeWvwwXNfPEzf5+vy9coXl9xqZeWzbX+3JOYGf1hMHPK7wCPizSm1j+XG/ZDMUTZcwAAMwAAMwAAMHAsDCDdrLxBXDuHmOBt4XLg/dO98cX9Rwk0tsDzzpRdmpHhTOpNX33cvmNeicFPnswppb7qXvnzbXAheuvaYc+Yi+Q33+7s33O9/l2P8c/fB3264W3971/2ibitBtPmD++D1lC4JNEK8Sd8NecW8b52KeBMFl1pQDu30gRRvii+DAG1da/NZJbH66tfXTV+WPGv/pPfLYy7HdYmvcQeYu/Xk2n6eigHXlhhrbIJLGIABGIABGIABGFiHAYQbY7E150CEmyNsZJfvD7uk/PsF7bixBBfxXWZ0HeHG33Pxo7Bbp8krHEu54P7xYWcctUizigKMEGlWK/eLT//gbt3Nu3OS4KNFmiavThuyD0ZfxwWXWswpbXsd4caXuQkzi2RuV/4+pXzWZXOUh1Oyj/IQ1WAABmAABmAABmAABg7AQLdwM33M4L57WRg/HA1ojyzEa1e+uF6OrPgjCiX/8qt2TlddC0cgdFkrV34Rz0ckmmNMw6KulGPmFdMNRy3qIxLttTpdPGbhFwup7qUecQHRiD1hIejronyl7iv55bqN7SAQ/rcXLbLu/piIseMg7y7I5WlfFrulP4b657JVvXx+Oq/Vaoh7Lk/Xv5Sn8tPpOupfFu0hzzq22eZ9v47vlGnEFl+/dYWbfIRK7boJu22sI1JjPkxHosrOmbCTptptE+5LQk3ZraN37kTf/vrP8QiWFn1KbMZsmP1+aOMlr8TyToSbfIRqU+52wdxc20w2+vrKtl73mbEdhfaabGr76Bgrmccj1+w46m6bsq8I5U34cfQI3ywD+26/lFfaGrFhAgsDMAADMAADMAADp8pAt3BTJmhTi6EQrDhJFwv5MMHPIsGwAC8LjB8euit+Ij+Sbljwp3trAUDcEyfSjUiSF11CPEh5lQWE/1wvcPLiJ9s9TNLb/IdrRWgp+Y7YFOyOz9govmp8O+fLutyZ94afSkxzIzPSNHUtdg9+iQu84bPPt7kvl1G9hjQPap+nBV4T3zk/zdS9KjPUOdXBXNDrtKf6WQs3L7pnv/FHpT5yz1jlri3cpPy+ed89XfJb/zhK3ElTCTVByMk7a7zvs0hT7cRpxJ0o7Fz/9I149ErvxCn2rRnLcl9kZ4hp7mdqvqq8Q1uTzMb2oPPJ9xh9Tyk7p5l43Za5nrbZ3c/lZ/sMvtHtdXdtU/ezEz7K/vzw8ZFjfB335jx4PdWJQzN24G/8DQMwAAMwAAMwAAOnysDOhZuwiK8X3iGAcfIeBQq5ABKLfrE4kenKRNFIU4SPDEuzKEuCwJyYku/Pr42QEhcOepFTbKvqqn+dbu4xF3LRzlyfeV/2L2Sin4eFmrTZ51PHqMpX+1L4P6Vr/JRip/wtymzuSXnp/Dv8JPLNsZt6NfOs6jx17+p1d+32j+7HH+2/v1zqzcenMx4qrHbHiLrtRLh50v3j3hrHpNJzaurn0ogjUUKgqYQbcSQqCzu+ziNHqCZ93uPT1Mbzzi3/OsvfsQg3nW0zCzeq3rLvsftV0T/stG3KPk3wPBZzjkud6qDfFYOx2PA9sYEBGIABGIABGICBgzCwc+Em/lKbf9FVr2FBIRf1YsEgFu0yXZlsikWFsVirFm7Dr++di4e0oK+PQPn3Qz5xASkXQnpRadvd3CPqqvOoyqnqI+xSi7Pin9GGVPtqfMEqyqjKLj6w7BYxSXWpfdkIefmZIZaQFO2cLG+0jrYfG98k20oZ2+a38f1yx83kg4l9GZsKN7UYtNaiOAouw3Nrkn/zjpv8WupfCTRZ0Pmd/w9V1W6dJNyc9lGp2A9ZnKc6BGat64q/Uje7XTdslfSKxa2Yq9uu6lNF/xTTZeHXtq2jHsHW3bXN2Mcnu3v6rbUYVX4e8z/fH2SCYTNIzPALDMAADMAADMAADKzLwOkIN9ZCvUyc5cJhM+EmL7h6Fioeio50aWElFj2WIDF7DEjWLwdkY+Fm0pebAJ/sS6LMIF50+MjHMPgp+z+VP+KnUPd0LQpC1WJwx4vD7Oeu1xTroe6b+HEX90jhpuzAqYWW0m42EW5i/vFfhmd7e3fcZNGmFl1SHnkXjv5PU+n7+CycfH99pMrfH78/beEmt/nRXTdrCzed7aOOV/1+K+Z6y+5JZ/dPot2cVttMPgh9wVS/FoSbx9ztNzOzvIr41FzxHkEKBmAABmAABmAABs4FAzsXboQQY0IkFw4ifZjYZ1FApisTV7GoGEnTlDu/oBF25PtHBIlGhMnpw6ttU3OPqKu9MDFtEmXZ9xVfTabVdurPI3lbdo/4Sdih0+jP2Vadv/6c023zGvJsd1IJe0fz3/1RqfpBxE9//Plu/h34auXsvHqecZMfNGyINsEvtvgijlCNHYkSR6hGGBv1/VT62MZrMS62n9yfqHsDf9a1Nh/PxWRePfZuxVxn2+wRqPPD0Kd2vpx225xr0zzj5lxMPvr6W9Vue9oaaeAHBmAABmAABmDgDDKwvnAz8hyFYRIWFz7DA4X1xEsuQoQ4ISb0Ml3IPy0oxK6YtCAS3zWBmhdump0kqSz/63C9GOxZxGmRJnz2O1zqX5lFXbWP8uc5X+Z0m7waPunxpWX32EKvjkNzX4qv9XDielHZ3LdJXdU9qZ46rgPDKn1dj52+1ztu8q6am+4la9fNGkelomhz08ndNrFe4b9K3Xvc3RipS/zPT2OiTcyjeWBx2m0jdtIEkeaGK/+NKu22qZ+XU3z+2mfu25MTd3Lylbs4YldJa16PPIuY5jZc85TvDdf6hJvYRz1y033MDDPbMpfun7bBaNO5vuXV6FfLtVyH022bos9vyl45/qtUjgOv020e/+AfGIABGIABGICB88PABsKN8e+3xeLbOy8JDtUzUoZ/PS0XDmISLxbpefEgn+kgFmZ50p8WNeL5LLVI0vVLdPpPSMVmv6gzFoOpzCLGpPRyQSXr76+FetY2ibpOASfzinW0FpxTeei6RZ9Km9P9c7607G6Em36bp/04cjQrx32tV8umxFYdl7XynPb5fEdqCDerlYvPujH+s9SMcPPSHf8fqfKfcX+uW3qGyE/XnmrV+CS23Lob/223eFVHo6J4M6QbBJrKLyo/Iexke8LrRfdVEG5O3LefvNLaJdJW+ZfvY3x1/xD5qo7o5fQzwo3oS5r+zSrf+m7HzM21za5+Tva/U4zupG1m8az0q77NGfHIceH5Nhuwb7HHd1Nscw0+YAAGYAAGYAAGjo2BzYSbPMk+1df+BcaxOR176SgOzcDcrptD2PfKJ9+6k5MT99UH8HEI/x++zJ5jfLBx+DgRA2IAAzAAAzAAAzAAA/tmAOHmVMUngN430JTXy1xaJE8cmdqvL9OOm79+5l6hTZ7LXRfhiNRieOxtR6Tbbz+Bv/E3DMAADMAADMDA+WQA4eaIF4n52RvyWIc8Wiaeq3PEdR3roPRxDtMX1jNOzqAvxnw0/n0Ub8wjU3v0z8U/+WfbnLiTP108CsFiZ8yZx4hU+32w/rHI8XgveJALR6TGn7t0lHXaYxvCPwtmGw6Ool+nDdGGYAAGYAAGls7AgoUb4Fk6PNgHozAAAzAAAzAAAzAAAzAAAzAAAzBwugwg3PBrGL+GwQAMwAAMwAAMwAAMwAAMwAAMwAAMLJQBhJuFBgbF8nQVS/yLf2EABmAABmAABmAABmAABmAABo6BAYQbhBtUVRiAARiAARiAARiAARiAARiAARiAgYUygHCz0MAcg+qHjajTMAADMAADMAADMAADMAADMAADMHC6DCDcINygqsIADMAADMAADMAADMAADMAADMAADCyUAYSbhQYGxfJ0FUv8i39hAAZgAAZgAAZgAAZgAAZgAAaOgQGEG4QbVFUYgAEYgAEYgAEYgAEYgAEYgAEYgIGFMoBws9DAHIPqh437UKdfdM9+c9O99OXbdKI7aKtPf/y5e+nOzfL3wscv7sivT7nb319wP117akf57YMtyji6PuzDx537/gl3aQdt4ejqTp3pW2AABmAABmAABs4xA+sLN2995648eOTeu3x+J/0vf/3IXf3hO/fcOQbnKCf9id2rDx65+HffvXywGCZBphIRakHhpTufu2df9W0M4eZ0WHvbPX/nptuVcHPj1gV7Qf36u+763RvuVvm77H7dMPdz98Hf6jQ33O9/Z/SvOq8/v3G6g/fl++7qg4funbcMW5o67CLNJffOD7FtnufxZZr3KBAi3uyCN/KYZg3/4B8YgAEYgAEYWBIDCDcbLEAQbo6xEV937wnBMS0SFyLAhZ0g37zvnm54RLg5nQ5zd8LNpWuPOXfvcXejid0b7vd3axEmCTR/e9f9okr76z/fcLcqEeYXn/7B3br7B/fB61U7S6LNIOjEvOv7du6nPQo3z33xMIpEX3ix6Hz/MDAfxyfdP+6xu2veT1X7qdob9+EXGIABGIABGICBY2QA4WaDCR3CzRlp7HtcmM51Dgg3+2ZqR8LNm0+4n+5dcP/4sNP+311uRZmmD4qizPVPf5521CTBpxJ3Ak9deXXa1diwcqt9tQ9fThZQQ5kIN3P9xcofmbr3mLv95hbxtWLOd6e7iw3/4l8YgAEYgAEYgIENGegWbuIvovmIiX7VR06GLe/xSEq93T5eu/LF9bIt/soXl1zJ/+vrKZg5XXUtHHHRZa3cSh+ByYuA4pRht0Upx8wrphuO0tQLiPZanc7XIU62U91LPeLEuhF7wgLF10X5St230te3OLog6+5jWMclLQDmfFnslv4Y6p8XEqpe3t9NXFZD3PPxJV3/Up7KT6crsc7ld7wuaJE4J9z4Iz3i+SzW7pxX33cv1EevmjRRrHj+4krmdecj90zwX9zd88LHb8fn6qSjRKVc8Zyd9qiXz7ddcOp0uawq7cWPyjNnwnExbXe4no+OpftSXUuZ4bNPo8oTNldlrmaEm1lfxrzCbpt1njkSxJZ6F05tU36vd9PonTsxXdipc/eGGwSefP92r6Gvyu1RvxptWKY3+pR12uYu2uRcH7bqGQ9ifxP6tWRTO5ZFPzf9quqbwvXgt5k+U5Qzd2QsHZm69aTR5raLf9uGyQ+fwAAMwAAMwAAMwMChGegWboqhaVI8/gyCODkVC/kwIc0T+mEB7vOIk9qH7oqf7I6kGxb86d568SDuiUA1IkmaqIeJd7k35VUm2f6zFIXihDzbPcDa5j9cK0JLyXfEpmqSXnzV+HbOl3W5M+8NP5WY5oWVkaapa7F78Ivlp+a+XEb1GtI8qH2eFjYlRvlX/7iIGffTTN2rMus6W3bX1/f5fk64CYJGESGi6CAeWGyIG898edO9JESQdJ8Xd8r3SegIeQ+iRxF3vvncveCvifzHytfPjEnpSlk+Tm+750s9soBUizLZhkrgEWWnWJvCTXzocHluTUpTPgsOom3mNaO81pfejvUXz+YxKGHXyq3SsagiyITP9dGpuAPn+qdvxGfj6J04Or9NPxv9gWwTuS+v2/Al987XWzz/K/Uv4+PLTFs3bG77okpAKX2NNR7kHyiG+um8evqw2M8oIUbb2fT9M/VcrdzaouGmHHAf4hgMwAAMwAAMwAAMHJyBnQs3YZJaJsN58hknxXHhnSbIKY1YPIvJrExXFgxGmrKgz0CFSfAgLKyycDMnpuT78+vIZFpP3ott4T69AIg+aO4J9ah39Ph0UqiZ92X27/xr9POwAJE2+/vrGFX5aV8K/6d0jZ9sH4gym3tSXjr/Dj+JfHPs5l5T+VcVE/N5ve6u3f7R/fij/feXS5Xv5myors8KN5XY4W2UQkIUOxoRouxCyTYZgovIK4kmSWiJO22SqFKJGfH7SlhJ9ZA2JRvLbp5sQ/06Ip5oUaYqu8RHpxkRabRN5f7RHTe9vvT1iM8a6T4mlR8uPCm05AcVVw8xFkei6t03I0eoKq6G+tZ+73yv26LKV/Td6trG5ZrtvdPe3j6sazywxx/Rj3b2Yaaf9L0zvjb9yXGpg0+gzLjsqi2QD/GFARiAARiAARioGNi5cBN/gcy/VKrXsEiWi3oxERaTV5muTJDEhLf65VRv6RcPuJSCSMmrckT4Li0a6iNQ/r3+9bcRYUQ+tt3NPaKu9sJk3pf2fXb9al/VolbOo76u4lb7wLJbxCTlV/uyEfLyThpLSIp2FJ9b5Ql/Z/vXec11tcpfJ5/dpd1OuEmCTH1MqnpfjhONihW5Hkm4SSKREGgq8SSIIUpICsyFNFnQkXmZTDbCkrSjCFFV2SWfEeFmqGvMS9RBcDMiGiUfyf/wNfz7cJH/Ws+3Scef7laCjLAn2puPPw0PIc47cP7gPvid/w9V1s6b/Cyc7L8dvc60vaZPM+pT4tV7LfUbpf333hfS5Xbd9l+yH4/pGsFflGX346I+wVarD5F9mBjjRBl1nFJ5aRzrqj/CDZO5UZ5qtngv2i0+o93AAAzAAAwcKQOnI9xYC/XiIDkhFpNasVCQ6crAG0SCLDz0TMD9pKUjXVowiMm8JUisVm56wWLb3dwj6mpPrJp7ig/t9MVHk+nGFggdPvL5WnaP+CnYk65FMaxa5IR8qs/FZrnoMcsraTfxQ8zffL7PVvluYstwzy6EmyJ0jNZjTKzIdkixRYgelXhydMKNOKqV6zrmi7Hv8331a++Omyza1KJLnU98n0WbckSqxDHfr0Wf+H2bvs27r29Q91ltvdg01w+qvKr7Jm0JZbZi+eQ9Je/OPqxnPMjPFpvakdfZh4kxrtg67p/Q7ycBR4xH+t4g3Fj/zWw87z4/cj9+ggEYgAEYgAEYgIGlMbBz4WZ+kiqFDZFeLBRkuuI4MVkeSaMnuB0TdWFHvn9EkJgWVGybmntEXe2GYdqUbdv6VdupP9s2mULKiJ9KzLytOo3+nOuj/aI/53QbvaY6Wg9l7s5vuUelxDNvzPrMiRJ9wo0QdKpy9LEk/VnwEO4bsUfvpqlEo5KHTqM/J7tGRabR3UfSB6W8qp7Ddz3PuMlHn6ZFm/jsm7EHDY8ciRJHqEbaq2l3Z9qZtncq/VMoc1PhprMP6xgP8tHRyaOUnX3Ypn5qxgwVS55x08mx8tvQfrkfX8AADMAADMAADBwPA+sLN2nSOz6hTTsaRnfdyMm1mNSKhYJMF6BKE2XxK2Sa6Ivvmolaxy+xouxBaJBb7GNgo815108bbD3hDp/9L6i1T3R5jc0+3zlftmX3Nz7DJz2+tOweW8DUdWruyyJKvesm1bf+lbu5b/M6xziMx63fd5vbMFbGdjtuVunhwfrhwNrOEaGkxEmKFkKgqcWTJJIIoShcv+nEUSIrnRdMqmNWQVi5YzycuN4lo0WZnO+dqjydZmU9+Lj2x4QvUl3mdzClB8TeG9/1EHfRTIs2q/SfpiZ3zjT/jSrtwrGel/PaZ+7bkxN3cvKVu1hiW9e9873V34r8rP5pCQ8nfuS2Hg96dtzkNNYD1qs+TIxxwn9TcTDGP3Fvj2g4lT/XxvpivocNGIABGIABGICBJTKwgXAjRY3mCEyYXKYJvXjuTF4wywmpmNSKRXpe2MvnFZhn/8N9Mp0QSbp+YU1b/4vN3t5YD6vMIsaYW9pl/f0iItRzbeHGNxqZV/R39mV/o9L2+nzMxc2cL0WMUvmNcNNvs7arsckqTyxgOn1g1SvHuo7LJnnv4J6thRtvQxIcxPNZagFkdJdJ9mGncBPqG4WPoaxafMn5+VedLj8DZ0gTBaLhOTJCEEq+lWl8HjHfIhRVYs5gU1tWFIqqssqzgFTaWV8m+9Nzbn669lR7XjiJLbfu3nDN39/edb8IdcvHoIw04nk2K5cFnpzXuNBz0X0VhJsT9+0nr7R2JZ92DUi63TRtRffT6/dNdh+X+vOmvIGbUfu1zb6di3xi/9T0NcIvcpwaLSsfnc19idGvijFOlDHUJaZRY1gl/jTl83yb7bgeiUPjZ9LhZxiAARiAARiAgYUwsJlwsxfj+yfOTLaGBQC+wBfnkgFjx82+/BCOrEzsutmXHXU5r3zyrTs5OXFffUB7qP1yNt7HZyuZYuFexmaYOhscEUfiCAMwAAMwAAPHxADCDRNdVFQYOH4GDijcrFbp2MpixJu04+avn7lXYPv42RYxTKx9/4S7JL5n4nVMEy9shVcYgAEYgAEYgIF1GUC4OeLJr7m9vtqyH45ViSMCZ6+B6KNW8SjZGkcOjjj+6zb2M53+oMKNb1dxQX3oXRAX/+SfbXPiTv508eCCxc7aZjqKabbt0t9tckTrCPtDf0QK0ebgbJ/pvpQxEb5gAAZgAAZgYJEMLFi4OcJJNZAvEnIm2bQlGIABGIABGIABGIABGIABGICBY2UA4QaxBbEFBmAABmAABmAABmAABmAABmAABmBgoQwg3Cw0MMeqBGI3KjYMwAAMwAAMwAAMwAAMwAAMwAAM7I4BhBuEG1RVGIABGIABGIABGIABGIABGIABGICBhTKAcLPQwKBO7k6dxJf4EgZgAAZgAAZgAAZgAAZgAAZg4FgZQLhBuEFVhQEYgAEYgAEYgAEYgAEYgAEYgAEYWCgDCDcLDcyxKoHYjYoNAzAAAzAAAzAAAzAAAzAAAzAAA7tjAOEG4QZVFQZgAAZgAAZgAAZgAAZgAAZgAAZgYKEMINwsNDCok7tTJ/ElvoQBGIABGIABGIABGIABGIABGDhWBhBuEG5QVWEABmAABmAABmAABmAABmAABmAABhbKAMLNQgNzrEogdqNiwwAMwAAMwAAMwAAMwAAMwAAMwMDuGEC4QbhBVYUBGIABGIABGIABGIABGIABGIABGFgoAwg3Cw0M6uTu1El8iS9hAAZgAAZgAAZgAAZgAAZgAAaOlQGEG4QbVFUYgAEYgAEYgAEYgAEYgAEYgAEYgIGFMoBws9DAHKsSiN2o2DAAAzAAAzAAAzAAAzAAAzAAAzCwOwYQbhBuUFVhAAZgAAZgAAZgAAZgAAZgAAZgAAYWygDCzUIDgzq5O3USX+JLGIABGIABGIABGIABGIABGICBY2UA4QbhBlUVBmAABmAABmAABmAABmAABmAABmBgoQwg3Cw0MMeqBGI3KjYMwAAMwAAMwAAMwAAMwAAMwAAM7I4BhBuEG1RVGIABGIABGIABGIABGIABGIABGICBhTKAcLPQwKBO7k6dxJf4EgZgAAZgAAZgAAZgAAZgAAZg4FgZQLhBuEFVhQEYgAEYgAEYgAEYgAEYgAEYgAEYWCgDCDcLDcyxKoHYjYoNAzAAAzAAAzAAAzAAAzAAAzAAA7tjAOEG4QZVFQZgAAZgAAZgAAZgAAZgAAZgAAZgYKEMINwsNDCok7tTJ/ElvoQBGIABGIABGIABGIABGIABGDhWBhBuEG5QVWEABmAABmAABmAABmAABmAABmAABhbKAMLNQgNzrEogdqNiwwAMwAAMwAAMwAAMwAAMwAAMwMDuGEC4QbhBVYUBGIABGIABGIABGIABGIABGIABGFgoAwg3Cw0M6uTu1El8iS9hAAZgAAZgAAZgAAZgAAZgAAaOlQGEG4QbVFUYgAEYgAEYgAEYgAEYgAEYgAEYgIGFMoBws9DAHKsSKO3+J/fv//0r95tPf+V++TLqrvQN/sAfMAADMAADMAADMAADMAADMAAD8wxsINz8zP3y039zzwXBIy7MX3v7nzZT5v71X9xrn8aFvV/c/6bkO2/46QQ3CQ3v/myz+iACKb8h3JwOp4dqH5RLPGEABmAABmAABmAABmAABmBg3wysL9wEsSULN17E2Ww3xTNv/6exE+Nn7pf//S/umYMJIAg3+waQ8uj0YAAGYAAGYAAGYAAGYAAGYAAGYGCcgc2EmyKubCjcpJ02G+/UOTVhB+GGxjLeWPANvoEBGIABGIABGIABGIABGIABGNg3A/3CTXOsqT7itN4xp7jbJu/aGQ96SBdEoigQxeNUv3KN4KNtK8JSnbfMQzx3Rd8vjm+1O4qee1fWfePnt7z8b2HXUa6XPCo2LiLF8qX/5mzq9uWkTcmfo/7KNg1HpGLd/tP9+7/WsfDvYxofy7z7KqbNeQzp5fXK92sfadN2/cr9xmJF+0CVE3ztvxPprDq2zP1G5ZX9MDDQ8tYbu9ZPlk2DX/fd2VAevocBGIABGIABGIABGIABGICB9RnoF27SLpdhEblKC9d2oT0XiLDwtRbMaidNvRAt4khYLFcLUv15tXJt/n7BLu2MeVf5hLLTwr5ZXGfHGteTiFHsU3UY9YW/T5ST8q78YtsYxYBBvOqzqcuXHTatUn2H8pO/x55PZMQn+iTZ7UWy4ockdJTPqyTq1HFq04z6WMWi5SLHdXiNfqpZaf0b8vF2l1i1sSuCTFWX1k6jLkkMqv3bFbtRPw91a8vnGj6BARiAARiAARiAARiAARiAgaUzsJlwkxejYbFYL3L7At6zgPaOM4ULIZTEBXO9yA0OD2nqxb5hl8gnX28X6SKAI/UN9ck+UWKBuH/mWisaaJEmi2VV3Tptmvdl9oF8bWyyBALru1zX0Wu2rzUb+rP3p/XdvJ/t8uR90d+NCKd8bJXf+GllxC77JL2290Tf6/x7YjeWl6yfjC3X8AcMwAAMwAAMwAAMwAAMwAAMLJ+BtYWbsKhMIkVYLJZdB/2V1QvTMVDmF6Npx4I62pSPFtJEgQAAIABJREFUnYgFeFh8V8ds0j0iTTq+M+wAkXWK9rR5hPI29UNjuxTCtK9q/3u/9do078tY15D/lE1jO27G6r+lcBPtroSqDkFkjCdxtMmyN9Ut8yNfBxt0TIY4yNiJ2BjCno5lsVsJRX2xq9vCYGvJU4lGfC/bNv7AHzAAAzAAAzAAAzAAAzAAA0tloFu4sRf0g4jR7HqZWCj2LUSzKCEXw9KR87saQvok2ggbN9hx02u3tNGGP/pTLrDN/IOdOV2sby02mfcYvu9J12dTLRDk+E/EaEvhRogtWVAyRJAen5c0QqCpbDeZaOMX/KSEn0n/Jv60wBfyseqykXCT7Uw7i0xhMqfhtbBgtBWuwQcMwAAMwAAMwAAMwAAMwMCSGOgWbqLRcVGYhYPRhefcYigtkIWQYtwzuRgO6XuOv4wIQOYifSa/URFiXajtcuz6xrTBV758JRhEYSMLO+N22HnX6ftsCvloG4zYFchHfWaXJ0WRqu5TZWx6rWGgTwiUNkYfzvu3PeY2do/Ofyxd8bFZf9u/0/fUPPAeX8EADMAADMAADMAADMAADMDAEhhYU7ipd3xst6gOi9NP9X/Q+Zn7ZSUKdC1YgzBg/KepejGrxYO0YPc7ILIIlYMR7ap2YdT55KNUYw/iFWmnAbcX534HS1t28MN//4v793eteqYFunFfrpN/7fFlj009+dTljgtLtrAgbbDTiPzX8Hlzn+ai+Knlor5X2hjj3OOXJk3msN51k3iuuWzu66pznwhV14v3020W/+AfGIABGIABGIABGIABGICBQzCwgXCTd3dsJ9yEyqZF6vAsESladC9Ym3zq//gTwQqL7XzU5lNfh1qEquHLQkg+BqQX8e11SwCaD2Ysv9TdC1ahHtIHMZ+c1rrmbZ+3qc+XuZxUd9MmuyzpA5VP8Xv9H6RSPrVoYT14OIsbdR7h/Zgv6ljW7y2bMst1uixyDfEPMars7BJuTLstm7VdrU09sZN8R9vndrTNMyr9Qnr8AQMwAAMwAAMwAAMwAAMwAAP7Z2BN4Wb/BgLFsnxuiRY+RlE4sISJbeyPokYrQCSxoxJT4GQbP3Mv/MAADMAADMAADMAADMAADMDAUhlAuOk6dgLAEeC0S6Y6zjb9/ZZ+S7tWGuFm7Hti6Zba0WDXlm0BtmEbBmAABmAABmAABmAABs4tAwg3wL8m/PpoTzpSdFq7X6xjcMaziRAGEAZgAAZgAAZgAAZgAAZgAAZgAAbOIgMINwg3awo3dARnsSOgTnANAzAAAzAAAzAAAzAAAzAAA8tkAOEG4QbhBgZgAAZgAAZgAAZgAAZgAAZgAAZgYKEMINwsNDAonctUOokLcYEBGIABGIABGIABGIABGIABGNgnAwg3CDeoqjAAAzAAAzAAAzAAAzAAAzAAAzAAAwtlAOFmoYHZp3pHWajFMAADMAADMAADMAADMAADMAADMLBMBhBuEG5QVWEABmAABmAABmAABmAABmAABmAABhbKAMLNQgOD0rlMpZO4EBcYgAEYgAEYgAEYgAEYgAEYgIF9MoBwg3CDqgoDMAADMAADMAADMAADMAADMAADMLBQBhButg7Mdffeg0fuyheXgHxrX6La7lO1Pc9lPf3x5+6lOzfdS1++TbvtabcfPu7cvcfdjSbt/+f+32//7u6Xv//rPmzS0K7Pc1tbt+7PffHQXX3wyF39+jptk7YEA3th4JJ754dHod29d/kc9tf//Ed3t4xhf3f3/+uP7g3t9zefcD+ZY+A59Jf2DZ/pp2Bgbwwg3GwNG8LNuhNz0h/DQP+2e94LG3duuucvHoO969m4H+Fm8GEQiZI/l+DTZ7686V765n33dE//FyasF9w/PrR8HIWb//e/rGt8t/u+Li2wzrCoMSvcvPWdu/LgkZteYC7VT3G+cPXBQ/fOW7SP3bePU/JpF3OnVHZPH711mg7h5vJ9N8vtAv308tdRkApicMePrG/8x//Yws1q5W7cujDyA8Yxxx7bj6Yf2rqdE+uzEGuEm60bAsLNWWgI1EF16Bc/Cgv7Z/0Cn10pWyvpQSjqFUq27pNULI38+oWbJ90/7l1wP117asQHCDf77TuWKkjMM7czP3UtDpfnp7iAvO/eCTuKEG52xoPRv+087y7m9tgG9lFnXcYRCjdBBP7hO/dcrkuow7ToOyXcrFZPudvfX3Du1pMj4+EZZyD7kVfiDwMHYwDhZmv4EG52PknaOiYMntvGJCzsvWDjBZw7H7lniMlWnfSxCjfhF8bvn3CXRuOPcLNtW1vv/uUJEuvZv4O+uWsRvSw/hQVk2iUVdxQh3Oydm9E+rIPJLuY68tnGhkPfe4TCTcvYfL8wLdys3GpyB+oZZ+DQDFL+VvPQtj3A6zH6ZH3hJinWedvh1Qf33culMY13ivnXpiHtyuktjHrr86CW5+3Fcctj8zyZSZsSmGngHezO2ycN+/35+vBnT6603T5tY1Pxid0wQh5+Iids1+XFenu/xMletqu2OeavbdK+9HDKPHxeuryVsieWJ/KyBu9mUhM5CD6ZrJ9R3sZHACQjIX5GXtN+GuyWvmr9LeNm+CnEX9uk/T2UJ/PT6WyGTq/DiUd84hGp+n2yI4g5n7tnX1V2vfq+e+HOTffCxy8Og0tIG49cmc+UKcLQi+7ZbybSrdpjR+0RrjZNPKI02FqOSKVjS8LW1GalaJVtGvIofk/11cegLKFrXLiJ9fZ2SNukWNZlkxWXZGMdy9beWMfWF3G3jX1EKsd+RrgJ7d+3H9kWZH+5RjsQ/cnIc1B0GvNYjbSn6S+aPs3XN95T2949Runxp/4VeGasCLzp+8sYpfuefl/KPu6Ru6ps6hujBr/EMTPaMzyfJttzvTxDw/uvlF310eW7VLfaz/b4lcoK6VMf3e2nyO/0eJDGzOAXyYu2rfQJHbGM9TzdPr4vdrFO+5xf6BjrOUiwW3EY76nH4N3aPRW71l6DuWqsn/dlbA91W5Es5fZStZGa75qvyX4u+2jg1tuWeR/K1Pa0XOZ7apvL+xSrfj/5djdX5uCD3c+LUtmKsZqBWeEmH5ma/EEj9i91vrzHJzAAA7tgYD3hxk+KqolW6YCrTjB24Lrzj4NHM1jUeaUJVy0S1INB+T4MVlX+HTatUt5D+XkAaycDdZo4aFRl5QGnqq81me8JzDAYDjbE74bPOe8wSJYy08BTfKc/r1yub/GZH+y13+oJQH5vxKCpi5VPc1+ySU04Qv1KPbKQVNfXqEu2bfK15z4jzZTdxb9p4lM+j/hX22cwl3ke4tLnpyYGuqxdfy5iSuxki2hQykkCiTpCFYWHQXDQn1erJM7U91XCThEOhNjgbfD3Dfl6f8S8azGltalNUw8aMX0ps9Rt5UJ9vbBTjjYlu8vnlVsZIlW8T9qZYxdsqe8v5aW8fXnFL21dik3V7qemvFnhZqh/uNe0Z0izCg8kfszdfrP6rtidv+sRbpS4kBYc67aD2H5m+oumTWc761ejL9D1MvPR41juw6z6VeOG0WfqvjBzMv86Z3tnn3L5vvqxoe3nyhhV+uyUd/nsfdpvj493iOEPD+M8wvBLrH/rZ+EXMzZ1fNewa6Zfz322H4MLr6N2axvszzHPig/N3g4+l9hVP6zF7+r2k2Lux+kSUx1P/Xlk/OvxSUcaq1207X6Hdvf6epa5Hpv8vFPFPfikYiu3Jx+TwmbKu3weiYGoS7Ynluf9esW3uyKa1hwkTufiM3fdl9/pp6559sz8UfQJou52u6v7lsG3bdoe4SaOjdbD+tv8NrOTfPAbDMCAzcB6wo3ROY4NqpMdcxgA2oEjDNrV4GROcGYHhjyZrvK3Bhz1XSirTF6ys+KkpdRF3VMPBCWN4SMLvnYSZQ16xoC9SqJTtnUtX1Y+sew065d9kV6tNE1M0mQv25jKkqzEupXJcLZnpD6WD4fvYl6TMRjJVzJnTFK1v72dlg+y/ek15Kvq3y5yevyk/K/KiT543V27/aP78Uf77y+XevIY0oRFfRERskgiBYl5USaKD82uGCUKxaNY+gHI46JKibkWd/Rn7yfru+K/8TIsUaOpryWSWN+l8maFm8rfvo7ahvC5Em2CH3T9rPJ1mmSPzr/4tfhn5S5de8y52V8V+4Qb2c51O+tpB539RUfbzIL4ZH/R9Gm+fbT9zPwYFevWlBXyV4u4yvdWPOJ32ndDuxXXVd8j+159T/ys+yz92eff5tP6RNouYyv8NRqrmTzN2Og6zfipazzI9VVx6ipf2zN8Fj7oivlwr/Tt+PchdpVoE+5r7I5+1otYEfe1/DQ9v2jZae0XZSfftPftzu5ef/YKEpO+NGOtWbe5bfwy2nayT6WPah5af6Z75vKcu+7r1zCW7YmvoWzVN+V50dBHyj4jx2jUbtOvstycR/SDas/q/i7hhuNSw65q5b/sa15tBvELftmWgbWFm9jx1dtF/Xs5YOtBJnxuBBmdR/pcdeq9HfWsTWkwGQYGJX7kxXlQ+A27ku32oKMH3j4otY9iIHVe+nObd/SRYbP4Fc3flwbyUMexgSsNmMkPcrGVyrYG72awticfAtZ0T9lyK3w/Zl9b/5yn8EPFmnldlDX1a2Msr43VnJ/i9Zo3YUdhvMNPex8UDUHDWvzr78LnagdMum4fy6nSWWKDVeeQLh9bGl4HYSjaPexasQWnHIdVOno1uuNG7UZphJtUv/r+KTFkJ8KNsqmpg+VLHafk2ylbs4/mn2/j20ePcNO2Z9mmOtpBd38x1zZjm57rL+wFSNsfx3zk+Jf9F1/rfrftp80+1uK/fDfnq7nruQ+Vfir9cOmb2jHS18eq77QvpT3ifmssCfVs/Sx82ow3uU71qyxX3F/q0cZD7m6166vzWvdz9EHbJtbNZyq9bF/ZL9qv+nNON7yK2I6Omz59zflY3ebTWHYLZnr4WCO+Uz4U12aZm/dlyG+kHxvmCja3rV9k+237EWlPfX/rzxTv0fbYed3HZsZPwQ7NUf5c5m22D0Q8Sn84sDp3PbM8+Nq+F+HG9sucf7mO32BgPwysJdzETlcOyuYgEDrvnC4OIPXAYt5jdMQ96fpsqicMebImJ9v1wDYGX7CnmtjGdHKAHLtXf2+Xp301n3ePj2TZcwN+BC/6NfpKDHTW4N4M1h0Db3PPjoAP9qUYV7Hq85Nttx2rKT/FfITfEt+SIbs8Ga8d+cVoX2Y5IwJJEGCsXSHpu0aYGBEMmjItsUHbmmyqRZJ2N0115Kj82+1KINJ5bivcGM/csZ5tk+vb+KfYk+y2fFsJNbbQEsWqIl5ZvhyJg52fZG13O27yWDDkH9rUOhP1DfqL0T6s+D7vnmv7C3sB0vbH8/1Ke09mYrPXuT5j7rqPQUrT84NL1Yd6eyfra/a90h5xvzWWhNjM+KyLBVmu9rWwo+ZBve9Np/Of+hzzbNvE1D3rXrPHrOjXYS424+e5eCtfRRszW7FNDWUNbX/gr01j2d3G4DTsru0z3s8yN29T7lPkrhx9n82t5ZfMhN3PyXzr+1t/pvqOtsfO656HGT/VdmT721fbB206I04mk7nfqo+fjd/bL9zMHSMeL2ObunAvfoWB883AGsKN3Znag0BMGxaufjBQk7+eoyYeTDvvOmB9NoV8tA2qg58va8SeNFBZi/SpxmUOYCGvekInB18zv7nBVtVzyMP23XA9+rmx0yqvGax78u6o26jtNQMj77Wd+rOZt2134wPjXp1Gf45+1fnrzyN1McqTcdrdUamxBX2z48TbFIQCf4Qqig9FQAj2Gjt3rHpYYoNKZ5atBYliS68Px+2zfKBtGBdi7PLH028h3AQfVOKU5Uvtp+Rbq46SqZXb3TNu6j7N+ydyP/SZPe1g8/7CbosqTrp/aPo0n761YX7c6KmbskXxL+Myl9/cdbsevgztJ/3Zp5mvbxbDcsylPeJ+7fNS79bPwgdmbLQPZbnifl/OaNkyH2FvsU+mafKeSRfzzP7ZLq+xsq3YxUV1Xe6Mn9fwU2vHjP+Dj9o0lt1tDE7T7pF4zDK3qU36vtYn3reWX7TPZRqZb32t9Weq81ybmLvuYzrjp9GyRZuxfaDr2/052N0n2vg8u4Sb8Pw3nnHTHQMR35E2RhqOn8FAFwNrCDft4BE7Yf+ridy94htzuPbDd+4d/1C0Ly4pY1LHbNxXdwQ9nXw9IJVyw9bLwaaefPKkvBGZapDSoFTqkz777dXluzr9xHttdym//ArtOzc5+Na+Gd73+XJInzvNNfKubdIDc+WD4de1voE38zPcl23b/rWNeY+fbLvbWGn7jPvSZKHmItpUT5yN+yaYaWOo7dj2cxQRxM6WbE8QBexn0Tz/sf9vUvIZON7WKHboe5SNltiQy8yvOk0SI/wuoCIW6TT53tHXHQg3Rp3HYrR74SbaXx8Na3YhWX5K/oixqUQf00/xv0r9dO0p1X/XMVz/qFRoT6Lv72sHm/UX6+Q9jBlt3xv7S93Xt/1M7Zv03ugLxjjp+b71X11mT33bNDHP+thoO95723rqK9PIssS10YXg3NiUYlGPSwa/XX4SHNZ+jO+FvUYZPfHSaWKe9Tigy73ovjo5cScn37rPXtPX+j6HuosfqyyfzfnZl5XiN+MnXce2/Vh2t+Vrf8fPeo7Z3teWv6ndlp3+O8t/ddoOm/TcKecp5o+yveR6tfGsy/bv9X3Snvp+7eNcxqyYmeyv5zTl3tI2+vw0Oc9u6qLrusbnPD+d6SvqevQIN33HiNews/iPe+pY8B4eYKBlYC3hpgxe+UyqnxiEyVc94c2FpA58dMDPA2vcLpvP2NeL+NEBRnRyuZyUj2mTXZYvsy6vqV+op5pgpUl4tNfXO+Y9PZhlnwyvcVIp697mIQffcYDt+tV16ylvmCRVdhkDnkznfRDtHMpL9hj36jrIvFK5HfeJfPLgnLlUwt2Qds5Ptt31pMfn1W1zY5duJ3Z5g70DL3v5bmR3RizbEAoqccYUe6rr4lk39bGgTsEl7BARR6CiPUW4yQ/0LWmG5+DUtsl8hjT1MSdrN0oUOmpxKu2UMcobbEo+m0yzxo4blU9dr8xHFsuiv729rZ9yWu0LK78wQb039ctij3BT9Se+bYoFpWe8vx3Mtb2566HuTbv09um2mXdlZNv9OBDtrPvpWJ5xrxijdF4pz8YPve09+avq79bue7UPvr5efmx5Ltmu+z3vu6a+Op+m75WxFfcr4cYao4ZxVvmmKdeKwZSfKu4qP+o5gbBXx3Sdz429mStrJ8Ar7rO/euHmxJ386eKEaKp8Utlj+bLmNvYB+51f9NmkYubnAs0cc3d2576w67WJYc1cn02RpyH2712O9R1iI9tLtku3RZ1PaCdi3iTtqe+XTMd0sZ0NdrX5JdbE/Nfqy4ddN0OetZ98PlaZ9Tzb9kH2Rf+rYmmindd5zgo3PJh4oz6p9jHvx/tufINv5hhYU7g5TofWg1btkDiR0IPKfuo4ZlNtH+/3Ewv8fPx+boWVWKe+nSXr198SdzxHUQypBZ7187Z4HCvPSrvb7+Z23fQIN/WkfDf+2G0dsQl/LoyBD74Kws23n7yy0SKJ+cXC4lmJarS1ZcdmWrh5yt3+/oJzt57cqF0S+2XHnvgQn2Ng4BwIN0l1b37dHPt+P+AysdqPn4+hEWLj9iyMCSZj32/n87RLpnp4cMxv7Psd1a8pb/t8u/wQzvNfcPaRKYSbLh+ycGOh081A3nHzlbvYfY/sC5hfSH/QRvFHLwNTws38DlT83Otn0sEKDGzGwDkQbrxjrK2Z1hblzZxY4Gu20qqtp2GrZvz1mYnVnK9HYta53bXEZMOJL/fPxWdp10eOLp2a2DFyDKo+BrZD9g634ybFefRhjFG4uf/bv7v493/dh3W91XEY2pVuN/Rzx8vE7mP3yiffxiNSf/3MvVK3ozXfM7/Q7Ux9XmOudrx8qjqvydBi630asfvnP7q7ZQz7u7v/X390b2h/hSNSU8eGz6i/tR/4zI8QMHBQBs6JcEOHuthBmA7goB0AXNA3wAAMwAAMwAAMwAAMwAAMwMCyGUC4QThAOIABGIABGIABGIABGIABGIABGIABGFgoAwg3Cw0MiueyFU/iQ3xgAAZgAAZgAAZgAAZgAAZgAAb2wQDCDcINqioMwAAMwAAMwAAMwAAMwAAMwAAMwMBCGUC4WWhg9qHaUQbqMAzAAAzAAAzAAAzAAAzAAAzAAAwsmwGEG4QbVFUYgAEYgAEYgAEYgAEYgAEYgAEYgIGFMoBws9DAoHguW/EkPsQHBmAABmAABmAABmAABmAABmBgHwwg3CDcoKrCAAzAAAzAAAzAAAzAAAzAAAzAAAwslAGEm60Dc9299+CRu/LFJSDf2peotftQaylj35y96J795qZ76c5N9/zFfZd9nOXduHXBuVtPtn3qP//R3f3t3939/Pdff3Rv0O+0fsIn+AQGYAAG3Bv/8T/DePHbv7u7//G/Wy4+fNy5759wl/BX6xt8gk9gYFEMINxsDeQWws1b37krDx659y4f5+JqJwLA5fvu6oOH7p23zrEPtmbw+H339MefB2HjpW/ed0+fOX/sSbh59X33wp0oEHmRaPj73D376iEZSfX/8u2uwe/Stcecu/e4u2FxEISb/3H/558n6kO/6l7++pG7+sN37jnLh3zXxeFOxreNfH3JvfPDI3d1L3ODVNbX1xfuk4n2vpGPq/yYgxxp7Id24tvKfHv53+7//NeIcLN6yt3+/gLizbZtifuPtC1V/SExXHwMEW62hhThZqsJLpOmxXcSW8W3q33Fhf3zH3vh4dAiw9kYwJ758qZ7qVMo2Vd8u+zxv3zee8zdfnMkDgg3Xf0Fws0IP1390eHufe6Lh/GHjC/8Dxr7+FEH4WbFHKSrTzn9cWK9dhf6uEpwLG1n9EfAKeHGl/2k+8e9C+6na08dpT+WFh/sWY9n/IW/ehlAuNl6Iodw0wubmY5JE5OEsFPECzZRwHnh4xfxyZb90nEKNx0TZ4SbrraBcHOEk0A/FuZdUmFcRLgx5wxb9o1NnsxBuvqUxm+7jsPW+c3NxeeEm5Vbzf1wsLWNR9gvUecz0j5gb/l9WF+M1hdu0oQib028+uC+e7k07PFfb8JEUqRdxe3caYuj9etSUNDDRCZ2yLnM5nkykzYlR6Tt8zmP4dWwv9hkH+GJdYlbM3M+jU3FJ20g4i8D8v6cj/Snv1dvB61titeufHG9bK32dpT8y68ROV11LdSxrvuIn/JEstQnxsIf7yrlmHlpu+VzgCwfFh9UZVoLkFhubXuvTfPMdTfshjlrkq19UMdu5VaBSf+dSlfiNrAjfe3ZUXmtdDweuas6n2Cz99t8ed1+KFwMtq57bzgmlY5I1e9jPuPHbII4cecj90xlQ/xuOCaknykz5P+2e746TtSIRRc/qo4a+fxkOcG20aNJOW2yvZRj7SYaxKpyXCykz3kMfpXXhzpaO1lGhRslkpXjVGJ3Tp9NoQx1tC3amGwf9U+0XccmTppHjkjlGE8IN20bqfvYur/wPlVtQLSneG2v/Wp325Rjoe8zh6O27bXSp4rnsKW6q/6h6Wu7bZry5cBvT7/QxrDt52K/WcW2Gi9CGcVu6Y92jNZ228fLGpuU3+KOjR33q6EOdWzX8+Osr0fnQ9GvA1OxXD1e19eDf374zr0cdgslH5b8c7vLbYo5yJQvZ+OW+0H/mhip23gdl5iXZly1px3PQRqbdNtc9c/V1vJF8Etq77p9Fp91CDf5yJT1fLWSz47bIvkijMAADKzBwHrCje/kRaeYBoWqc46THDU4pM56mDil++q80kBfDzz1hKl8HwarKv8Om/JEbyg/L+DzpMJ3xLHTr9O0W2jb+pr39QbAqLMcrOZsGgZl7584gXoYYyT8NKQrv+jlhUsVu7a+yU91muSnMFko37fxfPnrKkbeH2MTUWFnOyA2i4kiULSxm7aptTFzUdjaWdw6eUrx93YXGyw/zfjIMxMng4ZPSoyGGPjyCuezDLYxkYxue30QCUK+RVgY8o1igBY9ovAyCC5JJKkFiCQc1AJBLX6U74NIU+Xv76vzWaW8a5Ei5T2Uv3KWkFR8pcsorKW8vVhTykyiUvm8cq0P2jSlrFWypbq/XEt2iwclJ5Gq+CPX19tU6tz6YFa40XW07ClpVi48kHjuAZETwk2p4yzTC+xXU7ufbpu+D6vbeBZrVV+b+4O67Vd+LqJVPf5a93TZNOfLoR2X+Ahbqusd/VzXGFXsHvxizUussUXbeLB+NdWhjAtjPtv6e2NcFHka11X7KvM0z1O49tBdCZzWbKR8/I88hcv0Xfmcx6ghbj4ebZxivtPjvb9P5sMcxPBviuUu5iBtG8sxr/usvtjpdtj1OdWlzG0Ex76f6RFuVi48Y21uHGryrvoxrrEIhwEYOEUG1hNuDENiZ912zKLz1BOy8Lm+J3Z6YYCuJpPtQJB3KVQL3R6bdPn+HvVdKKueQIR848BT6qLuiYNJPTlZs/NWEyA9OM3bJCc+wl/CVpmulGOkKXXNfk0TseHhwWngreLk82snV9oXI34SNuh77HxjPWt+OmwK5dT32MwV3+T6W68zNvs85mM3xnLrp7a+yk9jHGk7w2fddtryZn1w6S/uxx9/tP9uX3OvWz4b+y4ICZVostKCjK+r8Z0WQsLndpeK3nnSCiArt0pixiBcKP+usnBS5a/L9/Wzvsv1Hr1mCE5ZeCmiSRJiqs8+RpZwkmOn652/t+uq/duKNOF+VQer/Ojfyk+h/nYdi00hTXw45OzzBXYg3My3TdlfxvaXFoGiTcl0pT5Gmtl+ddO2OdL2p/vjZPdcH95h07wv27ZU/JTbRnqd7efSjw19vlSL9sZPtg+Ebc09qS4ivnkusYN+tfaH6ft+X4p61Pk272f8EOyYHjdF+0g+izGqx5YdtpX849Ecv01da3sqX+p4qvusttSrwh3DAAAgAElEQVSyGvPWu1zFvR2+7I7bjM0+n662aTLe+qmtb+W/4K/2nlCXJv8OPyn/9/kk8aV29ct7+4Qbjkvp2PJZcoQ/8MdhGVhbuAkDUTlKlLcry4FdDFZ5UV8NsnEQyPeq10o8mR8sovNmbRKTieqeqiw7j2Rbst0eCEcGrJ7BpxnUJAzzNslJl/CXGNhlutLoRPlpQG1iG30w/PLXWd+Ud/hVrMqzmXQLO2X9vZ2aJf+dqOfUpKGKQbxHsZbtqjgovqnubb/LkwTtm8H++dj1Czd5V1f0pVqQeDtHJoT5vhK7GV+39Rzqc1rXrIW+JQjo77QwEfOpjg+V40n1rhFDgBmJc8i/ziO8rwSJsR03SlwpflOiR/k+725Ru1F0fVvBSYstMlbaP6U8U6TSeY0ILepebaMvw4rnaqSOxaYQg47n2/h0OxBu5tum7C9FfyPakExX6rNJvyrylbEs+Za23vZjpY0nnq1+c8jHtru5p8OmeV9O1CXZOthVj0FGP5cX7LnfVq/FB5bdIibJppAu+dIaA8J1ObeJtkY7J8tr6raOH3KfrsWgNfPossFmIcekZ9wU7UP4uZ4rjJRjpNdzhvy5+NvaHW3VNeWd78+vzEGqY9TC/5mvOm7yu+hDo22GfIzvG7HVyjuXsflr7ocGRqy8EG5yu+bV4oPv4OI4GFhLuImdo+ycxaCdB0/RiatJjrnwtp1l5p3LSK99NkUb8sAdX+WELORjTd6q8oI9TZotBiJz0Bx8MW+TnAwJf4nJq0xXGqcRp2ZSU9U/3tdR31Qv+evTyH3CzqHu2UbLB6Kewb6RvCvb23vasnKZ67xG/uLkv/adZXeTrxn/qbqkOKYFS5mkHHKBUfm4qd/stSQQNAKJF2DqXTh5V0z+LgoN9Q4ZWzBoY9yTLoo2uayYR3tftKE8I0YLO7ruWwo3cTePEqaU2FP7//SEm8EvuxVu9rfjZr5tyv5S9B2iv5Lpiv836VdFvi23Ie+Qpjrm6Bkz+xBb8C725WOy1Y8p/lrjlw6bmns09xt9Hunnehfslt0jfgo+SdeaeUHIR84Tog9jHy37XzkvGnw9Ess5v6RYlzLm0m98fYThlJ9gf6QMkUb4uR7LRsoJ6bPv6vRTfutIl2MqGB+5z+KlqqvFuKhzSDuSd5VPe89UHfuvBfvSnOBgcxARx9r2GPfBrnk/rdt2cv2HMury6/frCDczz1qr4rquvaSvY8J7eICBdRlYQ7ixB157MKo6az8oarFjZqDMlbDzroPcZ1PIR9ugOt75sqydHsPEeX7QqO1O78Ukp70+b5Osv0gvfCzTZf/KnRojaZSf8i6OyfqKsnO9RgZsM22+x1hMmMLfSN617TPlFJ/U96zxXk/uRCzG8jHj31EXvfAy88m/2uZJsfF5zK6573d1VErt4BhioHeAeB6iyBOeKeNFEL2zZVQYGVjy+bcCjLyeyxmeNxOv6/vCZ23DlN9G7bN3t0hRpKr7VBnVtVMRbkIdhl1H0kbbTzGmdh2HeMd79/WMm/m2KftCkV70IzJdqU9Ikxf8I2mqWIX7RL6ayfhZ2JHvH2n7uj8qtoX7bJuaeza1Kdu29au2U3+2/aSPQYe6j/hJ+EWn0Z9zfbRf9OecbpvXkOfhd9yYvlT1ElwKn9Vj2UjsQj3XbCs9Ap4Zk9qeih0z7XC9aRfMQYaHuxdhbMS3ggfv05F0iinRLieuRfaUmD2avk+44Rk3A/u9cSAdPoOB/TGwhnDTLqJzp9n+J6ThfO07X1udahrEJ8+jjgglqlPWg6plk5hYqPsH2OKA0ohMdfo0CBXRIn32v9SV7+r0s+9TmWXw04Gfs0lOhkQ9xWREpgt11nXxtoZ75urSMfCODNamnyw7Kr+JOpUJk9/hkid73mcdNmWxQ9yn/b3pZ8O/yaYenuSvqj110Wms9hTTiF1PgolN67rD+5QQMLTFtNBXwkgWS5798qarHwoc70v3WP/9qeJJCzBDmUO9tCAR7/G7XQbRoicfkfcOhBstJon8qzr673cu3BhHw7QPLD9lG4M9lf/y9+K151+x9hyVym3vmPrVnrap01Tjj+xD8thZibaKDz1uhs/+V/v6Bw5dnsojxi71M/V9ZrqhfYmYT6bV/VznGGXZ3YxJhj3NfQfsV4Mt08LNxT+duJOTE/ftJ69s9SDIGPt6PK19Y/mgvp5ZS/cLP9fxM8ZIa+xP9Z6eT9X5SlsKW8IOnyZxas3VLDsqLpmDWD5uYxA5qvucFHPRN7T3lZhVPu/6rouV2vYe4Sbu/HT8V6mt+pSu+K0bb9ITExgIDKwl3NSDX9hW7Dvk0Hlag34eKK1rvjPNEwJ5Xr+egOoB0+4McjnVWfXGJrssX4e6vKZ+YftpPRANE8dQ/yACxLynJxr14KHep0lDzE8LEj6tqp+wKdUrLVCEv4IPsu12/WXdk11pMBzsUZP5ZM9cfaMtQ2zfuzzhJ12mGOiV7b6uTXx7JwMqr7S92PTDRAeh6xZ8ZS4Sp2I37NaS5bd1KYuqZK8vz/K/TtekEUwoDifqa7e77e/XAkldThQBhmM58Vo+njQIKPU9ZbeMOnq1/pGqXE46muQFpEZkykKROr5056YbylP51HaVY072bpTGN0k4kUezpJiUHzzcpqn8aO5y0juc7LoN9cqxV+l8nRo/jaQVfspp4nNuJifNXcLN0LaGfkyPQ1NtM/UT++xXO9umbOO+f4/1kH1I9KdMq/sMWX/fV4R+re57O22aHqNybOdftb1j/Vz+gWGIrRqjLLsnFvJDPnm8lLZqu06vX5UxGexS9Ut99SuffBuEm5OTr9zFrfrvdlyUPLXXvW05jZh3CD/H+kR/Tech+vEQv2HuEPxQc8kcJD3nT/loAXOQZm7U2FQzIduZYGCW54m28sBux13/Varnx4NZ27apF/euxwH+wl/nj4E1hZvjdFCYeImBP9YjTsj0hP446zjdeOVCZDrtWaw/dSLmu2WgEVbSZK5rZ8naEz8trOS6JGGoiED5+21fbTFpLwzNTZx7hZu1fbyJz+hX98LEXmK5SfwPfc9F99XJiTv562fulcX7iLZCWzl0e5nbcdP5gPzFt7VD+5nyaeswcJoMnAPhJk0YGuFm7PuzCByTptNsROR9FtvMVJ2SsKGOcpUdP833U3l1XDOOKQXmxr7femJ5QOFmtXLhWTf3HnO33zR8g3DDdumt+Ta4OsI8846brz44hvowB2GecGhOp4SbdETq+yfcpSPsC2Dr0GxRPgzuj4FzINx4Z45sq2y2cW7p+ObYk9rKKo45bVnWWoMLk6bZTmWxsdsnJ5Q1y0lpdyPHoHa++yXFJBxBmjqWtcvYHVa48TEI4o31nIEg3Pzd3f9t+vuvP7o3Skx26YOevOhX59pLc3SiOu5ZjgI1P6r0+P540uijVqXetS/WmYu89pn71u+0OfnWffbasfiBtjLXVvJ/iDP5KKyMHQM6Fg6m7TyN/uKN//ifYbz47d/d3f/436347Xd6Itq0fjnY2DrNyWxbwm5ieYYZOCfCDZ0AHR0MwAAMwAAMwAAMwAAMwAAMwAAMwMDxMYBwc4ZVORrk8TVIYkbMYAAGYAAGYAAGYAAGYAAGYAAGagYQbhBu2FIHAzAAAzAAAzAAAzAAAzAAAzAAAzCwUAYQbhYamFpd4z1qKwzAAAzAAAzAAAzAAAzAAAzAAAycTwYQbhBuUFVhAAZgAAZgAAZgAAZgAAZgAAZgAAYWygDCzUIDg5J6PpVU4k7cYQAGYAAGYAAGYAAGYAAGYAAGagYQbhBuUFVhAAZgAAZgAAZgAAZgAAZgAAZgAAYWygDCzUIDU6trvEdthQEYgAEYgAEYgAEYgAEYgAEYgIHzyQDCDcINqioMwAAMwAAMwAAMwAAMwAAMwAAMwMBCGUC4WWhgUFLPp5JK3Ik7DMAADMAADMAADMAADMAADMBAzQDCDcINqioMwAAMwAAMwAAMwAAMwAAMwAAMwMBCGUC4WWhganWN96itMAADMAADMAADMAADMAADMAADMHA+GUC4QbhBVYUBGIABGIABGIABGIABGIABGIABGFgoAwg3Cw0MSur5VFKJO3GHARiAARiAARiAARiAARiAARioGUC4QbhBVYUBGIABGIABGIABGIABGIABGIABGFgoAwg3Cw1Mra7xHrUVBmAABmAABmAABmAABmAABmAABs4nAwg3CDeoqjAAAzAAAzAAAzAAAzAAAzAAAzAAAwtlAOFmoYFBST2fSipxJ+4wAAMwAAMwAAMwAAMwAAMwAAM1Awg3CDeoqjAAAzAAAzAAAzAAAzAAAzAAAzAAAwtlAOFmoYGp1TXeo7bCAAzAAAzAAAzAAAzAAAzAAAzAwPlkAOEG4QZVFQZgAAZgAAZgAAZgAAZgAAZgAAZgYKEMINwsNDAoqedTSSXuxB0GYAAGYAAGYAAGYAAGYAAGYKBmAOEG4QZVFQZgAAZgAAZgAAZgAAZgAAZgAAZgYKEMINwsNDC1usZ71FYYgAEYgAEYgAEYgAEYgAEYgAEYOJ8MINwg3KCqwgAMwAAMwAAMwAAMwAAMwAAMwAAMLJQBhJuFBgYl9XwqqcSduMMADMAADMAADMAADMAADMAADNQMINwg3KCqwgAMwAAMwAAMwAAMwAAMwAAMwAAMLJQBhJuFBqZW13iP2goDMAADMAADMAADMAADMAADMAAD55MBhBuEG1RVGIABGIABGIABGIABGIABGIABGICBhTKAcLPQwKCknk8llbgTdxiAARiAARiAARiAARiAARiAgZoBhBuEm1ZVffnf3G8+/ZX7zX//i3vmzPjnZ+6Xn/7Kvfb2P7X1PXgd/8n9+3//Kvj8ly/TQdUdFO/hAQZgAAZgAAZgAAZgAAZg4LwzsIFw4xfA/+aeC4vduODceDH8r//iXvMCQfnL+R4KzLSAfvdnp7y4jyLCUO+FLdpnhZsd+SnE/z/dv//rPuKNcBM6u9TmEIj2wRxlnPcBlvrTBmAABmAABmAABmAABnbBwPrCTVj4ZYElLoY3WQQ+8/Z/GjsMfuZ+edBdHjsSJGZ3cBh+yyLWqYtGu2g4O/ITws0pC4RGrBFu9u/z2f7AiBP3ECcYgAEYgAEYgAEYgAEYgIHEwGbCTRFXDAGiB660eNx4p05PGRul2ZEgMVv2iN/STpdNhLBdqHj9eezITwg3+++IEG727/PZ/gDhpr/vwVf4CgZgAAZgAAZgAAZg4Pwx0C/cpAWfPt4zfM67cOadGHfbzKcP6YJIFIWOXFYj+GjbirBU2yLz8HkVgUTfX45u2UeYnnu3Pt5V5dO9QBsRblbJRrHrJokkxSZ1tCjY7r9T6UQe0Q95l1P2428+VXnlI1K5LJ1Hl5+SHUYMmrgX2+s4Ge+1XUbeq+y7bLuuW7peszP4I7NoC1Ih3lWZ4bP3jbBL+bKLBRWzxmbvi5jG2z3Y6/nLNg/+ktd9msGm9lrNsM5roq34epW4Kfs1L8EHKo1hd8yvsqfyNYPSEF98gS9gAAZgAAZgAAZgAAZg4Hwy0C/cpIVoWADmhVVYuOpF37wj9UJ4DL56sVlEllDmsCCNi+fq82rl2vz94lHaGfOW9+VF8m/MBaivV1qE1teTmFHs61qwjwk3Kf/sX0NsaOpbiSnFhiQolM/eJu23STuNeor0M9fNsuI9tXAyCADjzLRxSmXXAkDyQZ13ZmfwQfR5TtNeH4mvwVPgKwhEA1Pxu+HzGNOj35s+q2zy5RXuDIFv9H7l21levX9lPZoY9DKXxbTCs7flZ+6XpR42l237VXUQLHJtlCn8xO4qGIABGIABGIABGIABGDgTDGwm3OSFV1gsykVezyKid2HWLBg9dGLhaYgBJY0WZdQCT+STryVRINdPQz5S31CfsXt0HuFzn3AT6i8Wvd5OVWezHlKk8DGJvuyN1YwfLAFL1LNTWAi2T8WprUfgS9XZ5knXYcgrpK92owzM6nsiFzr/eL/ypbJpyDOzNfM6Krz02dQd303s1PfozxXTWRjz9Tf9JDiJdavvGeI7xcWML0UZpF2bRfx3JgZ34k7bhwEYgAEYgAEYgIGzw8Dawk1YjCWRwhYW5p2jF8JjQM0vRpNAUI7HVMct6qNQfiESFsbyujguFRYr9iI52xftafMIR48agWXKD9HuYTdITivLjwvfkfKyUNS5iJZHieYWxdKOXP/hde56KxTV3JR8gu0Ttoxej+XHBX/9Pvsxvko+JSut7/09dr00r/pzrM8gDJX6rbMA3lK46Y6vyYv022xbMfPQ9bd9KX0jYzIc4YvM2zFStq7jY9IiSMAADMAADMAADMAADMAADBwhA93CzaSI8OmvXPOr+YQz5gWZauFdH4lp8tSLxZFFXRJthI3m4nN6sdlrt1ycWjZFu9uFqayPLRCo/Mx6yHykPamOSexqbfD5T/th/rreGeXtMQSaYLvxfY7z6PVo3ybCjb8nsmyVa9dbx0F/jv4di6mKV66bft1auMnlzMTX5CXfOwick23FzEMzZ/tSsqjvqezQ/uEzAywMwAAMwAAMwAAMwAAMwMA5ZaBbuIkLrrgYy4v9sIDNOz/WcWBa+InFoXH/vFDSszhsd3+EupiLz5n8RhfX6y447UV+rO8gKMzXXwsk2Y6eBfFUXaeu+TLmrkc7Ch/ebxYnIQZDfeWi3ucxUg8VO1tI0TbWeaVrjSio76nqUe2oMsubrUvMq61j+n6UrT6b2nzt++RRw9YmkznlbzuP2r+237ptNPqC9t7WdtLgExiAARiAARiAARiAARiAgbPIwJrCTVycReEmLgznxJcxp4XFrz7O5Bfq1QLZXETqRV1Y8M7s+NGL4rQQbY9KzT2XIy2GmwX/uo2j9mO8N9ZV1yOm+03lk8afelEd/NMuopv7xkSRcP/Ior/yfYyfes5LdT2Ul2Jj+Tlc7xA7Yjm1uJNsq31iMBD9Wd+nfZJ8q2KpRZnMaR0DnSYLTKY4pX0y9lkzWtLZsWht0Azq+ubrqd6WkObL1HZYbaWXuXyvKMt6OLHmPtvKa9tu8Qk+gQEYgAEYgAEYgAEYgIHzxsAGwk1eDMcF5abCTXB0tbCPz7eQQkCXcFMWm+pZMPXCvjwoNafxdYgL2Lx7aAh8WihXz82Radrro8JEWXzrhpVFg2yPf5V1H+yx0uYY9O+4KQJEVS8duywexVjUtlXllTq1fpB+8nVOaVQsSt3ywr6yaZyDyh4hBCTfNnlpf0Y/ijqXe+r6SX/79MEvVR16fFnqWPylGfCfZVnC76WOyYflc8xHCzdr2VTqnX0qfSXzMtpKul/G2/BvqLuuoywr+KnpB37laqGsz5eWf/kO38EADMAADMAADMAADMAADBw/A2sKN8dfYaDdZwyj6CDEkkkhY5+2bV6WFk1ganNf4jt8BwMwAAMwAAMwAAMwAAMwAAPTDCDcnAEhYamQn1WB46zWa6kcYdd0J45/8A8MwAAMwAAMwAAMwAAMnG0GEG4Qbnb8ZPLqaEx1vOgsdSQIN2e7UzxLrFIXWIUBGIABGIABGIABGICB42cA4QbhZsfCzfE3Cjo2YggDMAADMAADMAADMAADMAADMLAUBhBuEG4QbmAABmAABmAABmAABmAABmAABmAABhbKAMLNQgOzFGUPO1CZYQAGYAAGYAAGYAAGYAAGYAAGYOBwDCDcINygqsIADMAADMAADMAADMAADMAADMAADCyUAYSbhQYGNfNwaia+x/cwAAMwAAMwAAMwAAMwAAMwAANLYQDhBuEGVRUGYAAGYAAGYAAGYAAGYAAGYAAGYGChDCDcLDQwS1H2sAOVGQZgAAZgAAZgAAZgAAZgAAZgAAYOxwDCDcINqioMwAAMwAAMwAAMwAAMwAAMwAAMwMBCGdhauHnui4fu6oP77uVDV/DyfXf1wSN39Yfv3HMHtiX65FG058Ejd+WLS6fYAK679069jMMpi4tWdS9+5F66c9O99M377ukDM7c7P73tnr9z073w8YunyOwET28+4X6695i7/eZEmjPja+q4O27x5ba+fPnrZYyf29aD+2kLMAADMHBMDLCOgddj4rXD1g8fd+77J9ylU1ivnCPh5pJ754dH7urX1/e4IN1HZ7SPMjogPQU4V6soIgRxxAsk6e/5i4eyR5U7K9y86J795qZ76cu3t2Pu1ffdC3c+d8++qso/RZ8fRrh50v3j3gX307WntvPXqfhlH76nDCYvh2MA4eZwvof7dX1/iPncujaecvq3vnNXHjxy710+5XIYT5mPnDoDW6xjaAduFTYuPHTvvEVfsJyx9Cl3+/sLpyLenB3hZrZjOcRAv0VnNFuf3ED3UUYua9+vUbgRQk0QMXYghnT7d5s6I9z0d6Kpk7v1JJOkvbC5Ddfc28/18fgK4eZ4YnUW+VuvToeYzy2MDxaszBXOzFxhi3UM7QDhZrHt4HR+jEa4OdWAb9EZddu1jzIONWExhBvvl7TTRQg63f7aZ10Qbnon45euPebcvcfdjUXGcZ/MUFYvM6TbLSsIN7v1J3yepj8RblYsWBFuzsx8aYt1DO0A4WbJ7cAfmdrx4x/WF25SIwnPk/HPlAl/+hk3aVAt19UWrpCH/06lM44x6efFXH2g8srPtsll6TxMe7PdeZtp7DSsY1TbTWZnOiNtu/l8nmRbrp+u/6otY/BZjos9ydF1C5+9/4Rdyt97bSAjwk0+QiWOICWRpBypUkeLynEjlU7kESeaT3/8eTmWFY9nqbzyEalcls4j7wrK19VrFJySHcbzcWL5H7lnsq+L7TMTYW2XkXd7/EzVLfm2Pio1+CPbZAtSz3xZP+8npvH5DPf74245j7oucbfN6BGpwKNnWbYF+eyoyHj4bo5fcX3k+KROY25Jl/aEvrDuf8wJxUh7DW1f5ifrt3J5ol76XrO/qP069l71u75vsfLSPqjrtlq5/v5C1qvxU+C8tUkfAQj9Wo+fcruZfG1tqsvTfWNehMe+VfWJM36K/annV9VR+VP2u36Myv13FcfR8UymDfaXMSOPc1U+3jfa7jEOpvwY8qBtnu+2uUbfO8VSz7VR/uOcrm7Dvs1OtYPcn7wcntOY+sCS/9Ce+vs51b6buVq/n4Y5XJqrVv1zc61q56LPCG1T9VXNmNRvU9Nf6P6rJ34hTdv3js69q7rJ2A52S38Mcct9dmN311iu/JbmHt6G2fI6/CDzUONvE6Pcbye/Cb/vh7nsy8buHJ+1bIr10W3TzwuaOc+EL0dtCTZpDqb8lFm6Hh+nkewo+Ze65XSX5hko/UjbfqMvYyznedJ2Sx9ZPrTmhyFd1Yd4G2L9Kj+VsVyVWeqfOVTXm34up5t/LT7OHFl5zfmy2C37lZYlbbdqd4m1xiZd/1Keyk+nK+zu/jTBesJNMFhOApvgG0JC7DirjrAKROmMjbyb+4ojLCCSE0edN329rYcvY2hcueNa7zXe3wKUG03lkzKprxpS8lN9f4aq+E35u73u62HXXTfmoRMYbIjfDZ/Xq78Vp3W+GxNutOgR09ViQ9yVU4kSlZhSdupYO3fCd9V9k8zZAsbgo5nrZlmD4FHy6RBuojhS253KroWS5IPaT1lUKT5Rwk173cfPrpcl3MiHN6f7tKAUHkh8wf3jwxE2Ut/gB6TCfdNf1J3owKtmvG3nRttI7a6UZTJg3KfTmfm0fUJus239qv4h1Lf6nBclajAuzGhbqs/aJ9Y9PX4q/UWxIfmkfPbx7PBT6sPE5D3F1+r7Jv1U1dOqV/zO2zQw4r+L9a382/Bl16XHT/XCodRHs+E/i7HL8GW6p+SRGRACj+FvXZZV35yXiN1Ie6x9nPzUxqRqq5kBNaHWHHb50qhLG2fDB7XN/r2ZD22z9WX0yXTbTP6eiW+bdwdfOm7l81yMjesq5pG3JNyHaw/dldAvSA5KP1e1s/hd3YfIe0Jdmz6700+X76sFrBGDUYYrnzblW9z32dTVNktsKhua74y49KRRsSvjimeu9JuGn5r7DNtSmrpfzWwMc4CUty+v9JE9dTHKm41vyreUk/Jo4rlf5qJPqjHSGrfVemSyHYj6GXVpuDB86dPMxtjIW/hyaAM+3qGePzyM4/FIuoaBui7inmizHuvy2tKPm01ehWcvPNf+Hn5sGbgcY0P6qi0/z3mqPizYHYWm0hYa3875UpY72ecbfmrSG2mauhS7B1+1rCYRv46TwddYvz7EaIiBj924n6QfwomCHT6oeA3hxu6kooOG4Efo9X92ivdOV7IFQufdBFU43rZvuGfm+mjnPdRtyEsGZfz7tk4x7cj3qpE0gIb66noMeUXoBngHu/Q90X6dfwttT6do+OLSX9yPP/5o/92+5l4XcTPuL9f7hJsgLmgxIIkLRaRIosUgUPhyW8EnChXWrhDLTlvAGPw+dz2WLx5ebIk5s8JNW49gg6qzFFZyfbSNQ14hvflQZH1PzEvmn9LouFj1C1sJJ45JpY5ZDlaa6fRZdcyyD4ltReaTO+KqnRuDxRDT7Leh3bXXUhrVnmO69r5oo2q34t5Yt9J/5vYR0qj78rXRV+23XJ/6tc9Puv/w9ZP+9nm29dX+au+Jtuj85/30urt2e6Tf+fFH95dLdR3Ve+Fvf83wU5Omz09ZuJHcbeAXi0v9XfhcsZw4CL4sE0K7bO1vHSfzcyivFmks39E2Td81bdRgrknTx5wVy7ad2RzUtrb3xHYj8++Jr2pvTb3WvT7jq452IPqT1LZjHyv9EupaiTbBP6ovCHmpsSf3IUO/vbmfpL+Tr5QNddzCe903eJ839/TY1MdcU74ZY+lb856O2GXfDqKNxWUe26fHSNO3Tf8f7Z4sb4t5b2ODETudZt/M6fJ97PR3XTYZdeuZJ5ismEzLvmTeJtkGQvq880PYKtMVe4w0Q5uv22rNYQdP67QfYYOsvxUn/12sZzVXCHnosVy213lftmUXP+fZy/gAACAASURBVKn6NOWr67mNz/rSqvtYP1fmQIadzT0pjc6/w09NnXd8XGoN4SYGUE4+2+CHhhx+eUlbxOr32WmmgyQgseIJ7pBHDb3h9Kaj1WlSo8s2NJDoTiimb6Ax7muCVNJYdcqDp1Wfusz6vayLbDy1j3Sjy/fZddedrv5cx2A7P2Q71n2NIoIUW3weUjiIAsPwX6fyf58Kr/kYkxIxYt0GkWKIYfzOPCJV4prrIe0Y8ui9vkrHiAahKNQl25zLmxNuRq9H+6J4Vb///9s7m1ZbiizvO66Rgxo4EPaoeiI9KmgfHPSgSgt6ItJQM6tEKVHqE9igF+vhYnO7HTgoKbRsBKXx2pZgPyC0CIWCQglX6YEg6P0Q+gWMh3jNtSJWZEbunWefPPf+Bof9kvGyYq1frMz4n8jc2b74qoUvOf4PXOt7X8cetyncmGPR7S4+36ZOnMkvmlebcRWTlHfCfzlkXmryS2orlalzXm4znnhSnrPyymCeWz6B6Tle29+zL9vZvKYTj/5vj2Bi0E/a/7G+NZYlP4V2LP8FO6cLC6vtZmx5ziy9Sh8IFqQv6/7CZ7k4G/TT6M7R4AdhS4zzNP686JK5uI6B8nXdVrY92N2ef+q2hnzL3HTP134WnyVP4/7sba/P1w7GtVXoc4qpFcuaZ2+P4sWYg6Ed4/vIdGZzIPcuzcfVx+f7VOMS8ZA5T/lD5Wp93Wb5sl5ohjJ1P/lz8d+8zRMf+vxT8n2ev9lXymaRv/Nxa242dQZsSnWKHXlc4XVibrLfsCXbNMDcSOzyom5WSAl9al+28zEelzk1jyPYUXyumchljnvVNhW/lr68/+r+4mdp/7mZi3GR8a5tTGsoxYfIVWkeaL9mVtq2hn3bMJ3bjK/LftJzII4z5TY1h3S5Yp/qP46jxLTyxRS/wfF25l7Dq7JTj9/baeUwNU4/VxbaKO1UYypjLXmu7b/4SuSBzHisL7nK9Qd9admtYpLaC+Vmzq3heD6nZRv8a7SjxM7qT41L1k3vr4RwoxKQMQjLqU2ikvV0oisOVM7qTKpSZul4BW6w0QqitGvpfWdyhrYtUKONcVLK97ofnfimPmKC6re7dJKzJncDbfGntsmemKeW6Qk3WnDRgkGnz2HhJtdP4kR6Ps0aAWPyhS1wTMcP7qDs8uOStzslW7rCzNJxKdbI93mM8dUSbrzYEwUxw56ThZuqzaEdNy3XgddyshiY32be0b5QscknvHSiak6WeS70Tghmf9N8zX01J9Dcbnlt6+S6J70m++KJU+Q60+7WT1a+mB1Lx086jqKf6kQ623bxlajf+y7ZoeJpjjn6PZ5vjHxs1jH6D/21/MrYBR/k//Ilu9vxRnvKhVLgUsStLIr0d7Kf8D7Y3dpjxbOpW/u0MzYdU+bmoh9rvya2rsbcHIhvPb6TP8/32c6ddl6qMmou63xrzwuZG+yFURvzeZtj+VSm2uFj2qBsbsdnLsSaOgM2NXWMvo6JZ8rDgXGxZlBx6bZr2236KbURjjXn8tiOOhek8sGOYpdmoo3tqE/G46v6D77SeX1urJN9tp+m497uQZtkvPLivVx/xfGP2KTGVeJ7gn8X+Fy2SftI8afOb7pc8WHoP59PR8cxUC6NS6/bOvWUnS2Llg/UOH0cFtrw47XaKX4osWz7ny+T+YuiyrS+74y17seye46J7Nf6+im0o+dYtDvaUeyy+qttqj8vrXHq8gufV++4qRNcCKQ4yTQwWAaYTh0JUmfihD7mjonkVCUaDVRsw4/Rj6Meqy47AmdvTJ3vK7/Yk6Qep2wrHRPxiDbXdaLtdfv151A32JST0siYD+5wwpZR7WNbuIm3M02L/6Hbm5RAksehBSDddy4zJ77MHfP1l47HPsouG38bUb1DxbO9JNwYt3yFsVRjtgWu2kbpk3RMPicnzLW6jhhHuTXKLhOfPTTtMAp2Dj3jpmZwmqsxbjbjOqZyruT4jr2ac6PObXVCr+ZztKW1YTlnjoxtbBzaH6lOY2dro1XP8snyWNoLhF6duv1eucm2sVulzHYaH0TfBBv8OSMcr0/qY35aviCy41vbGT6XhUQn3jWDNaP+sznWZMNS+3V7Zn+xren8aY9vipsfy6Av6/5HLyZrO00ftDbUMdA2e7tHxtaJlTGWpv3GztbGpk7HJ8tjOXZuXrAPTD8t9FnH22hD+UP5Wfu4zkPB36H8dE5SbRl9xRgt2Bzq6b5zbPs29HZZt7Gc7JZ1jrcp23byax2r+rPpT9tu009V/bpM/TmOp27fjosa+9B1r92OaYNgzB+f8mnMJ+dlLvqjtkGNf/AfB6bdaf4ttV/3Fz6rudvmWrM/xYSOtSqvWNTlii2hTL426JRR/XkbbQ5Km7686juPq1PPLJvr2IKLGme3v6kNb1tTpxmXLq/Gs1i29l39udO2NfYFJoJddZn6c7a3br/+nMvNvF7iM25S8IUoEJJNrVolINXDfOoBmQ7qAKnqzpVZDnK0N08wG4IIplf+ppPyOvhku317oy2yj2S/vHAOgOiEHe2T9eo+4mf16wLGhVyJnegvfCc+5+SiFV85vot+3wo3UaT5wJVn1wQ+YrlHi2hg2FWJGDGmUqQw6oi2dX+5bEecEMzGXSuVUCGOBzvCc1/irV7mzp5F4eZg7I5JtkmfpH7kWGoRrH3uT/JtJd7UIlAcZ/urUkqISjGQ/cc4LDx13UiU7Vxenv++rzy/i3pex8L8vKZtmV96c9Oa07Je5ku8Grkg+k6UMW0fOG74d8RPbb7I/p0fS2xblEnnA5Vn0nhlnJp6W4039y8ffp3bDnZ86571vzxjiP4jfrIvwHRcal/mdmUeHxt/YlWcp1tO6nNNriMflKjta9tIxw12mJuDvsuMzb0a/s1syLlRx6fmyR8f4acpk+eGZL+Zm2P5Mdt47S+33K1bt9ynf3r8pJ9zbjmTfs9MizxT+VmNVV2T6rzd+jJdY0mfjFz3Dol8rS/jOK25adkhfKDGNAm2fofLxE7bX46TfB1hTpZf817FIcRoOXY9wbSNlfCHbFvGLvEsRYNo09x1dt3u6OfW3/34xrIvv/2Ze95cj6T4q2v22o62vzY2bZnWprZM247ve8CmxGXxd84x8mGv1Vy1+8pjXZgHizbpsSkeVf7V5YJN9Vi83QZPrf3R5uIDa7z1/M3jsPxk2SHaVGMq5wK/zhX5UY01+7Z+HYiv6Lcdd92e/Gz4ZMSXlt2N72Q/6X1TL8VX+iT7vMkXMjcYbSsfLKxvVNmltuLxFTtufIU8sLilKUAXBi+CH4xIwc3b6cKrGKjp1DZoJXmIdmrQI5DRHr2FXPRXHKPt1yew7LBkuwxUqZ/LzL9adkfbtJ8a260+k6+msek2cqJUfil1pA90THz50L9I+pbdqt2Vflg3aS2fZtFAPr+mJ4JYZaddOfqWpNxXK9wUAUL8hHctNGTxSD1LJ5QX/RVfJQFFtNeKM4bIUurnHTfSB/m99kVjV3f3Tq7vX3UbrXAj+5fj0/72Pgr9F6GoHbf3Vzv2GIv4nJufuM+fyrERryl5T3PAuog1TqrSh+J9M+98fhFzb+m4PGErm1TCT/Yr2/18jHbKeRX7q+e1GH+2XbWVcp6Yv2PzTeeBaL/ME1O/S34I+aLqvxlLyUUyR1tjre1qbWrazn454lXnOt9X7H9a0GQ/5HNGa0/295KfRoSbnMcLT96vzbk12yJ9Gd9ru+1yuoz2tz8WxlHFM4+x+zrEZLJHzLFee0u+XDoe2h1lTtnu4xvtZG5m9vOrZqX9p9Z4fH18Hv/Tp0G4uXXrPXftiLk7sdNyrhlvj/v5lctEllIuSszEY3G8mQOdK+J8y8cmW7yvaj/5sjJvDPqp5vejd/pzsy5bnYP0fPFjjTZmH5Rr+g3mpvZFZqd6bez1PrLOB/Ox69ldn5P0+GPs5Lm+2NzYVdukmSj1juG37msuvjlHdeNzRuZqu8u6zPZVOZfV6z/vszyucMzXj/G251XFkOXzxrY1Nul5qfJCsDPP4SUmhZ1qfIk7dW4d46nm9/kbM36q+1T9VbZ7nkJ54Sc1VjGWxt9LzM3VnY4N59V6XJ4ZOTbL7sTDlOfGba7tapi0+mt8NI3zsPHzbXzuWSncCGPmDL3Sx2KAp4DfDWOOY6xPeiednK40A+eOeRQ5aoHoavs/CTeWeGSyMaNKr02UZvvnjin9XW1+9xe/Xn6OFxriAuyc/DM3T9o1cnfOkWvuvVu33K2/vu4ePyerR/bVm3d3Z+z2lxeJwzli0hMa0oK4Kyydw7Zz9aEFHrg7l9+vcj/3ue++ucf98Ob9m14nINyok/ndPTG5QLmcBFHfdnRnnBDWCjcHd0jPunEf3qeTHItD7Q+Vsy6H2TuD0avku3Rukv9pChz0vj/T2JibzM2V+SjvuHnvxTMxutK+OrdxXXQ14lTHjc8bxi3tYGh2H/S+P3HO7TN2d/f6cJ8x2ZDxzZlN/4z+20/d9Y3bRrjxDpXb7DrKcb1lTW8DtLbC7Rko2zYuUGy/XEzCErcalduLztn/Rfd1hHDj52IQb6pbplgcLi4Ow9wtW5dTPqo/d3LbxfB90Xzdje1b2331bX7bxLLTT8VT2JXK3GRujl6U/vZ196nfaXPrU/f6b6/O/OW6aClWK/LFKCuUW8wr2+T6pdiK4yHXt9cWm9+dINdj1TlnWnfl25eEfRfODMLNEnN3wzp5yQfluL9F6gJEG98+ws2FT/ZzJhb6KpOGuO7vxE9MiAkMwAAMwAAMwAAMwAAMwAAMrGYA4QZoVkODOIJABgMwAAMwAAMwAAMwAAMwAAMwAAPnYQDhBuEG4QYGYAAGYAAGYAAGYAAGYAAGYAAGYGCnDCDc7DQwKJfnUS7xM36GARiAARiAARiAARiAARiAARjYMwMINwg3qKowAAMwAAMwAAMwAAMwAAMwAAMwAAM7ZQDhZqeB2bPah22o0TAAAzAAAzAAAzAAAzAAAzAAAzBwHgYQbhBuUFVhAAZgAAZgAAZgAAZgAAZgAAZgAAZ2ygDCzU4Dg3J5HuUSP+NnGIABGIABGIABGIABGIABGICBPTOAcINwg6oKAzAAAzAAAzAAAzAAAzAAAzAAAzCwUwYQbnYamD2rfdiGGg0DMAADMAADMAADMAADMAADMAAD52EA4QbhBlUVBmAABmAABmAABmAABmAABmAABmBgpwwg3Ow0MCiX51Eu8TN+hgEYgAEYgAEYgAEYgAEYgAEY2DMDCDcIN6iqMAADMAADMAADMAADMAADMAADMAADO2UA4Wangdmz2odtqNEwAAMwAAMwAAMwAAMwAAMwAAMwcB4GEG4QblBVYQAGYAAGYAAGYAAGYAAGYAAGYAAGdsoAws1OA4NyeR7lEj/jZxiAARiAARiAARiAARiAARiAgT0zgHCDcIOqCgMwAAMwAAMwAAMwAAMwAAMwAAMwsFMGEG52Gpg9q33YhhoNAzAAAzAAAzAAAzAAAzAAAzAAA+dhAOEG4QZVFQZgAAZgAAZgAAZgAAZgAAZgAAZgYKcMINzsNDAol+dRLvEzfoYBGIABGIABGIABGIABGIABGNgzAwg3CDeoqjAAAzAAAzAAAzAAAzAAAzAAAzAAAztlAOFmp4HZs9qHbajRMAADMAADMAADMAADMAADMAADMHAeBhBuEG5QVWEABmAABmAABmAABmAABmAABmAABnbKAMLNTgODcnke5RI/42cYgAEYgAEYgAEYgAEYgAEYgIE9M4Bwg3CDqgoDMAADMAADMAADMAADMAADMAADMLBTBhBudhqYPat92IYaDQMwAAMwAAMwAAMwAAMwAAMwAAPnYQDhBuEGVRUGYAAGYAAGYAAGYAAGYAAGYAAGYGCnDCDc7DQwKJfnUS7xM36GARiAARiAARiAARiAARiAARjYMwMINwg3qKowAAMwAAMwAAMwAAMwAAMwAAMwAAM7ZQDhZqeB2bPah22o0TAAAzAAAzAAAzAAAzAAAzAAAzBwHgYQbhBuUFVhAAZgAAZgAAZgAAZgAAZgAAZgAAZ2ysDxws2Nb90bt3+c/r78zD0YBvmOe15+f/tb99hOB783dfDBt793b9w1/nrE/fzjD9yj7z49lhyuveIe/eID9+jHL7ifXTZP2RZvj/8bHcNl233Z/T/1U/fDNz9xnz91HlV6b/Mbe06N+/3u87/d47576dR2qA+LMAADMAADMAADMAADV4uB44Sb333mXr79o3v+xvxg7y4hYt4XIxPjUv1VixFZlMivm4sT+xRufvbqW1GMyePOr+b4V47hGOHkNy+4h70NVf8PvBtFo4eureXuDDab47zPfffNPe6HN+/vCHVPuj9+ddN9+NWf3YtPWGP6hXvxE388/91wz5j9WHUv6rvr7tkvf3RvfPROZ0zr+o3zf7v2RnLOlSvz0r3OfYN4c+Xidulzdd1cxL/4CwZgAAZgAAZgYG8MHCXchAVG2WHTD+qlChFX8EJxP/562j30xQduvSjQZ6EF/7IEhHkbo3DzintgiJ8zjCELN19Im2J8/G6f9TE6g82N7+JOCffhfabA8cz7Xoy54V587c8d4SaJNu8/WernOpcr3mwk3CQh/OW3P4u7FTcSgto5N8/+VSl//c2fOPfNve5mw9mdMb6rEgfshDcYgAEYgAEYgAEYOB8DRwk3j330o3sD4aYsIrcCFuHmfOD3YrY74cbvhPr4Bffzd4VIc+0V9/CrT4dbza6CcDO30P6VF2uSIBPeGztu4vf1Dpu4Q+ed136x+TzssdF+v4Vw428t/d49+zvPfrrNFOFmIabzQmAbp8vPK9hEDGAABmAABmAABmAABk5h4BKFm7ToEc/DkbdeBXGos4AZ3fGjHVM/e6e6JSE8s8c/j0eXe/nt680iItjWsbv0WT8DyBpL+k+7elbQLp5xM7PjJtxS9Zb7+W/ExEu7QiYRIe7qePjVR9xB3YIl601l9O1JcmfJoarf3jIU/B368PWmnSh+N0rov/qvfL7FKDybxtixsq1wo+159As5/hkfHybfBP/55/r4MYbbpfwx344ok8dYduekZ+/I5wHVx/ItYOl1il2M65CfQvt6jK3P4yK7f4vUxFFPuAm7a8RumxDzP9yIt0198pz7VR7/Rq8l96g5nMWVgzuY83Z63pfMYyUfDNm2hXBT51Vhd7AhHg95rTe+w8FNOXYhH6o2LEE/1vc+icJ09lP97LPabqutiZVDuGWK5yWt40v4b4hHyuNfGIABGIABGIABGNgLA+PCTX2BLoQLLzxYi5X+DhJjgZLaz0LJ3K6esrAavvhMiwJLPMltiPGVsaTvyueD0Y7xvJ923Ea9pu28sKkXNJcxWWZEhRXCTRRHJiEmiAFFTIjCQyhTnt+Sviuf5dhnjhVxaBJGogAzfT4kMUQ9K6YRnA5uM+EmtS2FjCxQRZEk+lgen5KC8L8fWxFIXnEP+HbD50q4MeKi/Z19OePHMBeM410/Vc/ZMWw4hAcSjz2TxBZu4m1ScmdNKPfJc+6ZcGtVvRMnj/P410mYneZi/G76HGNlzOucT456NfLiqnZi/ZxDg40hz0jxJtkc8vc0njrfSpGl5L+qrVjGantqt+wi8v2VXZqt3+r+p7nQi2N8ZhIPKu75h++XGcJH+AgGYAAGYAAGYODqMDAu3IgFxOhFditgRMf0vpfthjL5Qj+II3mBEC/61eJE2GbDZyxo6jqGkHKohZpQRi5K4niC3UUUin2VxU7uR9VtFy7e7p5f7DElyK7/t/v666/tv8/fdE/k/le9CuGgrmctzpuFfVr8F5Em2qpFEUMg8H2F9iexZxp7p3ypI0WagzvUNnXaDeKGEIqyuJJ35OTXekdKtKtv07JoEutm4Sb0m/0VbI/jkd/7Nh96198m9YjLQlT7PnHh/SLaGfJj8WXrf9tPCz737YWdEWPPI7GFG31LlNx9E8tflHBTzXNDoG3ygx/vSX+nCTcqZxY76nyZck/OralcnXvi55xz07iUDzo5VZXx9ewxyVx/nB+5Xeo01k5llfr4HwZgAAZgAAZgAAbOycClCDda6BABl+KGeB8XET+6KNbEhUcjjJSFimhPfJfbCLclFZFFlA39VQuVw8HJBYZqo9pxVP6bnBYu+vanfHtAbt8Wd2L71YJRjOF8YGwk3AhBpLW9I3qYYoOPU6e898+AmNQTZIIwkwWTw1Y7brQoI8deCzHT7U9+90oSQoIPongiy2shRvojxiuLTPWrFp1kPcF/4mxrP80930b6xb+3hZu84+bJ8KtS1s6bC7lVqhI2sgChBWNbgK3HNf7ZFjlG64dcVeel/LnkvDGbF3NRyHM5n0mOYvuTnzoCT53XQv5NebLxvWw/v0e4GeWCcpkZXmEBBmAABmAABmDg6jKwX+FGLAwe++h79+yNz9zL4YLeFj2GIewtEOaEm7ToWVzM+MVI8x9nCw57DEPt1wueC/l8icKNJcKEMc4IDladIH5MD/SNgkS7k6TmZrRcrNezKX6fd9PIPqQQM71/2j308QvugVffirtpxO6gqUzL0bQLJsbL6k/2PW9zbH90/KPlTt9xc3DxF6Ruuj/+QfsgfH9Rz7hpxANrzo6JIG0M9Dim47GPY39eXIrMU5t1X2M2L+YikZ91X0cKNzmPpfwZhe85EXv82UnavtoffMY/MAADMAADMAADMAAD+2fgUoSb3qJALzz8Isb/R/cd93xYRPkFQRJwyq+wnODgWqipP4eFRLUIMcvUNsTF1/Qf5/q4/2yXif8xn1usGG3t+VapI3bc9AWBnkgytuPG3JWTF4vitd+/4fuZXUDLt0olu/1un/ArUY/EW5uSgBOfa3NwkzjT9j8dm/GNGFtMyAtlLRGsaWPFzqSTn3GTd+LUt0TpW6i2PNnoPJT8bgoVYyLIuG2nCTe9vKr7H7N5uS07h7XCdaecwZSyc1EA5xk3yl9L/uT4ibcxtvkX/+MTGIABGIABGICBczJwKcJNvrhX/1kOooh8yHESTb78Pt0ilX/p5Hv38ga/vNQsTAxRphVS0qJnof/YthxLC3XddvzsbxVYKdxcyAX5zI6baidLfpaMvz1nuiVnQRwINhtlUtv2zhGjfB67JTbUdmaR5Yv5XTdbCTdRKNK/bBXbFs+FCTa+5R4OvxLlGYlj9J/zQ5QncaZlSB0LPtD99RJJqNf1Q/Jz93i0Y9xP47e02LdK+f6iSJN/NtyPK+7CqcUcX/aae+/WLXfr1qfu9d+2Puv5RH7fCjd9QaWex7Kd9e/7/Yy1leo3u4WkH7YSbtJtpEpET22r/o8Ubox8rHzAr0ohROT8zysswAAMwAAMwAAM3AUMbC/cqK3u+dku8VXvQkmLjPwMBrUAiAuNuCgSz1HIbauFgVyUdN7neqUvQyBJwpF6No3ZTxZv9NjqZ+5k8Ua1V54z4e3U7QTfBBt2LtyU58Ckn5wOC/xa6JkRWcSkigJCbqf6haJULgoEukx8hosQQIaEG+/zLEro9ibBaWwnyZBN3v4kHk3PnKlFo+i3vLvGL0xz21m8UuKM8J0vG46J5/NksWjq74P0i1T1vGj9IH2wlZ/yQjs+56bz081PPOfe+epm/Gnv+lX9BHgSb3KZ7i1Sj7vX/+qFm1vu1l+uHXUSm0TUaY7r3CX9qeexn+91Lsh+6L1a/cW8IXJfFfteW3k3n8o7Krcme1UukuOJ7xthu9N/k+eadkeEm/pc4P0+N/ZxMbDvp3bMlMUnMAADMAADMAADMAADe2XgKOFmr4M5ya6l//B2Fi4n9UmbRy2s8flVS6hnXmi/+F4Qbj790+NH8RWEFFO0vWp+vzPtXfPAa3LFnckAcSWuMAADMAADMAADdxsDCDdZPEG4OWqRe7dNGMZ75EkiPevGfXjfBXOWd9y8567lub3yFeHmyBiv9PNRcyncInWP++6lHdt4Dj/QxwXnEfg6an7CJVzCAAzAAAzAwIUxcIWFG2t7/XRrQ75VYPi2BYSbC4OMC0AWAYGBIN50bpnaIMk//qdP4y1Sf33dPX5Ce1sIN80tROo2zZSnhnb1bJznTvDL5c/juHML0YZ8cvksEgNiAAMwAAMwAAMwcF4GrrBwc15HASb+hgEYgAEYgAEYgAEYgAEYgAEYgAEYODcDCDdX+j/QTJhzTxj6gzkYgAEYgAEYgAEYgAEYgAEYgIFzMoBwg3DDLVIwAAMwAAMwAAMwAAMwAAMwAAMwAAM7ZQDhZqeBOad6R1+oxTAAAzAAAzAAAzAAAzAAAzAAAzCwTwYQbhBuUFVhAAZgAAZgAAZgAAZgAAZgAAZgAAZ2ygDCzU4Dg9K5T6WTuBAXGIABGIABGIABGIABGIABGICBczKAcINwg6oKAzAAAzAAAzAAAzAAAzAAAzAAAzCwUwYQbnYamHOqd/SFWgwDMAADMAADMAADMAADMAADMAAD+2QA4QbhBlUVBmAABmAABmAABmAABmAABmAABmBgpwwg3Ow0MCid+1Q6iQtxgQEYgAEYgAEYgAEYgAEYgAEYOCcDCDcIN6iqMAADMAADMAADMAADMAADMAADMAADO2UA4WangTmnekdfqMUwAAMwAAMwAAMwAAMwAAMwAAMwsE8GEG4QblBVYQAGYAAGYAAGYAAGYAAGYAAGYAAGdsoAws1OA4PSuU+lk7gQFxiAARiAARiAARiAARiAARiAgXMygHCDcIOqCgMwAAMwAAMwAAMwAAMwAAMwAAMwsFMGEG52Gphzqnf0hVoMAzAAAzAAAzAAAzAAAzAAAzAAA/tkAOEG4QZVFQZgAAZgAAZgAAZgAAZgAAZgAAZgYKcMINzsNDAonftUOokLcYEBGIABGIABGIABGIABGIABGDgnAwg3CDeoqjAAAzAAAzAAAzAAAzAAAzAAAzAAAztlAOFmp4E5p3pHX6jFMAADMAADMAADMAADMAADMAADMLBPAR2EcwAAIABJREFUBhBuEG5QVWEABmAABmAABmAABmAABmAABmAABnbKAMLNTgOD0rlPpZO4EBcYgAEYgAEYgAEYgAEYgAEYgIFzMoBwg3CDqgoDMAADMAADMAADMAADMAADMAADMLBTBhBudhqYc6p39IVaDAMwAAMwAAMwAAMwAAMwAAMwAAP7ZADhBuEGVRUGYAAGYAAGYAAGYAAGYAAGYAAGYGCnDCDc7DQwKJ37VDqJC3GBARiAARiAARiAARiAARiAARg4JwMINwg3qKowAAMwAAMwAAMwAAMwAAMwAAMwAAM7ZQDhZqeBOad6R1+oxTAAAzAAAzAAAzAAAzAAAzAAAzCwTwYQbhBuUFVhAAZgAAZgAAZgAAZgAAZgAAZgAAZ2ygDCzU4Dg9K5T6WTuBAXGIABGIABGIABGIABGIABGICBczJwgcLNO+752z+6N25/75793Q6D+rvP3Mu3f3TP36ht27ndCE2owFeVgZfude6be93Nq2q/sjvnCZ/j/N+37jF1vM4rfD7niW2xL8/i337qrhMz8ikMwAAMwAAMwAAMwMAVYADhZvfCzXX37Jc/ujc+eucOnVCPuJ9//IF79Ivp76Frl7zIvfaKe/SLt9zPf3MeOx549wP36McvuJ91EkY4LvxTfPXu05fKxJLdavH81E/dD9/c4757qePTP9xwH3510334yXPuVx0/qPZOKXPj200F5Qff/h7hZjYev3AvfnIzxtfH+Ksb7pnZ8h1GfJ3MSWjnpnvntV/oOVAdD0x9ZZQ73O8+/9s9iDfHxoF6mjv8gT9gAAZgAAZgAAYumIELFG5mLr4veFBDC7zujpu92X0HCze/ecE97AWJSoB44N3ziSYmKzsTboqNwV+X7Bsxd8eFm/vcd9/c4354834joT/p/ugX4e8/Fxf3CDeGj/aWk9bYk0Sb958s43rm/SPFmyDK/Nm9+ETq/4nn3Du1KBPKjApDc1yuGSNlS44S+YHv4AIGYAAGYAAGYAAGtmMA4abZcbOdc7cB9U4VbtJOm5mdJtv474h4ItyURfZcDEaFm5sf9nY2xEX9H//gY5QW+Ag3Q76fi8uejv3qtT8bO2yiWNfslpld9Nt1mvZXCTcHdwi37/3Eff7UEXli1l7a2xOH2AKPMAADMAADMAADV52BVcLNYx+lW3bCrQb52Q71M2wGnv0Qdrv4ekmUCM+I6NwOpPrqlBm6gK76Sn1Oz7gZsDv007bz8tvXy2Ir3Dbx5WfusXD7xI/ujS8/cw+m3T3NczDK98mXvmweS30s+6ixO07CEBtRZhpXPJ7tevCgxyltPyvMabfN0G1RQUiZbqVqbisKx19xDxyedg+JW4oefvWREpc4tva2LNlW95Yk32YtMNU2feH7Fwlx0SZta7n9Kdnf2n5wh5kdN8F2v3NJ2VXtzlm0KffxgdNxibZGm9baHXc1dG+RKj67eOGmniPx2TTG3PM21XlHzs1is5hbM8+4qfs9em7WNtV9huP+WTsDc7zOL9atmHV/VpnKF3UOCbtrxG6bcDzfzrRGpAu7a8Rum9BvYuarmy6Kf/lWqtEdNz5+6ZapD++rcoWYywtjrMfMZ3wHAzAAAzAAAzAAAzCwNQPrhZsgDkwP4oyLkumzNLD77AexaCjCQfqufD4cXFv/2N0naSEjFx6pv3oR5e1v+53Ae+yjSqhKi5vcTqybBKbQx/fu5S+nxVQZX6in2wq+bBaIS2M2jhtjK3bJBzIbNsj4Xej7ICJUwoKxQPrZq29Vz5vJ4osQSopYMbXX1ju40R0iUfyY2mr84AUUdXuXsXto0Cbf9rBdS8KNEpjmbBLCTLKzCDWmoCaFm2kuDNk9vKPh4oWbEscF7uNckXMzi7Ur89xhw7np57TMX7ltmS9SLpIPhG/HMolSJRf5eXfjW/Wg9lhPjtcYizFfi4/DsRhTubMm7JD55Dn3jLkTZ2JLt2MJMnEHzh//UO3EyaJQegaOf8aN7L9p93Bw19/8Cc+6WYzlTGyoi+gHAzAAAzAAAzAAAxfOwBHCjbyYP7iDIRLki+P24j9d/KU6auFwODgtXESxJQsiuc34n/DKhgVQTDuOsdvsJ9qZx6IWSmqcslxcBOU6ZWyhvFwwen8tLJjCYq31R/ClWOgpu/I4ZnxQbMpl0+sT//GF+/rrr+2///d/x4EdEm5swSDuPKnFh0poaQSIJGQowaWzGBmyTdeNQlEtJi3ZFNsYEkC8/5eEm2pXkG2T8FuIaeWXxm/eRjsOI3aPL4r3ItzIeSpiPDNXzPzifXvBc7Pp1xKkGrvj+OYfdh7LzOfeJ9ybn3fywNdfu/++7n2nRRW5+6a5xSnll17eUeXV7hvdR1M/PQfnw3rXj+xvWFwUPMj6vB/P+/gKX8EADMAADMAADMDAUQysF27kf3iD0zsLnbmdK81iIl4Qq4VIKqNuZyi3AtXixvwFdS1ihIv7jg3+mLKjBqtjVxZhVF3Vh/RTWjyV8eTbzuKrXjDNCzexP12/+EzEStlVj+kyPo+II12hIooN5XYiqy1LgAjl0i1XlcihFnxWe5WPgmghbsuKtzpdBeGmEpPqHT+W304QbvrPt6nn7E6EmzBnrfzSEVtn8sXWczPksSZnCNF2RLhROamOQfrcyXExr1i+6bSTnlv0zmtPhgdPy50veefN8C+I5WfX5NcyH/POm54NB6dEn1JPlEe4OeriQeVMy698h19hAAZgAAZgAAZgYDMGNhNutNgQL4q7YkFn8RDKZ7GhU+aYi8XNhJu8oBE7WQ7peRLHCDe5zvyYRoQbsXjrTI5uLDrl520Si55j65sCQdXu1sJNtjX13Ygt+fiCcBNFGy2A2LtbdJlmp1Dqb2TnSohH1x/27VZDNmXhJu9EMuNyF+24CXPcEieOFW62mZtRtNF2NXN6Y+HGyulr80L8BSnxDJrEfPh+9TNujJ+LTztqyjNu8hwWr1G4qZ+PI3JNEG7udTdFnbXjpLzwJ37c7AINruAKBmAABmAABmAgM3C6cNNd6MzsXOmIMlpgkTtUTgtYaDcLQvmiMixyflTPdchOaRZEqo5ePB0n3MyLMdmO+LpQ1lqsZXvFa3dMoozu1/b5ZrdKHYxnsDS22IJBI4BYQospQFRj6pWx2iu2VbcWpe+HRJJOf5cr3FS7l0wb7TgM2T28m2EnO24qIbbMiU7O8se7c2uzuWnngKZfq7/G7pG8OlJm5Fap3m6XhdubylyT89Wus7ib5nBwSyLR+O180h7el7lhxgv/4B8YgAEYgAEYgAEY2JKBE4WbdMuP2oEyBahZWOQLvGYxkRc/WhSJ9W1xZZUTapEmffZb/63/Ko/bncZ/+0eXd8+oumqc1WIo2ZDrzY0n/re995/7tKirf2Em+zq9KruqY3N9X+ixIJB84B7Nuz2SXQ+8O+1UaXe3GIKPJbSYAsTEZhiXVc/bkOqWW7Eqf9WCRRRt/C1Yx90qFetPY+76PNhll6tt8m2MiEnRv8Lu5raoKNr43Um1P8bsjr8q9cOb9y/8F3pAuPnt6+7TW7fcrVvvuWtVTLo+s8qledmbe+3uljTHavE3td2fW9vNzVp8jn36WyRFXhgSbnKurXKf+XDiqozly8XvouAinzETd+FYv/yUyspfiRLtNztn0m4beQtWzUGs0+74mcrxq1KTL6r8KHxPGXwDAzAAAzAAAzAAA5fLwHrhpnrGQrP4SYui8pwVUb6UNcuIBYi4YJwWKOI5Lh2haA4m1U5YgEUhpQg3pk2xz2J3+e/6ZMvzN+LiLJdRi7jUZuyjEm78GIWAVPxlLg7zAlD2K8Fpj9eilLJL+HfOZ+c5NgkD+Sexyy8cJTsnYSQ9n6YSesxfgWqEm7afR7+wRZAw7iwq5efYqGfiVG35Y6G8EEAsUaixaYphFFCmnzyXIkl9LPtJCl7jws3UR2hHjSvZo8bufVTtyhH81LZJuzM/4Tk339i3ouSFtf/1n/qvvf3lmnsvCDe33Kd/enxBCJp8m+1Qr/Xcq+adyhc+h9U5ZzBflIeLizx43NycROKQK7y9YQwibw4KN8EP9fjr8Rm5LvRrlFN+FWxM30+CTIhx7xap/CDhjnDj26t5qRmpj3/Y6yvbObwjbIGn3B6vp81L/If/YAAGYAAGYAAGYMBkYL1wUy1wpovzFRe2StBYUY8gmkE8Kgb48u7zpSUmnYWD0V03y7ng8T996m7duuXee3G5LPMCH80zsB2X8/0QB/wDAzAAAzAAAzAAAzBwGgMIN2dZuJ4WJCDHf5swcGnCzcEdws6Ge9zyLVNzsU47bv76unuceXv3CY+bxjzdIvW3n7rrm7Y7xy/HNsljxIu5DwMwAAMwAAMwcBcycIWFm+rWgepWhLCtv/MMGy4eWUDclQxcpnDjk+sJv95z7S/+2Ta33K2/XONEdReeqDafr55FRBvmEnMJBmAABmAABmAABq4IA6uEm80vnq+Ikxg3Qg8MwAAMwAAMwAAMwAAMwAAMwAAMwMBlMIBwg3iEygoDMAADMAADMAADMAADMAADMAADMLBTBhBudhqYy1Dx6BP1GAZgAAZgAAZgAAZgAAZgAAZgAAb2xQDCDcINqioMwAAMwAAMwAAMwAAMwAAMwAAMwMBOGUC42WlgUDj3pXASD+IBAzAAAzAAAzAAAzAAAzAAAzBwGQwg3CDcoKrCAAzAAAzAAAzAAAzAAAzAAAzAAAzslAGEm50G5jJUPPpEPYYBGIABGIABGIABGIABGIABGICBfTGAcINwg6oKAzAAAzAAAzAAAzAAAzAAAzAAAzCwUwYQbnYaGBTOfSmcxIN4wAAMwAAMwAAMwAAMwAAMwAAMXAYDCDcIN6iqMAADMAADMAADMAADMAADMAADMAADO2UA4WangbkMFY8+UY9hAAZgAAZgAAZgAAZgAAZgAAZgYF8MINwg3KCqwgAMwAAMwAAMwAAMwAAMwAAMwAAM7JQBhJudBgaFc18KJ/EgHjAAAzAAAzAAAzAAAzAAAzAAA5fBAMINwg2qKgzAAAzAAAzAAAzAAAzAAAzAAAzAwE4ZQLjZaWAuQ8WjT9RjGIABGIABGIABGIABGIABGIABGNgXAwg3CDeoqjAAAzAAAzAAAzAAAzAAAzAAAzAAAztlAOFmp4FB4dyXwkk8iAcMwAAMwAAMwAAMwAAMwAAMwMBlMIBwg3CDqgoDMAADMAADMAADMAADMAADMAADMLBTBhBudhqYy1Dx6BP1GAZgAAZgAAZgAAZgAAZgAAZgAAb2xQDCDcINqioMwAAMwAAMwAAMwAAMwAAMwAAMwMBOGUC42WlgUDj3pXASD+IBAzAAAzAAAzAAAzAAAzAAAzBwGQwg3CDcoKrCAAzAAAzAAAzAAAzAAAzAAAzAAAzslAGEm50G5jJUPPpEPYYBGIABGIABGIABGIABGIABGICBfTGAcINwg6oKAzAAAzAAAzAAAzAAAzAAAzAAAzCwUwYQbnYaGBTOfSmcxIN4wAAMwAAMwAAMwAAMwAAMwAAMXAYDCDcIN6iqMAADMAADMAADMAADMAADMAADMAADO2UA4WangbkMFY8+UY9hAAZgAAZgAAZgAAZgAAZgAAZgYF8MINwg3KCqwgAMwAAMwAAMwAAMwAAMwAAMwAAM7JQBhJudBgaFc18KJ/EgHjAAAzAAAzAAAzAAAzAAAzAAA5fBAMINwg2qKgzAAAzAAAzAAAzAAAzAAAzAAAzAwE4ZQLjZaWAuQ8WjT9RjGIABGIABGIABGIABGIABGIABGNgXA3eWcPPYP7rfv/br6e/f/sE9oISZv3f/HI7/k/vl/9lXIMyJEcZzRWxVfh7x7d+5X/7br93vn/v7MVU3x7aJ6Uhfp5V58Llfu99fQr8mE6v9fNrYsQH/wQAMwAAMwAAMwAAMwAAMwMDlMnCEcOPFj390D4YFZFx8//bpvxtbfKdF5wNP/9MkrmSh5dSF8f/5B/fb137t/vmxOYfuTLhZshnhZuIK4WbyBeINvoABGIABGIABGIABGIABGICBu4aB9cJNEBuycBOFkHmxpBVSgnBTCTVhV8Nrx+8usdrcvSqIcDO+4+YSkxI7bto5vPu5dYm84Bt4gQEYgAEYgAEYgAEYgAEY2JKB44SbIrpsJ9wcDunWmdL2ukBfycU1wg3CDQLDXaOSb5m4aWvd+QF/4S8YgAEYgAEYgAEYgIGrzMC4cJNEBvUMmXybU3jNu3CWgejtjom3UFW7bvItMrmvzjNR5oWbfItUfv6NYWvox3+vy1q3gcXdQbmtpduzWn/EcU71tU+FbR2brB1Op9okIdZtVfEIQoP20e/VTql8+9zfx2fYvPZr531Yxlzil8uJYxZHI/Hv+Ono2NV9eruOEhRrP9nP9NH+rnka9NPhMPk4zxUVl8RhPbZmXNFmz1iJmRUXBCcEJxiAARiAARiAARiAARiAARg4CwPjwk0KSFjM5cVeWTC34oQUAur3qg0Z6LSozMJEXDgKISPvysmL/3oRWhasURTJ7cj+2zbrBe0kVMSy0+eyKyj3721f2jUjx1e/X6pbxjfZcLE2pV1P5RlG3jd/5375nHjIc7JZiiLRpiw45Dbi53Ds3/7J/db7LIwnj2UqNz2gOH0n/Vt8NnNsQz+1/j24IKxk5os9S8zP2FvaMMo0TKQynu3ilyQIlc+Hyre2be3YcttyjgmxqYzZsLOMwe5Lzjne4yMYgAEYgAEYgAEYgAEYgAEYOJ6B44SbvGAMC2a56BszJC7mhRiQF4FpAR4Fl+k//yrAnT5HF9dx8WrYHNrNokIaR72Inus7+ySPZeS1br+uc2ab2oV9G0/bz3Jhn96nRb9qU41H1hH9dHxsimbZX6rdU2IXmZOilGfPHrOwOduhXu22hlkuPNl+qm3qcl1s6tjTMBjLTSJRHGfdnxpH6WPJJxzHbzAAAzAAAzAAAzAAAzAAAzCwloHVwk1YwKVFZVgslv/Kjzu/W08uwNOCUt9GlG8vqgSWFYvr7gJX9p0XotWiNtbNNlSvR/hhcbfOmW1aXpxHEaEWNjx0U0y10KD8rcajyxVwg8/b+J4q3AzFrtP3sl9s9lWfRYiZyqrj1W6x6dYs20+tTUlwCe0Y/uuMLft1imlH4MlzgtezbIUs8wF/428YgAEYgAEYgAEYgAEYuOsZGBZuwkKxXlyKz9PCb1qY9hYfYcFqCB1xIZt2w1SiSa+t/H27kLXtUH3ICaBEhVS3sqFbV7az5n3Vfh5LeT2zTcs+PINwY405+NQWMIKvrDqVb4diF+q0oseyX2zWdByT0Ce4H7Kpvj0w8dW3Kfkpzc1yu2BnbAg3C7FbM58pe9efUMuchwVYgAEYgAEYgAEYgAEY2JCBYeEmXpDGRWFeDIbFo7GTYOniNSxYxQI2lq9v0Vj3n//+QlYvzLqL5YHFv35Gi253aczm8UpcaMqc2aaubwRwtp+lqCLf5wfcJjFOjUeXy2Pv22CXD/VUuykutW+tMmJcoZ26Tjie+m14PSL+tQ3159oe2X81z+w4SJtqf3XmUzPmTjnTNtkf7zPDvMICDMAADMAADMAADMAADMDAlgysFG7ioi4KN3FhuGanTTa8FW5iu79XD8XNi/780Nv5wC8vZGP9rjBgLaKbRW1aDFd25nGtf03jrhblpZ2z25TsUSJF9XDiYFP8pahsZ/Rp3qmiBQPlbzUeXS60lfxtM2WUz2KCajdxclTsUh9l/Omz371SvpvnMPvEelW+kKLMLE/2uJd5j7GUvgx11C9N1eP1Y2vrWWPhu+M5wHf4DgZgAAZgAAZgAAZgAAZgYA0DRwg3eoEuF4ajHccFrH5GTK8dq2z94FTf7+xCNi3irefllH6HFv8eLrGYF7eK5V1Ioz4o5RrbxIOTL8Wmenw53mJizdmc/ZPEKCVWVOOJQoLmoPajGf/gd2FX1W7wbSPcjMYuiVfiVqNgw1rhpvGRH6eIbRadsr8ES57TyQ9jwo3ly8J26WsSQ8tcaERDhJsyN4Xf+E7Mf/zCtl8YgAEYgAEYgAEYgAEYOCsDK4UbLt5ZwMEADMAADMAADMAADMAADMAADMAADMDAuRhAuEEpPKtSeC6w6YckCgMwAAMwAAMwAAMwAAMwAAMwcCcwgHCDcINwAwMwAAMwAAMwAAMwAAMwAAMwAAMwsFMGEG52Gpg7QRVkDKjbMAADMAADMAADMAADMAADMAADMHAaAwg3CDeoqjAAAzAAAzAAAzAAAzAAAzAAAzAAAztlAOFmp4FBkTxNkcR/+A8GYAAGYAAGYAAGYAAGYAAGYOBOYADhBuEGVRUGYAAGYAAGYAAGYAAGYAAGYAAGYGCnDCDc7DQwd4IqyBhQt2EABmAABmAABmAABmAABmAABmDgNAYQbhBuUFVhAAZgAAZgAAZgAAZgAAZgAAZgAAZ2ygDCzU4DgyJ5miKJ//AfDMAADMAADMAADMAADMAADMDAncAAwg3CDaoqDMAADMAADMAADMAADMAADMAADMDAThnYsXBz3T375Y/ujY/eGYPnxrfujds/uje+/Mw9eFZnv+Oev/2je/nt62N21rZdmt13mfL6mxfcw1984B66Njbun736lnv0iw/co+8+fVxc6zgPf37aPfTFB+7hVx85c79jfrlaavWJc3M4Zku+S7ns9o/u+RtLZS/6+GRLyJe3v3fP/u4C+/zdZ+7lXYzbHuNTb/+H+9+3f7nJXHvw7e/jOcifh/xfPnflHF9/vxlf9tiu1ly1x/DYR6ed07eM74X7c+U5ajt7Yp58Y5Nc8JT7n9v/7v51M7bvd5//7R73w5v3Hz1Hy7zM83Ez22xm18aly3jOG2e/pt1mXGv9sEX5f/3ov9ztj546mpUtbDimDZ+nbn/5L+6pC2EzzqHvXhqJ6y/df375H+4/F64JrlRevRCfjviSMsfMBeosc4Nwc/KkPnFxuLeT89kXWo+4n3/8QRRJvFCyQlxZNcFXXhTvSbh54F3tnyAoXYqopBNKsOvjF9zPTp5Dut1VcZ3t+8S5Odv2GpsnsaQr3IQ8cMEiSj2ec/R59nwyEJff/Yv737S4nC5A/YJz+YK1y+aQL1f+M6KO1134ubuonfPFRcR3rr/hY+lc1/tnwMpzVJfFYXvyXDlduPEL5iiATsJNWIyeuIi++eE9zv3tp+766jHlsR0cws3ki5OYGcpxG/V1TLzDvD8hhx+edH/86qb78Ks/uxefMMbxxHPunXDcl/F/N9wzx9jZ1PFz5r/c/xzzT51Rm16617lv7nE98Waaq0K4ufHvWkwazaujNjV+MHxOmSsnQp6UY4j3ULzvHOHm0gK+l8XhRknvnAutdKFa72p54N233M9/s9F4MheXdlG8dhwzO27CGC7AN9lHK18RbtbGdqb8ZVwUn6PPc+aTFfyGC1V/sfzRv4e/27dP+09tEBgW/6OPcLP2ou4o4eZwcFvHd63ddvm9CjczeWl4TsXF5+0v43z6ny//y90+RQg9HNz1N3/i3Df3upvDNmwxjvO3cSzjNmMXaP85zhcnxDrM+SN3rTzzfhRiXnztzx3hJoo6f/xD9u8v3Iuf3HQffvKc+9UJNocYeoHkqF1q62yan09esPFzNs1fv3PJEJOW8+o6m87O8Kmxov6QsEBcc564mFeEm5MnIsLNcZM0XcSea8cGws3mCRfhZsOkfBkXxefoc6fCTc5ZYWv9kRf7uY3DYVSQGS23IVcnn98u15ZTF7XbxHcrH9zJwk3yUfiv/JG7BySrT/3U/TCzQ2Cae1vF5vLaOZXxs/niHOcLycCq98fvWvmVF2vefzJcH4X3vR03tT1/uNERedawFAWTrW7XPczaFG+Zch/eN3MtGP24ZM+qvDpr0xpfUfZsc71mnc8zc+b8XB4l3IQTTb5f37wvOm+9Tff6qzLx4vXlt9+Jz7BJz4dpt7Pmctenra6hz2/dYxKicDLJ/YjnCjRlfD1tV/tcmnRhPTu2g9Pjj323bS0Ecyu7w8LI32JR2a7++5uOqe/SONL908X/ZezCp7crnwffXnPv3brlbt16z12Tvh59v0ZIufaKupXqUSX2xB0qD12Lr/lWq3x7UXlWTNmtki6e021Z9W6fcotUOl7qi3GFtv12d2WXtROm6usLq8zBZVvLLVC9Z9yUMbRsDdkU7H3FPXCYfOX7VGMMZSo7Vax0XWlz05bw2blOOENzc2HuhTb8XFHlrNuYdD5RzzUJY6/mpMqDMYaWvfHZM+LZHsmO9jarE0Xj0K41rmhbkxOq/BFiqnwkbM6xN4SbMub87AajzCHl6imvRl/6z9ouKze186Pmz/rP4dLFat3G9NnOr9PxbM9SuZonGZt4rGXAtz35pu0z992+aj/6fC/7S+eHoXmQxlXOHbqdbFOJeypnjqXmyZfNnGSmBl63iG84F3z8gnsgP+/Mn3dSLnz0C59HhU/VucDf2iqOlzr2La/luWslv+vzhsrPss+Z92M5rObtuLkU42vtuDn+WTdhd0DvFqmhax5xi1TibcolU9zG/OTLjzGeWZ99XWK8Pm7l3RD7On7yGWo5JyxdZ0dfzM3N+lg5P1lzM+XyUqaZu1Me0/nnFPYO7nD0rpWJBR+z9cLNTTftwtFtzTKQ5+7Jt3dVfQaRZMamcMvUT9znT1X1DtaOm/a2s6Py6pJN2Re87kocGOKXmF1KzFYKN/nkJZPsdffsR+KBwClxy5NkTtDxQi23EU8y4diX37uXywVivuibypWHPOaTp3kiS+WtY+VEmNvOJ/Xpc7tQ8CcD/8BjWSb1oU5G8UQkx7sO+BPtFifKYkMTA7uPcEJWYzm4Q6prXlSrSXqicGMJBKr9eGKJQooUEvJFbb4wzkJCLOMFjIc/fiuIEbFuKicunvWFcu+BxbFd66K5CC1FQEo2lc/edqN+M+bBetkv5cK+PukK8afYYLQtFhfFB+k7/Vn6++AOyXcgE7tPAAAOsUlEQVSlTLIn+KH019q0bh6cWn9sbsZcVOWv6iHo5UK1zA2rbXtOdcfc5JJqvLPHO32FOnIsVZuZm97rTJ/RB7LttEgoPrFyaLJTCr1VPontypzayzl1Xs1ty4V8+k7Y1PW/9MHovfqyjvE+n9fKIiUtEOPnaoyhfieO/liTs7N/82Ks9oeMdTy2nLNFnZnYZx+WeSDi2eOinHv8WJq2jXFXXPg+oz+130J/lxTfIuJ7kT7l3oc/9ueTKrf7Y+q5NUbuDfFP36uyIiYpz3oBvOTaOj+HdkSdzuex2E3ttHlxOpZ5mHvd9hk3CzsDEjt+nhXujPkz2dufO2N+Muo3jI/5ax3jxrwp8fbHZH6u50+qmx4MH/qdu86W183G3Ay+XBqzcbydv9GXIUeWeT03zhG/JtHhxOcp+TGuEW7WlJ1Y1ONZtXOlxF63Idtetuk+952xky0IMsF/3pdJsDn2GTeVncs29ccjx8Z7/AQDkYFVwo110qkd2SZq35FMzOl9StqqTZX4ZR0BbCijT1jRhk55n0RUu6mt6uQUT2xCgArJJ7ZZLg6sdpr/DAtbqwRW+2oLu60Lft+ujoPtG13G9ott89oxGuUbEcMoU18gZ38qISEJN+liOIoqUayxhJtyQZzaCuXNC+nq4jz3fUgiSSVYqL4OBxc+V2UOh3jhXsQg0wf9fvPiwXr+jyWi1DblHULaB9ViwrJJ+XuKk9XnOl6ecG9+/rX7+mv777+vT30ttjs0NzsL3CqnWPMi5imZd4yLecFIY69pnxjfwnGVJ0M/9pxu+j3Gpio3ljaVjZ3x13XL52SvEAFKu6WM8EeTV1P9crGfyiqbZP2x9/6C9fidNrmP0Vj0y1nMWefNfC5S56vgPy14FN924t/ynMcyvQab6nhVsVJ2lL7iOLOt8fwr507sI7RfFow2T7ZfJhuXxnlKfGP+TCJ2yoExd8/k6OSDJveG76tcW/yVxmPm2eW+LB+MxE7WG+FBlu+/9ztvjt9pE9u1F5elz8Rg4Sv5sc+KzZZvb8RPQ4zXsTQ/23b07e7ni+IL2Y+am6nu0nV2yJ9LczPxOZtrqzmf7WpyU/TB9M9YkQvq3J7bWHrdcNfKsMiQH8CbbrEy47Fk9+H427vM/oZsWhBFw86bdqdN3d9wXh2yaTyf13bwGd/djQysEm76J5gMTyd55/+mhcSsT0bqgkGdGHS5EpzmRKD7rk8IoZ5qN5VXJ7l8Ape3B4n36eLSPoHbJ+Ni72Ly7ozT1xuwOws39X9blV+VcJb9VYs7tl/GxzG1O1THEghqX4UL2Wr3RygjBRB9YSvFBHXxbF4U9wQWPxbdrhyT7CN/r/rK4k6+Hat+TUJRqNOIO/1+txFuWn+q8Vhx6fhO1atjd+bPQ3MzzfmlHRJWntPzKbIev0t5oixAO/PAmsvSR0vHayGjmwc7/cu+8vten+H79mI+70oMuabbf3UOUD7viAupjM5hdV7t5Emz7gofZF+c9NqxrWmzV67ymagnuQ5cBs5SO3k3aPCBFa85P6QFVNglZMfFmgeZgbxoDmXUTqPOebNXJi/WwhhaO2wb5sa13TGV01UObHN0yIV1npe3S4WYnlm4yb4tPNVzavKVld/yue3sr0vPt+nM+f4Y+uO2+dLlRxgf8tFqxnv5IsUt5Gkx39Ici3lU11W+EXk/ft+2oXfEyP7aORrHLvNJ296U27Vvh/xW+J14lfW23LUyJtzkX5867Velwi6Xk0XO7JNRm5aEm9zeFq+jNm3RF23IOcH7O5uHqyfciJOOhlOfqNQxq0518rdP4Dr44SS34mJI2dA9+Zxm96xwU2y1+zDHXPllbAzaT0N11IVwp34o0woNeueKvoiWYkL/wnvqT5bXdut25TGrjuorCzeNKDP169vblXCTdx3dBcLNdBGp45FjbM0LdeFbz2V5AV3mXNW2lYNkO0vH83+HU/vBniWxSLZvve/1Gb63hIB40R3811mE5F0ieWE/5aeUg+odHN4uM+fUF/h2Dot1e4uJKgaWDzb5rmNb03avXPy++EzUk+ec6f077vkvP3OPvf19vFWkG6+R8Seb1KIv1rPmQRZu8hyyy+h+Z+dOHmuHp5H287zd+lXldHW+0ueGKNro85Sqm8eYdlzWz1Urdqs+sg91X6VsaTOX06+238T8reoPxaiqM2rL+nJjO24yg7n9aX5oX2Rmrfk14ie7TN3HwOfVjPfyRf6nnrhVzMdG5VFdV8VX5H31/VJ8Rb3s8+m1ztc9f4yW69Wvv99218qycJPFiM5Phi/5sBzf8qHEa2yKws0Pb95/wc/mWGNTHVM+T/MKX+CLloFVws1IkrdPcvIkIt/n+3LTIkGdGHS5HLy+DXb5UE+1m5ygTnKVHSW5aoeZfad2rIuCbPP862l265P1ZG+IQ1nY2X2Ysar8Mm/71N/6cum/j7PiRueiVV3g6jJSVFEXz6pOtnvuP6C6XTk+2Uf+XvWVRZnmP6653/ha1wltJTvL7VSSxXBMLxBy/yM2xVul6vpy99IhPXC5KmP6zr5lLNsz9rrdrVJjc3PsotGaF2b7Mjb+vZVncpm5Y0t1cxthbnqRws/nDcSKnk29HKDKd3xZ11WfY53mYbOqTJ4jdft2DuvdhjPGX+7r1NeObTlu5bVfzmIui2BlF6n3vxfubnwbBRvvtyTgND4tfY6OrbXNtCnEamLv5HmR7TQZSDb1xNBc94JeVX5WOVCeG+xziKpb7LPLFlZVHzlusq/83fLrSOxKv3lHtCWqFtuX+5TtnfZ+YVeAyUraQVyueaS9dS6Zjo34aYjxET+Zds8x3s7J7FfTJtW+rqvKyzwu3y+NYbas7i/b2b72Y9GWneLUPbbRQ4lz+/PCTfoJ8NFfnZrz52a3d621aUEUnbN5+NhamwbiPNw3bWWWeb1zWVgl3OT/XOiLxOrhxCG56/8ExJNGvtjTCb57QrFu70knJlsk0e0qaK0TjjrJ+QB3FhUyYdT9p8/qIXmy/ND7E+1uxpFFqOzvCG99gRI++/+yNhfFyQ/mBZCcCCc+nNj7Juzu+MDV/4F84N1JOGj/m5kufovgoy9spYChLp6Ni+J4fOpLMXPirVL5Viv9C1jSf9NDf4tIk2zs/jpTOG7bK8edx6HGX/yt60f/5gc9TzaV5+AIm8p3iet5/1VjHZoLJ9QZnJsx3+QHvtr91XPF+1Plqc5YZstYOUi2U9svj5X3KVeY89YeS2bBfO3alPuRu27avBBziMwzqZ7MKXV+Sp913qkv5lNf8uGjq88HR/ij+Hlt3ZkcrtqcKbd43sz/Uf/evVxEu9ie/1zEHdXfmnHUMbBupW0ZGDpv5tjNCgM1O+nzVqwf4ReVP9X5o3/O8fMs1qt+WSr13+RbaZfqI8dO9yXn8bW/+F91vOVu/eVa89/zNodZsct9jOU32fdFvw+/KvXNve6m9E9+X+eUkp9lLprGlhm1rhvH/JR8J/NatmXV61rGU3nrWqzO3TmvpocR16KvOjepunmeyVwvfSfepz4sPwYejBzWctLmmbaM6HPWv1vuWol9zgk3z7x/c4Of/479hNu7NniY8mqbur8qNerz5XKrbZqN8XJ/x/ND2/juajKwUrjxg8yJPt/HapwsxUkkPk9CnhT0yah/QrGfO2Nuj03bvPWzK4Rd6kSVAmWc/PMJvtuOTzDp5DSNK46nezLrJKU47uxD+brS7sbXvi3p7wxmuvhIvvL2Bhusi5GmTau9DYSb4Jt4YSp/VtoWCMRPqebbekT9LH5IAUNdeCchRvajfrI1xSleWIu+ynMLJnFD9pETn+4r+7wd26P1T4Jn8Sr04/uodsDk266KHcI24Ychm1RfqZ0igGWb5cLDl/E2xXHUcfFjr/2V45D9ctbXwblpzj1xcdxezBsLm2aOWPNOzzmVV0R/xUfKfktUnfJPnQdLG518Mx0ftykKM1NusnJc48t6XFaeLeMUeaV85/vzObDOq/V5J9p1vB8m3iffHPudPqfV7TU+Kucrket93BqmhH9CXFPsRM7ObVuxqe2Qn+vYejbrNkbKxDYtpqqxNdcNVvx0Oz62YXxivHIMF/1e5XQlqtRiSpXnfU4NuXY6Z0y2pn88iHxe8qrqI7NY95W/f9y9/tcF4aZwFn1dx7flLZazWJjsz/1f8Gt6zo15S0czT7zd9Vyxrx+n67Zo/7aMj/hkmfE8p9X5IsRSzyltuz8W2445Ueek2GbyUci1sq0VuVXlaeMcVR/3dqv5G21sWFw8bxm+3WrXSn6A7ldemKn+8sOH009aN8d9+U+ec79aZf9Gt3ettmlhJ9uqMRjx8PVX29RpZwtbaKMR9M+ex4nBhcTgCOGGibYr+K2FEZPlQibLruJ+TIzDYkLvuLnyYzrGD1e5Trgwbhcpd34c9ULkzh/v5Z9nw8JQLbou3ybiPhaDOyF23V03G17z3Al+ulvnxJYPJT6nD7d9KPFYPvDj686nq3w9hO2sde5CBhBurnrQN7yIOefJi77GT7ib+Qrh5mqf5O7quY5ws1keGDznsai9hBw9GJslFu6M2KUdAvUtUxvmwTvDT1eX0yWO+8c32rWy0Xzr21nHZvvbu4b6DrdI3eO+e6m2h89D/js7J8SFuPQZQLjZckKmC4p2i+u0BTneBtAPyGpYN7yIWd33lr6jrYsXFRBuLt7HF8Cx3DrfuzUoLECqWyOaPFTfxnQBtl5cDkG4WfKt5KSJfWZjxQ4aFrUbnqfPPNfunNgZv4Kz4TXPFn7aet4tzXOOX915eTmxi3MI0QZuLoc//L613xFuznxBtXUAaY+kAAMwAAMwAAMwAAMwAAMwAAMwAAN3LgMINwg3V3IXAknpzk1KxJbYwgAMwAAMwAAMwAAMwAAMwMDEAMINwg3CDQzAAAzAAAzAAAzAAAzAAAzAAAzAwE4ZQLjZaWBQFyd1EV/gCxiAARiAARiAARiAARiAARiAgbuVAYQbhBtUVRiAARiAARiAARiAARiAARiAARiAgZ0y8P8BUPSk8Kr0NtcAAAAASUVORK5CYII=;" parent="WIyWlLk6GJQsqaUBKTNV-1" vertex="1">
          <mxGeometry x="320" y="870.5" width="1134" height="439" as="geometry" />
        </mxCell>
        <mxCell id="XNMfURiHyV9oHoCnZr0N-30" value="" style="ellipse;whiteSpace=wrap;html=1;aspect=fixed;fillColor=none;" parent="WIyWlLk6GJQsqaUBKTNV-1" vertex="1">
          <mxGeometry x="-290" y="796" width="454" height="454" as="geometry" />
        </mxCell>
      </root>
    </mxGraphModel>
  </diagram>
</mxfile>
